<svg xmlns="http://www.w3.org/2000/svg" viewBox="0 0 315.54 310.66"><defs><style>.cls-1{fill:none;stroke:#885e3c;stroke-miterlimit:10;stroke-width:3px;}</style></defs><g id="Layer_2" data-name="Layer 2"><g id="trash"><g id="Trash11"><path class="cls-1" d="M249.74,1.47c-9,1.84-22,4.75-37.68,9.12C167.31,23.1,77.09,50.41,24.27,117.88c-13.94,17.8-25.87,40-22,60.46,1.65,8.83,6.1,16.5,10.82,23.75a259.06,259.06,0,0,0,109.42,94.14c21.57,9.84,46.1,16.88,70.79,10.47,37.94-9.85,65.42-48.81,77.5-87,9.16-29,6.11-47.07,11.86-78.19a290.93,290.93,0,0,1,10.12-38.37A325.62,325.62,0,0,1,306.3,68.88"/><path class="cls-1" d="M81.53,66.08c25.31,28.41,71.61,70.27,143.21,88.63a293,293,0,0,0,54.83,8.56"/><path class="cls-1" d="M53.8,87a277.42,277.42,0,0,0,99.64,73.09c50.9,22.09,97.94,24.81,125.78,24.28"/><path class="cls-1" d="M21.34,120.51a331.34,331.34,0,0,0,122.07,68.66c52.86,16.45,100.33,17.2,131.6,15.2"/><path class="cls-1" d="M5,151.22A319,319,0,0,0,119.42,219c59.6,20.2,113.33,19.39,145.47,16.44"/><path class="cls-1" d="M234.4,281.86c-31.93,2.58-92.36,2.79-153.5-28.76a254,254,0,0,1-67.86-51"/><path class="cls-1" d="M118.47,45.93a254.35,254.35,0,0,0,74,63,266.94,266.94,0,0,0,90.39,31"/><path class="cls-1" d="M188.48,17.51c2,2.72,5.17,6.92,9.3,11.85,23.53,28.06,48.66,44.68,70,58.56,6,3.88,14.44,9.21,25,15.18"/><path class="cls-1" d="M216.38,9.76c9.48,10.22,19.9,20.68,31.36,31.18a543.29,543.29,0,0,0,51,41.33"/><path class="cls-1" d="M266.91,10.21a503.38,503.38,0,0,1-51.75,22.7c-34.59,12.9-41.52,11-61.33,18.82-38.59,15.15-63.61,42.32-93,74.25A443.85,443.85,0,0,0,8.76,195"/><path class="cls-1" d="M276.18,18.37c-35.67,34-88.25,37.92-127.94,66.59-19.94,14.41-32.63,32.15-44.53,45.83a638.94,638.94,0,0,0-70.42,98.37"/><path class="cls-1" d="M270.13,39.35a363.69,363.69,0,0,1-42.46,24.91,349.93,349.93,0,0,0-35.15,19.35c-3.69,2.32-7.07,4.59-10.48,6.94-34.8,24.07-69.66,70.65-69.66,70.65a445.21,445.21,0,0,0-53.67,93.68"/><path class="cls-1" d="M297.35,43.6A874.6,874.6,0,0,0,108.69,287.82"/><path class="cls-1" d="M314.3,59c-29.88,44.39-60.09,91.36-90.24,140.91q-33.88,55.67-63.8,109"/><path class="cls-1" d="M133.07,300.28A1125.71,1125.71,0,0,1,205.84,178.5,1139.25,1139.25,0,0,1,300.75,58.41"/><path class="cls-1" d="M276.28,55.38C235.79,78.25,166.8,124.76,115.49,206.87a413.6,413.6,0,0,0-33.78,66.84"/><path class="cls-1" d="M156.25,28.58a231.62,231.62,0,0,0,55.63,55.79,236.87,236.87,0,0,0,75.81,35.29"/><path class="cls-1" d="M178.78,309a715.82,715.82,0,0,0,61.94-83,703.37,703.37,0,0,0,39.77-70.92"/></g></g></g></svg>