<svg xmlns="http://www.w3.org/2000/svg" xmlns:xlink="http://www.w3.org/1999/xlink" viewBox="0 0 224.32 113.2"><defs><style>.cls-1{fill:url(#radial-gradient);}.cls-2{fill:#2c2e65;}</style><radialGradient id="radial-gradient" cx="2735.85" cy="-1455.54" r="78.24" gradientTransform="matrix(-0.21, -0.98, 0.98, -0.21, 2114.56, 2430.32)" gradientUnits="userSpaceOnUse"><stop offset="0" stop-color="#fff" stop-opacity="0"/><stop offset="1" stop-color="#fff"/></radialGradient></defs><g id="Layer_2" data-name="Layer 2"><g id="trash"><g id="Trash3"><path class="cls-1" d="M26.43,68.37,16.35,70.53,20.91,91.8,31,89.64a39.76,39.76,0,0,0,44.61,22.67L211.34,83.25A16.43,16.43,0,0,0,224,63.76L213.09,13A16.42,16.42,0,0,0,193.6.37L57.85,29.43A39.74,39.74,0,0,0,26.43,68.37Z"/><path class="cls-2" d="M-3.65,73.82H27.48a3.32,3.32,0,0,1,3.32,3.32V91.38a0,0,0,0,1,0,0H-7a0,0,0,0,1,0,0V77.15a3.32,3.32,0,0,1,3.32-3.32Z" transform="translate(-66.36 111.54) rotate(-102.08)"/></g></g></g></svg>