<svg xmlns="http://www.w3.org/2000/svg" viewBox="0 0 361.01 228.19"><defs><style>.cls-1{fill:none;stroke:#885e3c;stroke-miterlimit:10;stroke-width:3px;}</style></defs><g id="Layer_2" data-name="Layer 2"><g id="trash"><g id="Trash5"><path class="cls-1" d="M.11,154.21c21,1.5,41.7-7,58.7-19.37s30.82-28.56,44.48-44.56l31.26-36.62c12.12-14.2,24.46-28.59,40-38.92s35-16.25,53.13-11.68c22,5.57,37.88,25.51,46,46.74S283.74,94,288.15,116.3c5.45,27.55,12.65,45.39,28.48,60.71,15.06,14.59,33,19.94,44.09,22.17"/><path class="cls-1" d="M45.21,171.38c17-7.43,42.22-21,64.6-45.78,19.06-21.1,23.07-35.92,42.34-62,12-16.21,31.49-39,62.37-62.11"/><path class="cls-1" d="M232.7,4.61A288.16,288.16,0,0,0,197.46,47.5C185,66.11,186,69.56,168.31,96.71c-9.82,15.06-13.33,18.91-17.21,29.22-1.14,3-3.88,10.82-7.55,37.42-1.79,13-3,24.34-3.75,33.57"/><path class="cls-1" d="M240.82,8.58A729.75,729.75,0,0,1,201.69,95c-7.14,13.28-14.75,26.35-18.29,46.08a125.76,125.76,0,0,0,2.43,53.59"/><path class="cls-1" d="M251.69,16.39C251,23.5,249.87,34,247.61,46.63,241.27,82,231.49,105.37,227.92,116,220.37,138.42,217.2,173.4,238,227.66"/><path class="cls-1" d="M265.28,32c-1.82,13.6-4.3,33.13-6.79,56.74-5.33,50.35-4.46,59.74-3.4,66.24,2.41,14.85,10,40.43,38.37,68.49"/><path class="cls-1" d="M336.94,212.18a48.15,48.15,0,0,1-13.08-2.82c-12.64-4.64-19.6-13.68-24.61-19.36-7.95-9-11.12-18.06-15.28-29.9a153.11,153.11,0,0,1-7.82-36.69,165.87,165.87,0,0,1,3.74-52.6"/><path class="cls-1" d="M163,22.85A211.31,211.31,0,0,1,187.24,21c14.13-.28,21.75-.43,30.29,1.84,11.05,2.92,19.82,10.18,36.9,24.57,6.39,5.39,15.3,13.24,25.46,23.43"/><path class="cls-1" d="M142.86,44c15.34-.71,37.76.33,61.65,10.29C215,58.67,220,63.18,236.48,73,257,85.2,274.37,93.84,286,99.29"/><path class="cls-1" d="M127.89,61.46c19.17,4.47,39.32,9.87,60.27,16.42a842,842,0,0,1,100,38.42"/><path class="cls-1" d="M54.64,137.34c62.23,33.15,149.64,65.62,252.71,60.44,12.54-.63,24.68-1.78,36.41-3.37"/><path class="cls-1" d="M79.64,116.63a406.42,406.42,0,0,0,123.47,44.83,405.74,405.74,0,0,0,105.32,5.78"/><path class="cls-1" d="M96,98.75a543.57,543.57,0,0,0,105.73,32.81,542.36,542.36,0,0,0,93.43,10.53"/><path class="cls-1" d="M111.05,79.17a553,553,0,0,0,69.5,25.23c22,6.35,40.45,10.13,59.77,14.11,20.53,4.21,37.83,7.18,50.33,9.16"/></g></g></g></svg>