<svg xmlns="http://www.w3.org/2000/svg" xmlns:xlink="http://www.w3.org/1999/xlink" viewBox="0 0 293.09 434.5"><defs><style>.cls-1{fill:url(#radial-gradient);}</style><radialGradient id="radial-gradient" cx="222.05" cy="-276.26" fx="206.50754105963813" fy="-194.39145129707285" r="179.84" gradientTransform="translate(1.95 537.94) rotate(-13.53)" gradientUnits="userSpaceOnUse"><stop offset="0" stop-color="#fff" stop-opacity="0"/><stop offset="1" stop-color="#fff"/></radialGradient></defs><g id="Layer_2" data-name="Layer 2"><g id="trash"><g id="Trash1"><path class="cls-1" d="M244.92.82C231-3.93,209.1,12.68,199.33,31c-13.28,24.91,1.79,41.8-8.67,83.77-3.19,12.79-6.68,26.78-16.78,40.07-24.09,31.69-43,41.41-69.75,22.1-38-27.38.07-116.3-42-140.73-1.95-1.14-12.31-7.15-23.56-4.35C9.73,39.06-3.31,98.7.72,144.27c.67,7.7,1.15,6.92,16.94,70.41,11,44.22,16.5,66.33,17.49,72.66,9.45,61-5.64,73.46,9.88,100.93C64.68,423,105.43,432.33,108.66,433a60.69,60.69,0,0,0,10.9,1.41c29.42,1,42.4-8,81-18.74,27.72-7.7,28.73-4.53,46-11.67,22.4-9.25,31.92-15.55,40.59-24.36,23.21-23.56-29.62-104.42-24.86-166.81.13-1.8.55-6.67,1.1-14.53,1-14.38,2.26-36.75,2.59-64.07.14-11.37.05-23.72-.39-37.49C262.93,12.25,251.48,3,244.92.82ZM64,120.48c-1.12,31.37.34,35.46-3.06,49-.52,2.05-9.72,37.78-19.81,37.21-9.18-.51-16.1-30.91-17-52.61,0-1.07.33-9.28,1.08-25.7.1-2.15,1-21.25,3.44-46.22C30.65,61,31.73,57,35.25,55.12c6.61-3.59,18.44,2,25,10C67.85,74.44,65.28,83.29,64,120.48Zm181.2-18c.52,44.35,1.21,55.87-6.08,59.32-8.84,4.18-27.06-4.59-32.47-17.61a22.25,22.25,0,0,1-1.43-5.13c-3-18.12,4.29-34.68,7-49.73,5-27.72-8-36.4,1.63-50.72,5.21-7.77,15.88-15.42,23.1-12.66C245.22,29.08,244.46,44.29,245.15,102.44Z"/></g></g></g></svg>