<svg xmlns="http://www.w3.org/2000/svg" xmlns:xlink="http://www.w3.org/1999/xlink" viewBox="0 0 47.59 134.44"><defs><style>.cls-1{fill:url(#radial-gradient);}</style><radialGradient id="radial-gradient" cx="188.89" cy="-712.58" r="49.69" gradientTransform="translate(-278.53 741.82) rotate(8.94)" gradientUnits="userSpaceOnUse"><stop offset="0" stop-color="#fff" stop-opacity="0"/><stop offset="1" stop-color="#fff"/></radialGradient></defs><g id="Layer_2" data-name="Layer 2"><g id="trash"><g id="Trash4"><path class="cls-1" d="M31.47,134.38a5.22,5.22,0,0,1-4.37-5.67l9.41-92.93a9,9,0,0,0-4.38-8.66L2.73,9.79A5.33,5.33,0,0,1,.28,3.51,5.21,5.21,0,0,1,7.85.72L43.16,21.53a9,9,0,0,1,4.39,8.66L37.46,129.76a5.2,5.2,0,0,1-5.7,4.65A2.58,2.58,0,0,1,31.47,134.38Z"/></g></g></g></svg>