<svg xmlns="http://www.w3.org/2000/svg" viewBox="0 0 88.97 89.35"><defs><style>.cls-1{fill:#fff;}</style></defs><g id="Layer_2" data-name="Layer 2"><g id="trash"><g id="Trash10"><path class="cls-1" d="M18.09.45,16,2.6a1.56,1.56,0,0,0,0,2.19L34.49,23.26a1.56,1.56,0,0,1,0,2.19L33.25,26.7a1.56,1.56,0,0,1-2.19,0L12.53,8.23a1.54,1.54,0,0,0-2.19,0L8.2,10.38a1.55,1.55,0,0,0,0,2.18L26.74,31a1.55,1.55,0,0,1,0,2.18L25.5,34.47a1.55,1.55,0,0,1-2.19,0L4.78,16a1.56,1.56,0,0,0-2.19,0L.45,18.15a1.56,1.56,0,0,0,0,2.19L22.79,42.6a14,14,0,0,0,16,2.72l44.18,44,6-6.06L45,39.45a14,14,0,0,0-2.37-16.73L20.28.45A1.56,1.56,0,0,0,18.09.45Z"/></g></g></g></svg>