<svg xmlns="http://www.w3.org/2000/svg" xmlns:xlink="http://www.w3.org/1999/xlink" viewBox="0 0 99.51 110.71"><defs><style>.cls-1{fill:url(#linear-gradient);}.cls-2{fill:gray;}</style><linearGradient id="linear-gradient" x1="24.96" y1="41.22" x2="74.29" y2="69.84" gradientTransform="translate(-22.07 35.36) rotate(-32.65)" gradientUnits="userSpaceOnUse"><stop offset="0" stop-color="#808082"/><stop offset="0.7" stop-color="#f5f5f5"/><stop offset="1" stop-color="#808082"/></linearGradient></defs><g id="Layer_2" data-name="Layer 2"><g id="trash"><g id="Trash6"><rect class="cls-1" x="18.53" y="4.61" width="61.58" height="101.49" rx="10.44" transform="translate(37.66 -17.86) rotate(32.65)"/><path class="cls-2" d="M95.83,22.9c.31-.17,3.49-1.83,3.67-4.88.19-2.84-2.31-4.78-2.52-5-2.17-1.64-4.78-1.26-10-.56a11.79,11.79,0,0,0-4.36,1.19c-1.07.57-3.59,1.89-3.56,3.72s2.18,2.95,3.47,3.68a14.06,14.06,0,0,0,4.36,1.48C91.45,23.46,93.73,23.93,95.83,22.9Zm-3.64-1.68a3.78,3.78,0,0,1-3-4.38,3.72,3.72,0,0,1,4.6-2.66,3.78,3.78,0,0,1,3.08,4.32A3.88,3.88,0,0,1,92.19,21.22Z"/></g></g></g></svg>