<svg xmlns="http://www.w3.org/2000/svg" xmlns:xlink="http://www.w3.org/1999/xlink" viewBox="0 0 259.17 264.64"><defs><style>.cls-1{fill:url(#linear-gradient);}.cls-2{fill:url(#linear-gradient-2);}.cls-3{fill:url(#linear-gradient-3);}.cls-4{fill:url(#linear-gradient-4);}.cls-5{fill:url(#linear-gradient-5);}.cls-6{fill:url(#linear-gradient-6);}.cls-7{fill:url(#linear-gradient-7);}.cls-8{fill:#142f54;}.cls-9{fill:url(#linear-gradient-8);}.cls-10{fill:url(#linear-gradient-9);}.cls-11{fill:#fab998;}.cls-12{fill:url(#linear-gradient-10);}.cls-13{fill:url(#linear-gradient-11);}.cls-14{fill:url(#linear-gradient-12);}.cls-15{fill:url(#linear-gradient-13);}.cls-16{fill:url(#linear-gradient-14);}.cls-17{fill:#45362e;}.cls-18{fill:#16103f;}.cls-19{fill:url(#radial-gradient);}.cls-20{fill:#f49c76;}.cls-21{fill:#ffbbe4;}</style><linearGradient id="linear-gradient" x1="43.19" y1="39.36" x2="101.07" y2="39.36" gradientUnits="userSpaceOnUse"><stop offset="0" stop-color="#fceb4f"/><stop offset="1" stop-color="#ffcc17"/></linearGradient><linearGradient id="linear-gradient-2" x1="117.71" y1="29.94" x2="145.43" y2="29.94" xlink:href="#linear-gradient"/><linearGradient id="linear-gradient-3" x1="28.33" y1="93.16" x2="75.96" y2="93.16" xlink:href="#linear-gradient"/><linearGradient id="linear-gradient-4" x1="8642.45" y1="6973.38" x2="8666.35" y2="7012.05" gradientTransform="matrix(0.36, -1.09, 0.93, 0.31, -9495.19, 7472.1)" gradientUnits="userSpaceOnUse"><stop offset="0.05" stop-color="#fff"/><stop offset="0.26" stop-color="#d2ecef"/><stop offset="0.37" stop-color="#cdeaef"/><stop offset="0.5" stop-color="#bee5ee"/><stop offset="0.64" stop-color="#a5dded"/><stop offset="0.65" stop-color="#a3dced"/></linearGradient><linearGradient id="linear-gradient-5" x1="-7501.44" y1="8719.5" x2="-7480.52" y2="8753.37" gradientTransform="matrix(-0.11, 0.99, 0.99, 0.11, -9358.23, 6651.12)" gradientUnits="userSpaceOnUse"><stop offset="0.12" stop-color="#9fd8d8"/><stop offset="0.23" stop-color="#85b6bd"/><stop offset="0.47" stop-color="#527689"/><stop offset="0.68" stop-color="#2c4662"/><stop offset="0.83" stop-color="#16294b"/><stop offset="0.92" stop-color="#0d1e42"/></linearGradient><linearGradient id="linear-gradient-6" x1="8618.46" y1="6924.96" x2="8642.35" y2="6963.63" xlink:href="#linear-gradient-4"/><linearGradient id="linear-gradient-7" x1="2516.16" y1="-834.22" x2="2448.9" y2="-728.65" gradientTransform="translate(2076.44 -1463.82) rotate(158.2)" xlink:href="#linear-gradient-5"/><linearGradient id="linear-gradient-8" x1="2009.64" y1="-1117.99" x2="2075.15" y2="-960.37" gradientTransform="translate(2335.58 -710.04) rotate(-175.13)" xlink:href="#linear-gradient-5"/><linearGradient id="linear-gradient-9" x1="1292" y1="115.29" x2="1274" y2="298.3" gradientTransform="matrix(0.99, -0.16, 0.16, 0.99, -1164.31, 170.8)" xlink:href="#linear-gradient-5"/><linearGradient id="linear-gradient-10" x1="-5579.7" y1="1369.62" x2="-5615.44" y2="1479.33" gradientTransform="matrix(-0.9, -0.43, -0.43, 0.9, -4285.21, -3611.55)" gradientUnits="userSpaceOnUse"><stop offset="0.12" stop-color="#5c5d60"/><stop offset="0.18" stop-color="#535457"/><stop offset="0.51" stop-color="#262728"/><stop offset="0.77" stop-color="#0a0b0b"/><stop offset="0.92"/></linearGradient><linearGradient id="linear-gradient-11" x1="-5052.54" y1="1240.91" x2="-5091.5" y2="1276.44" gradientTransform="matrix(-0.97, 0.24, 0.24, 0.97, -5117.74, 116.38)" xlink:href="#linear-gradient-5"/><linearGradient id="linear-gradient-12" x1="7086.75" y1="1056.16" x2="7141.32" y2="1056.16" gradientTransform="matrix(0.95, -0.15, 0.16, 0.99, -6770.4, 138.33)" xlink:href="#linear-gradient-4"/><linearGradient id="linear-gradient-13" x1="9090.37" y1="1521.63" x2="9159.34" y2="1573.44" gradientTransform="matrix(0.75, -0.2, 0.21, 0.78, -7008.57, 686.77)" xlink:href="#linear-gradient-10"/><linearGradient id="linear-gradient-14" x1="-5696.79" y1="1779.22" x2="-5693.46" y2="1808.93" gradientTransform="matrix(-0.93, 0.36, 0.36, 0.93, -5832.46, 511.2)" xlink:href="#linear-gradient-5"/><radialGradient id="radial-gradient" cx="-5641.82" cy="1921.29" r="10.85" gradientTransform="matrix(-0.92, 0.38, 0.38, 0.92, -5820.62, 505.51)" gradientUnits="userSpaceOnUse"><stop offset="0" stop-color="#9fd8d8"/><stop offset="0.14" stop-color="#85b6bd"/><stop offset="0.44" stop-color="#527689"/><stop offset="0.7" stop-color="#2c4662"/><stop offset="0.89" stop-color="#16294b"/><stop offset="1" stop-color="#0d1e42"/></radialGradient></defs><g id="Layer_2" data-name="Layer 2"><g id="Layer_2-2" data-name="Layer 2"><path class="cls-1" d="M43.21,20.8c1.13-8.9,20.44-19,25.39-18s34.91,55.77,32.31,63.08A15.58,15.58,0,0,1,85.61,76C80.15,75.7,42.21,28.56,43.21,20.8Z"/><path class="cls-2" d="M119.61,2.88c4.81-5.06,22.21-2.5,25,.43s-2.35,51.17-7.41,54.56-11.27,2-14.75-.71S115.41,7.3,119.61,2.88Z"/><path class="cls-3" d="M29,96.81c-2.66-5,3.72-17.66,6.68-19.07s38.64,14.78,40,19.53a10.38,10.38,0,0,1-4.29,11.12C68.36,110.37,31.29,101.16,29,96.81Z"/><path class="cls-4" d="M157.29,261.32c-4.61-25.6-12.35-69.63-17-95.24-1.18-14.74,6.28-24.45,16.71-25.46,8.07-.78,18.54,2.42,21,12.69,3.52,16.61,7.08,41.17,10.62,63.9a38.88,38.88,0,0,1-31,44Z"/><path class="cls-5" d="M144.48,188.16s.53-13.5,15.63-18.15c18.6-5.73,23.88,7.34,23.88,7.34l1,9.18s-9.49-9.25-19.68-7.84C150,180.83,146,196.64,146,196.64Z"/><path class="cls-6" d="M96.7,234.19C93,213,88.92,190.28,86.08,174.5c-1.18-14.74,6.28-24.45,16.71-25.46,8.07-.78,18.54,2.42,21,12.69,5.72,27,11.54,75.06,17.26,102.07l-.41.09A37.17,37.17,0,0,1,96.7,234.19Z"/><path class="cls-7" d="M15.46,111.68,30.36,102l.09-.07s11.77,15,17.19,21.9c5.76,7.27,18.6,21,24.13,26.92,8,8.49,15.42,18.81,18.06,20.83,9.75,7.45,25.27,23.49,27,30.1a15.42,15.42,0,0,1-4.39,15.26c-1.68,1.53.93,1.39-1.68,1.53l1.68-1.53c-1-.08-1.89,1.7-2.47,1.64l-5.31-2.1c4.82-5.66,6.38-6.76,6-6.86-7.89-2.15-4.08-1.43-15.54-6.28-11.2-4.75-33.92-25.61-49.31-45.82C31.24,138.37,17,114.35,15.58,111.89Z"/><path class="cls-8" d="M71.77,150.75a7.79,7.79,0,0,1-1,6.67c-1.82,2.91-3.58,3.23-3.58,3.23a15.71,15.71,0,0,0,3-5.1c.65-2.44-.48-7.14-.48-7.14Z"/><path class="cls-9" d="M174.56,158.75a156.75,156.75,0,0,0,10-12.11c11.23-15,27.53-41.34,32.84-52.91,3.93-8.53,12.43-26.42,12.43-26.42l.11,0,16.54,6.47a2.51,2.51,0,0,1-.08.24c-.95,2.78-13.61,35.42-20.3,50.8-4.7,10.82-9.26,22.58-16.34,32.49-3.7,5.17-15.29,21-21.17,26.67-.93.9-3.53,3.87-4.37,4.39l-5.7,4.83c-1.45.69-2.53-2.48-5-1.58-2.36.34-2.71,4.14-4.6,3-4.91-2.88-3.58-6.46-3.33-12.13C165.94,175.74,166,167.54,174.56,158.75Z"/><path class="cls-8" d="M201.46,122a7.88,7.88,0,0,0,2.84,6.18c2.59,2.26,4.37,2.05,4.37,2.05a15.57,15.57,0,0,1-4.36-4c-1.34-2.15-1.42-6.9-1.42-6.9Z"/><path class="cls-10" d="M179.18,197.2c2.16,13.3,4.12,22.22,5.06,28.92,1.47,10.62.35,15.71-6.72,23.92-11.82,13.72-36.36,18.53-62.69,7.85-17-6.86-6.7-13.35-10.21-41.41-.21-1.64-.46-3.38-.75-5.2-3.24-19.83-12.52-37-14-39.7a30.81,30.81,0,0,1,2.07-2.37,0,0,0,0,1,0,0c1.24-1,3-2.35,5.13-3.82a72,72,0,0,1,32.13-12.2c18.18-2,35.13,2.27,42.09,4.37a0,0,0,0,0,0,0c1,.3,1.78.56,2.33.75h0a8.38,8.38,0,0,1,.91.44C174.41,159.49,173.91,164.81,179.18,197.2Z"/><path class="cls-11" d="M119.21,145.73l1,6.32a10.84,10.84,0,0,0,12.45,9h0a10.84,10.84,0,0,0,9-12.45l-1-6.31a10.85,10.85,0,0,0-12.77-8.91h0A10.85,10.85,0,0,0,119.21,145.73Z"/><path class="cls-12" d="M98.57,93.6S107,78.18,143.69,78C160,77.92,147.46,63.23,174,47.34c23.91-14.31,53-3.88,50.86,13.95s-27,9.49-29.64,26.42c-1.31,8.47,9.37,11.66,3.92,28.18-7.15,21.62-19,.94-27.11,13.65-11.28,17.71-29.95,11-29.95,11Z"/><path class="cls-11" d="M156.39,117.26s3.36-.66,5.13-2.43c4.58-4.59,4.84-14.2-5.62-12.88-11.59,1.46-23.21-26.27-29.94-26.69-12.73-.8-27.69,14.31-30.08,21.61-2.13,6.49-3.09,11.64-1.49,18a93.17,93.17,0,0,0,6.16,17.57,29.76,29.76,0,0,0,13.77,13.75c3.61,1.74,15.64,6.93,27.25-1.09,2.15-1.49,6.74-5.14,10.52-13A46,46,0,0,0,156.39,117.26Z"/><path class="cls-13" d="M118.2,97.1c10.52-2.64,26.37-6.61,33.89,1.3,3.21,3.39,4.25,8.27,4.47,9.3a18.31,18.31,0,0,1-.06,9.08c-.41,1.47-2.2,7.09-7.16,9.58-4.08,2-8.7,1.16-13.44.26-3.55-.68-5.7-1.65-9.13-.9a22.51,22.51,0,0,0-4.8,1.86c-3.82,1.77-4.35,2.69-7.54,3.9a14.45,14.45,0,0,1-5.25,1.25,12.88,12.88,0,0,1-5.45-1.16c-4.76-2.1-8.67-7.38-9.46-13.35a15.92,15.92,0,0,1,1.49-9.67c2.92-5.35,9-7.29,18-10.19C116,97.67,117.61,97.25,118.2,97.1Z"/><path class="cls-14" d="M120,101.18c14.77-3,23.27-4.79,28.32.57a13.83,13.83,0,0,1,3.51,11.19c-.12.73-.91,5.17-4.46,7.45-1.63,1-3.21,1.22-11,.69-9.37-.63-8.59-1-10-.73-5.84,1.07-6.55,4.83-13.35,6.13-2.4.46-4.38.9-6.62,0-3.93-1.68-6.19-6.5-6.34-10.63a12.08,12.08,0,0,1,.79-4.87C102.08,107.87,105.44,104.17,120,101.18Z"/><path class="cls-15" d="M94.39,114.84c9.52,2.19,20.68-2.87,21.51-3.74a7.82,7.82,0,0,1-6-3.1,7.24,7.24,0,0,1-1.22-3.13A35.27,35.27,0,0,0,119,108.65a24.28,24.28,0,0,0,7.93.52,21.75,21.75,0,0,0,7.93-2.51l-4.29-2.72A30.72,30.72,0,0,0,137,105.4c6.72.75,8.54,1.16,13.21.88,5.65-.33,8,0,11.05-1.69-.4-3.24-2.18-14-7.36-20.76-7.1-9.32-16-10.35-20-11-10-1.52-19.32,1.09-28.92,9.26C90,94.86,93.69,114.67,94.39,114.84Z"/><path class="cls-16" d="M119.29,124.51c-2.38,1.19-4.61,2.29-5.68,4.77a8.7,8.7,0,0,0-.22,5.48,13.84,13.84,0,0,0,6,8.28c4.36,2.64,8.89,1.79,12,1.21s7.64-1.43,10.62-5.29c2.53-3.29,4.09-8.85,1.58-12.64-1.71-2.56-4.66-3.37-6.83-4-3.17-.87-5.71-.55-9-.14A24.85,24.85,0,0,0,119.29,124.51Z"/><path class="cls-17" d="M135.1,110.25c.12.91.76.45,2.28.24s3.35-.1,3.23-1-1.47-1.48-3-1.27S135,109.34,135.1,110.25Z"/><path class="cls-17" d="M111.08,115.12c.13.91.76.46,2.28.25s3.36-.1,3.23-1-1.46-1.48-3-1.27S111,114.21,111.08,115.12Z"/><path class="cls-18" d="M151.64,106c2.77.15,4.9-3.79,5.7-5.13,2.28-3.77,2.82-5.29,1-9.36.5.93,3.71,7.34,3.4,12-.17,2.56-4.42,7.3-8.43,9.24C152.66,109.27,152.3,109.35,151.64,106Z"/><path class="cls-19" d="M138.86,133.28a7.84,7.84,0,0,1-1.6,3.7c-1.75,2.15-4.24,2.58-6.79,3s-4.75.83-7.07-.36a8.53,8.53,0,0,1-3.64-3.81,6.79,6.79,0,0,1-.76-4.69c1-3.45,6.19-4.39,8.56-4.82s8.16-1.49,10.45,1.73C139.39,130,138.94,132.78,138.86,133.28Z"/><path class="cls-11" d="M30.12,103.21a29.69,29.69,0,0,0,4.07-7c2.07-4.71-4.78-19.42.16-25.52,7.16-8.84-6.92-6-8.46,1.82s-.95,12-3.8,9.81-4.46-8.51-8.64-4.82S0,86.89,0,91.69c.06,5.89,1.83,8,7.16,11.64A43.31,43.31,0,0,1,16.22,112Z"/><path class="cls-20" d="M6,92.12S10.33,100,16.4,97.33s6-6.14,6-6.14S19,102.91,6,96.59c0,0-1.58.83,0,2.42C6,99,2.75,96.31,6,92.12Z"/><path class="cls-11" d="M231.59,68.56a29.9,29.9,0,0,1-5.38-6c-3-4.2.79-20-5.28-25-8.78-7.23,5.59-7.23,8.66.09s3.33,11.52,5.69,8.85,2.66-9.23,7.49-6.46,15.11,6.49,16,11.2c1.13,5.79-.19,8.2-4.67,12.84A43.18,43.18,0,0,0,247,74.38Z"/><path class="cls-20" d="M253,52.86s-2.66,8.61-9.14,7.18-7.09-4.81-7.09-4.81,5.63,10.81,17.12,2c0,0,1.72.51.48,2.37C254.37,59.6,257,56.31,253,52.86Z"/><path class="cls-17" d="M120,119s-6.91-3.77-8.16-1.33,6.26,2,6.26,2-5,1.32-4.22,3.7S120,119,120,119Z"/><path class="cls-17" d="M134.62,116.75s4.76-6,6.81-4.26-4.86,4.13-4.86,4.13,5-.68,5.17,1.76S134.62,116.75,134.62,116.75Z"/><rect class="cls-21" x="148.15" y="119.06" width="3.25" height="14.57" rx="1.16" transform="translate(17.21 -17.95) rotate(7.28)"/><rect class="cls-21" x="154.71" y="117.52" width="3.25" height="14.57" rx="1.16" transform="translate(17.06 -18.79) rotate(7.28)"/><rect class="cls-21" x="161.71" y="115.88" width="3.25" height="14.57" rx="1.16" transform="translate(16.91 -19.69) rotate(7.28)"/><rect class="cls-21" x="92.74" y="129.22" width="3.25" height="14.57" rx="1.16" transform="matrix(1, 0.08, -0.08, 1, 11.93, -7.52)"/><rect class="cls-21" x="99.23" y="127.41" width="3.25" height="14.57" rx="1.16" transform="translate(11.8 -8.08) rotate(4.87)"/><rect class="cls-21" x="106.16" y="125.48" width="3.25" height="14.57" rx="1.16" transform="translate(11.66 -8.67) rotate(4.87)"/></g></g></svg>