<svg xmlns="http://www.w3.org/2000/svg" xmlns:xlink="http://www.w3.org/1999/xlink" viewBox="0 0 240.56 234.69"><defs><style>.cls-1{fill:#fab998;}.cls-2{fill:#f49c76;}.cls-3{fill:url(#linear-gradient);}.cls-4{fill:url(#linear-gradient-2);}.cls-5{fill:url(#linear-gradient-3);}.cls-6{fill:url(#linear-gradient-4);}.cls-7{fill:#fff;}.cls-8{fill:url(#linear-gradient-5);}.cls-9{fill:#16103f;}.cls-10{fill:url(#linear-gradient-6);}.cls-11{fill:url(#linear-gradient-7);}.cls-12{fill:#45362e;}.cls-13{fill:url(#radial-gradient);}.cls-14{fill:url(#linear-gradient-8);}.cls-15{fill:url(#linear-gradient-9);}.cls-16{fill:url(#linear-gradient-10);}.cls-17{fill:#cc5c8b;}.cls-18{fill:url(#linear-gradient-11);}.cls-19{fill:url(#linear-gradient-12);}.cls-20{fill:url(#linear-gradient-13);}</style><linearGradient id="linear-gradient" x1="41.95" y1="35" x2="185.86" y2="126.1" gradientUnits="userSpaceOnUse"><stop offset="0.12" stop-color="#5c5d60"/><stop offset="0.18" stop-color="#535457"/><stop offset="0.51" stop-color="#262728"/><stop offset="0.77" stop-color="#0a0b0b"/><stop offset="0.92"/></linearGradient><linearGradient id="linear-gradient-2" x1="130.7" y1="32.23" x2="110.74" y2="235.13" gradientUnits="userSpaceOnUse"><stop offset="0.12" stop-color="#9fd8d8"/><stop offset="0.23" stop-color="#85b6bd"/><stop offset="0.47" stop-color="#527689"/><stop offset="0.68" stop-color="#2c4662"/><stop offset="0.83" stop-color="#16294b"/><stop offset="0.92" stop-color="#0d1e42"/></linearGradient><linearGradient id="linear-gradient-3" x1="-7059.36" y1="1396.45" x2="-7107.39" y2="1440.26" gradientTransform="matrix(-0.99, 0.16, 0.16, 0.99, -7123.1, -214.21)" xlink:href="#linear-gradient-2"/><linearGradient id="linear-gradient-4" x1="75.87" y1="56.23" x2="164.2" y2="80.09" gradientUnits="userSpaceOnUse"><stop offset="0.05" stop-color="#fff"/><stop offset="0.26" stop-color="#d2ecef"/><stop offset="0.37" stop-color="#cdeaef"/><stop offset="0.5" stop-color="#bee5ee"/><stop offset="0.64" stop-color="#a5dded"/><stop offset="0.65" stop-color="#a3dced"/></linearGradient><linearGradient id="linear-gradient-5" x1="9406.36" y1="1730.32" x2="9491.39" y2="1794.2" gradientTransform="matrix(0.76, -0.13, 0.14, 0.79, -7318.44, -99.8)" xlink:href="#linear-gradient"/><linearGradient id="linear-gradient-6" x1="-819.13" y1="27.31" x2="-838.97" y2="114.17" gradientTransform="matrix(-0.64, 0.76, 0.63, 0.42, -429.51, 637.99)" xlink:href="#linear-gradient-2"/><linearGradient id="linear-gradient-7" x1="-7681.75" y1="2065.94" x2="-7677.66" y2="2102.54" gradientTransform="matrix(-0.96, 0.28, 0.28, 0.96, -7839.92, 239.45)" xlink:href="#linear-gradient-2"/><radialGradient id="radial-gradient" cx="-7619.3" cy="2234.65" r="13.37" gradientTransform="matrix(-0.95, 0.3, 0.3, 0.95, -7821.42, 253.47)" gradientUnits="userSpaceOnUse"><stop offset="0" stop-color="#9fd8d8"/><stop offset="0.14" stop-color="#85b6bd"/><stop offset="0.44" stop-color="#527689"/><stop offset="0.7" stop-color="#2c4662"/><stop offset="0.89" stop-color="#16294b"/><stop offset="1" stop-color="#0d1e42"/></radialGradient><linearGradient id="linear-gradient-8" x1="218.29" y1="-13.83" x2="200.1" y2="171.13" xlink:href="#linear-gradient-2"/><linearGradient id="linear-gradient-9" x1="82.88" y1="8.57" x2="104.58" y2="8.57" xlink:href="#linear-gradient"/><linearGradient id="linear-gradient-10" x1="170.19" y1="70.38" x2="184.64" y2="70.38" xlink:href="#linear-gradient"/><linearGradient id="linear-gradient-11" x1="64.77" y1="30.54" x2="93.32" y2="56.86" xlink:href="#linear-gradient-4"/><linearGradient id="linear-gradient-12" x1="73.75" y1="73.5" x2="58.87" y2="224.79" xlink:href="#linear-gradient-2"/><linearGradient id="linear-gradient-13" x1="54.7" y1="60.81" x2="38.52" y2="225.28" xlink:href="#linear-gradient-2"/></defs><g id="Layer_2" data-name="Layer 2"><g id="Layer_3" data-name="Layer 3"><path class="cls-1" d="M188.06,60.13s-.46-14.26-6.72-19.31S162,37.53,162,37.53l-3.5,27.27L175.8,79.51S174.89,67.42,188.06,60.13Z"/><path class="cls-2" d="M173.27,77.37s11.34-34.21,0-34.6-7.84,27.94-7.84,27.94Z"/><path class="cls-3" d="M64,123S44.62,103.8,60.27,88.62,66.39,65.3,64,55.79s10.89-42,29.25-39,11.23-14,29.6-14.69,57.82,8.49,52,46.54-37.85,43.83-19.61,60.82,34.57-3.06,47.84,5.09,13.94,41.79-10.89,39.07-29.84-12.6-43.15.16S68.43,181.35,64,123Z"/><path class="cls-4" d="M60.27,135.47s29.12-19.36,59.79-19.36,58.09,13.71,58.09,13.71-6.81,27.25-7.93,45.58c-.85,13.8.84,59.29.84,59.29H69.16s-2.89-45.17,3.3-55.66S60.27,135.47,60.27,135.47Z"/><path class="cls-1" d="M105.15,106.9l.6,7.86a13.38,13.38,0,0,0,14.36,12.31h0a13.36,13.36,0,0,0,12.32-14.34l-.6-7.86a13.37,13.37,0,0,0-14.74-12.28h0A13.37,13.37,0,0,0,105.15,106.9Z"/><path class="cls-1" d="M153.82,75.86s4.19-.46,6.55-2.45c6.11-5.15,7.44-16.91-5.56-16.39-14.38.57-25.75-34.67-34-35.89C105.28,18.82,85.31,35.79,81.61,44.5c-3.3,7.73-5,14-3.72,21.89,1,6.23,2.94,15.28,5.72,22.21a36.79,36.79,0,0,0,15.48,18.31c4.26,2.52,18.49,10.15,33.6,1.51,2.79-1.59,8.82-5.58,14.28-14.8A56.89,56.89,0,0,0,153.82,75.86Z"/><path class="cls-5" d="M109,47.11C122.2,45,142.1,41.77,150.5,52.27c3.6,4.49,4.36,10.58,4.52,11.87a22.64,22.64,0,0,1-1,11.14c-.66,1.77-3.45,8.47-9.81,11-5.23,2.08-10.81.52-16.54-1.09-4.28-1.2-6.82-2.61-11.12-2a27.31,27.31,0,0,0-6.09,1.77c-4.88,1.77-5.63,2.85-9.67,4a17.72,17.72,0,0,1-6.59,1,16,16,0,0,1-6.57-2c-5.63-3.08-9.88-10-10.22-17.38a19.6,19.6,0,0,1,2.85-11.71c4.15-6.26,11.8-8,23.22-10.61C106.18,47.58,108.26,47.23,109,47.11Z"/><path class="cls-6" d="M110.78,52.31c18.46-2.19,29.09-3.44,34.73,3.67a17,17,0,0,1,3.14,14.1c-.22.88-1.65,6.24-6.27,8.67-2.1,1.11-4.06,1.16-13.57-.3-11.45-1.76-10.45-2.11-12.22-1.94-7.29.69-8.56,5.23-17,6.11-3,.31-5.47.65-8.12-.76-4.66-2.46-6.92-8.62-6.68-13.69a15,15,0,0,1,1.49-5.9C88.07,58.64,92.59,54.46,110.78,52.31Z"/><path class="cls-7" d="M98.58,73.07a3.42,3.42,0,0,0-1.6,2.4c-.09,1.49,2.11,1.82,2.28,3.37s-2.49,4-2.49,4,7.52-.25,11.19-3.05c2.6-2-2.23-3.44-2.81-5.47s.46-2.55.46-2.55Z"/><path class="cls-7" d="M128.68,70.23s1.82,2.08,0,3.65-1,4.39-1,4.39l9.48,1.24s-2.27-1.19-.73-3.73,1.53-3.63.2-5.41Z"/><path class="cls-8" d="M77.89,66.39c11.46,3.69,25.71-1.35,26.82-2.33a9.72,9.72,0,0,1-7-4.44,9,9,0,0,1-1.17-4,43.59,43.59,0,0,0,12.19,5.7,29.91,29.91,0,0,0,9.69,1.48,27,27,0,0,0,10-2.25l-5-3.79a36.84,36.84,0,0,0,7.79,2.47c8.18,1.63,10.37,2.32,16.14,2.47,7,.18,9.82.79,13.75-.92-.16-4-1.21-17.37-6.86-26.25C146.5,22.4,135.69,20.2,130.8,19c-12.07-2.91-23.85-.69-36.51,8.32C74.55,41.41,77.05,66.11,77.89,66.39Z"/><path class="cls-9" d="M149.16,61.49c3.39.47,6.42-4.14,7.55-5.69,3.19-4.39,4-6.2,2.21-11.39.52,1.2,3.79,9.4,2.93,15-.48,3.12-6.19,8.49-11.33,10.45C150.07,65.67,149.61,65.72,149.16,61.49Z"/><path class="cls-10" d="M129.32,80.24l5,6.17c7.28-6.06,13.35-11.48,18.06-15.82,9.3-8.57,15.48-15,18-17.64,8.44-8.9,12.73-13.48,16.39-19.7,3.23-5.48,6.27-10.65,6.21-16.48-.1-10.13-7.34-12.51-9.29-13.33-2.39,3.7-4.16,7.08-6.29,10.54,1.94,1.27,3.74,2.29,4.29,5.93,1,6.61-4.77,13.9-11.67,22.38-2.9,3.56-7.52,8.87-19.45,19.75C145.27,66.79,138.13,73.09,129.32,80.24Z"/><path class="cls-11" d="M107.47,80.87c-3,1.2-5.9,2.33-7.48,5.26a10.6,10.6,0,0,0-.84,6.7,16.94,16.94,0,0,0,6.54,10.79c5.07,3.69,10.73,3.13,14.63,2.74,4.05-.4,9.54-1,13.6-5.38,3.46-3.76,6-10.43,3.27-15.34-1.82-3.32-5.36-4.63-8-5.59-3.8-1.4-7-1.27-11-1.11A30.67,30.67,0,0,0,107.47,80.87Z"/><path class="cls-12" d="M128.39,63.51c.06-1.13.88-.64,2.77-.54s4.14-.23,4.07.91-1.64,2-3.53,1.87S128.32,64.65,128.39,63.51Z"/><path class="cls-12" d="M99,67.38c-.35-1.08.6-.91,2.4-1.5s3.77-1.7,4.12-.62-.82,2.43-2.62,3S99.38,68.46,99,67.38Z"/><path class="cls-13" d="M130.59,93.68a9.65,9.65,0,0,1-2.35,4.37c-2.37,2.45-5.48,2.72-8.66,3s-5.92.53-8.64-1.18a10.4,10.4,0,0,1-4.08-5.05c-.39-1-1.34-3.53-.44-5.83,1.61-4.13,8.06-4.75,11-5s10.18-1,12.66,3.23C131.59,89.73,130.75,93.07,130.59,93.68Z"/><path class="cls-12" d="M95.32,71.3l12.13-2.37s1.31.2.38,1.28L95.3,72.48S94.12,72.1,95.32,71.3Z"/><path class="cls-12" d="M95.56,72.44l12.13-2.37s1.31.21.38,1.29L95.54,73.62S94.36,73.24,95.56,72.44Z"/><path class="cls-12" d="M139.17,68.13l-12.36-.34s-1.26.42-.16,1.33l12.73.17S140.49,68.72,139.17,68.13Z"/><path class="cls-12" d="M139.17,69.21l-12.36-.33s-1.26.41-.16,1.32l12.73.17S140.49,69.8,139.17,69.21Z"/><path class="cls-7" d="M96.24,89.92a4.73,4.73,0,0,1,2.31,3.9c-.1,2.51-2.64,2.31-3.53,4.22s.71,2.61.13,3.81a1.59,1.59,0,0,1-1.61,1A28,28,0,0,0,100,107.4s3.8.35,2.78-6.61A11.48,11.48,0,0,1,101,98.25a16,16,0,0,1-2-8.86Z"/><path class="cls-7" d="M139.4,87.26s2.6,2.81,0,6.83,2.73,6.34,2.73,6.34l-7.34,6.68a5.81,5.81,0,0,1-1.78-5.22s4.13-2.29,5.3-12a10,10,0,0,0-.43-2.66Z"/><path class="cls-14" d="M178.15,129.82s-7.66,1.31-10,14.88,2.05,26.82,2.05,26.82,25.82-4.45,42-19.33c20.05-18.43,31.52-32.06,27.54-47.42s-51.71-44.64-51.71-44.64S177.12,63,175.8,79.51c0,0,25.6,35.74,38.45,36.6,0,0-4.52-6.3-22.82,7.87Z"/><path class="cls-15" d="M105.38,15.44a9.43,9.43,0,0,0-3.3-9.2,8.28,8.28,0,0,0-9.86-.13c-1.3,1-1.87,2.92-.54,4.18s3,.11,3.7-1.21C97,5.85,94.44,2.53,91.44,1.5s-8-1.37-9.53,2.27c-.61,1.49,1.81,2.14,2.41.67.78-1.91,4.74-1,6.14-.63a3.8,3.8,0,0,1,2.72,2.27,2.6,2.6,0,0,1,.09,1.56c-.08.31-.89,1.33.13.82.16-.08.42-.45.59-.56a5.5,5.5,0,0,1,.83-.44,5.82,5.82,0,0,1,1.8-.41,5.9,5.9,0,0,1,3.82,1.06A6.88,6.88,0,0,1,103,14.78c-.29,1.57,2.12,2.24,2.41.66Z"/><path class="cls-16" d="M170.22,61.46a5.79,5.79,0,0,1,7.18,5.26c.39,2.73-.83,6-3.48,7.21-.46.2-1.87.69-2.1-.1-.14-.5.86-1.17,1.22-1.38a5,5,0,0,1,4.35-.24c3.52,1.44,4.92,5.4,5.8,8.78a1.25,1.25,0,0,0,2.41-.67c-1-3.87-2.67-8-6.4-10-3.06-1.64-7.57-1.28-9.48,2a3,3,0,0,0,1.7,4.26c1.84.61,3.86-.28,5.27-1.45a9.81,9.81,0,0,0,3.07-9.35A8.17,8.17,0,0,0,170.22,59c-1.59.17-1.61,2.67,0,2.5Z"/><rect class="cls-17" x="156.22" y="0.07" width="2.25" height="35.55" transform="translate(-0.12 1.1) rotate(-0.4)"/><rect class="cls-17" x="147.71" y="0.19" width="2.25" height="32.43" transform="translate(-0.11 1.05) rotate(-0.4)"/><rect class="cls-17" x="139.46" y="0.27" width="2.25" height="30.3" transform="translate(-0.1 0.99) rotate(-0.4)"/><rect class="cls-17" x="165.37" y="0.01" width="2.25" height="35.55" transform="translate(-0.12 1.17) rotate(-0.4)"/><rect class="cls-17" x="130.55" y="0.29" width="2.25" height="30.3" transform="translate(-0.11 0.93) rotate(-0.4)"/><path class="cls-18" d="M79.81,30.18s-8.2,10.29-8.2,15.21,1.74,10.26,8.2,9.94,7.77-6.91,7.62-9.94S79.81,30.18,79.81,30.18Z"/><path class="cls-19" d="M60.27,135.47c17.87-2,18.26,24.32,19.25,45.81s-3.63,51.64-19.25,46-14.1-24.88-13.72-39.21S45.31,137.15,60.27,135.47Z"/><path class="cls-20" d="M15.09,133.14a16.48,16.48,0,0,0,18.12-6s19.15,29,28.44,56.92,16.75,41.09,0,45.61S30.56,204.77,26,184,15.09,133.14,15.09,133.14Z"/><path class="cls-1" d="M15.09,133.14l-1.17-3.35S3.65,125.2,2.41,116.11s3.7-8.7,3.7-8.7a3.86,3.86,0,0,1,2.54-4.1c3-1.23,2.52-.79,2.52-.79S-3,78,.56,73.62c3.91-4.85,14,20.52,15.83,23.57s-.07-3.7-.21-6c-.21-3.43-4.29-18.36-1.09-20.49,4.87-3.26,8.29,16.8,9.72,28.7,0,0,5.14-2.84,7.81-1S36.7,110,36.73,114.19c0,4.93-3.16,8.68-3.36,10.33a16,16,0,0,0-.16,2.59S27.56,137.51,15.09,133.14Z"/><path class="cls-2" d="M7.73,114.65s2.35,5.17,7,5.17c3.43,0,3.07-3,3.07-3s4.18,2.55,5.38-.9c0,0,.72,4.1-4.58,3,0,0-1.21,4-6.28,2.52S7.73,114.65,7.73,114.65Z"/><path class="cls-2" d="M32.68,104.3s.33,6.13-2.26,8.13c0,0,2.59-.54,3.24-4.07,0,0,.54.36.75,2C34.41,110.34,34.84,107.86,32.68,104.3Z"/></g></g></svg>