<svg xmlns="http://www.w3.org/2000/svg" xmlns:xlink="http://www.w3.org/1999/xlink" viewBox="0 0 264.66 274.21"><defs><style>.cls-1{fill:url(#linear-gradient);}.cls-2{fill:#fab998;}.cls-3{fill:url(#linear-gradient-2);}.cls-4{stroke:#dc69a2;stroke-miterlimit:10;stroke-width:10px;fill:url(#linear-gradient-3);}.cls-5{fill:#45362e;}.cls-6{fill:#fff;}.cls-7{fill:url(#linear-gradient-4);}.cls-8{fill:url(#linear-gradient-5);}.cls-9{fill:#dc69a2;}.cls-10{fill:url(#linear-gradient-6);}.cls-11{fill:url(#linear-gradient-7);}.cls-12{fill:url(#linear-gradient-8);}.cls-13{fill:url(#linear-gradient-9);}.cls-14{fill:#870606;}.cls-15{fill:url(#linear-gradient-10);}.cls-16{fill:#f49c76;}.cls-17{fill:url(#linear-gradient-11);}.cls-18{fill:url(#linear-gradient-12);}.cls-19{fill:url(#linear-gradient-13);}.cls-20{fill:#775d35;}.cls-21{fill:url(#linear-gradient-14);}.cls-22{fill:url(#linear-gradient-15);}.cls-23{fill:url(#linear-gradient-16);}.cls-24{fill:url(#linear-gradient-17);}.cls-25{fill:#2e4f00;}.cls-26{fill:url(#linear-gradient-18);}.cls-27{fill:url(#linear-gradient-19);}.cls-28{fill:url(#linear-gradient-20);}</style><linearGradient id="linear-gradient" x1="146.91" y1="140.36" x2="621.26" y2="257.06" gradientTransform="translate(-147.44 -86.19) rotate(8.47)" gradientUnits="userSpaceOnUse"><stop offset="0.02" stop-color="#935905"/><stop offset="0.3" stop-color="#633e02"/><stop offset="0.64" stop-color="#332401"/></linearGradient><linearGradient id="linear-gradient-2" x1="214.17" y1="112.31" x2="354.87" y2="164.6" gradientTransform="translate(-147.44 -86.19) rotate(8.47)" gradientUnits="userSpaceOnUse"><stop offset="0.46" stop-color="#fab998"/><stop offset="0.65" stop-color="#f6a581"/><stop offset="0.78" stop-color="#f49c76"/></linearGradient><linearGradient id="linear-gradient-3" x1="178.9" y1="131.27" x2="312.82" y2="163.62" gradientTransform="translate(-123.93 -83.7) rotate(7.17)" gradientUnits="userSpaceOnUse"><stop offset="0.02" stop-color="#fff"/><stop offset="0.51" stop-color="#befbff"/><stop offset="1" stop-color="#6aecff"/></linearGradient><linearGradient id="linear-gradient-4" x1="734.85" y1="171.67" x2="775.51" y2="183.84" gradientTransform="translate(284.65 -622.89) rotate(90)" gradientUnits="userSpaceOnUse"><stop offset="0.02" stop-color="#c1ffd5"/><stop offset="0.51" stop-color="#23f9d0"/><stop offset="1" stop-color="#06c9b1"/></linearGradient><linearGradient id="linear-gradient-5" x1="835.08" y1="125.1" x2="754.31" y2="186.18" gradientTransform="translate(-460.8 -395.93) rotate(29.65)" xlink:href="#linear-gradient-4"/><linearGradient id="linear-gradient-6" x1="970.18" y1="75.2" x2="1030.92" y2="89.88" gradientTransform="matrix(-0.99, 0.13, 0.13, 0.99, 1142.24, 3.04)" xlink:href="#linear-gradient-2"/><linearGradient id="linear-gradient-7" x1="168.05" y1="176.05" x2="228.79" y2="190.72" gradientTransform="matrix(0.99, 0.13, -0.13, 0.99, -115.83, 3.04)" xlink:href="#linear-gradient-2"/><linearGradient id="linear-gradient-8" x1="-866.42" y1="-750.05" x2="-816.24" y2="-714.49" gradientTransform="translate(1080.12 -182.19) rotate(-60.31)" gradientUnits="userSpaceOnUse"><stop offset="0.1" stop-color="#ff6e6e"/><stop offset="0.28" stop-color="#ed4141"/><stop offset="0.43" stop-color="#e12424"/><stop offset="0.52" stop-color="#dd1919"/><stop offset="1" stop-color="#870606"/></linearGradient><linearGradient id="linear-gradient-9" x1="-806.59" y1="-588.38" x2="-774.78" y2="-588.38" gradientTransform="translate(956.49 -92.94) rotate(-52.39)" gradientUnits="userSpaceOnUse"><stop offset="0.1" stop-color="#bcbcbc"/><stop offset="0.14" stop-color="#b0b0b0"/><stop offset="0.31" stop-color="#818181"/><stop offset="0.44" stop-color="#646464"/><stop offset="0.52" stop-color="#595959"/><stop offset="1" stop-color="#bcbcbc"/></linearGradient><linearGradient id="linear-gradient-10" x1="10.2" y1="150.37" x2="141" y2="252.63" gradientUnits="userSpaceOnUse"><stop offset="0.12" stop-color="#9ed7d7"/><stop offset="0.23" stop-color="#84b6bd"/><stop offset="0.47" stop-color="#527688"/><stop offset="0.68" stop-color="#2c4662"/><stop offset="0.83" stop-color="#16294b"/><stop offset="0.92" stop-color="#0d1e42"/></linearGradient><linearGradient id="linear-gradient-11" x1="204.88" y1="79.72" x2="453.22" y2="140.82" xlink:href="#linear-gradient"/><linearGradient id="linear-gradient-12" x1="-3.4" y1="212.79" x2="79.85" y2="232.91" gradientTransform="matrix(1, 0, 0, 1, 0, 0)" xlink:href="#linear-gradient-2"/><linearGradient id="linear-gradient-13" x1="1339.4" y1="-1229.28" x2="1364.74" y2="-1229.28" gradientTransform="matrix(0, 1.22, 1.49, 0, 1859.31, -1471.08)" xlink:href="#linear-gradient-2"/><linearGradient id="linear-gradient-14" x1="805.05" y1="213.3" x2="888.3" y2="233.41" gradientTransform="matrix(-1, 0, 0, 1, 1026.41, 0)" xlink:href="#linear-gradient-2"/><linearGradient id="linear-gradient-15" x1="1339.81" y1="-686.69" x2="1365.15" y2="-686.69" gradientTransform="matrix(0, 1.22, -1.49, 0, -832.9, -1471.08)" xlink:href="#linear-gradient-2"/><linearGradient id="linear-gradient-16" x1="45.96" y1="26.33" x2="106.78" y2="46.84" gradientTransform="matrix(1, 0, 0, 1, 0, 0)" xlink:href="#linear-gradient-9"/><linearGradient id="linear-gradient-17" x1="130.33" y1="16.91" x2="199.15" y2="60.35" gradientUnits="userSpaceOnUse"><stop offset="0.1" stop-color="#347f04"/><stop offset="0.14" stop-color="#3a8205"/><stop offset="0.38" stop-color="#579309"/><stop offset="0.52" stop-color="#62990b"/><stop offset="1" stop-color="#a1bc31"/></linearGradient><linearGradient id="linear-gradient-18" x1="-1093.77" y1="-79.26" x2="-1069.6" y2="-56.98" gradientTransform="matrix(0.53, -0.35, 0.43, 0.65, 655.99, -205.45)" xlink:href="#linear-gradient-3"/><linearGradient id="linear-gradient-19" x1="12.69" y1="125.57" x2="76.72" y2="99.13" gradientTransform="matrix(1, 0, 0, 1, 0, 0)" xlink:href="#linear-gradient-3"/><linearGradient id="linear-gradient-20" x1="178.64" y1="150.02" x2="195.74" y2="165.78" gradientTransform="matrix(-0.83, -0.55, -0.55, 0.83, 425.62, 67.23)" xlink:href="#linear-gradient-3"/></defs><g id="Layer_2" data-name="Layer 2"><g id="Layer_6" data-name="Layer 6"><path class="cls-1" d="M54.25,34.88c31.44-44.4,76.75-39,90.62-24.14S215.55,33,205.46,75.65s-34.32,39.4-31,77.28,56.23,42.73,21.72,98.44-57.16-40.54-85.72-9.56-122.07-26.39-84.18-94.16S30.15,68.92,54.25,34.88Z"/><path class="cls-2" d="M94.34,162.22l-38.63,3.13S83,237.73,75,274.21H139s-7.87-53.87,23.18-108.48c0,0-33-2.16-43.23-3.51S94.34,162.22,94.34,162.22Z"/><polygon class="cls-2" points="94.34 146.36 94.34 162.22 118.93 162.22 118.89 146.36 94.34 146.36"/><path class="cls-3" d="M68.92,66.76s-24,73.69,35,82.11S158.09,80,158.09,80s6.59-38.82-38.45-45.13S68.92,66.76,68.92,66.76Z"/><path class="cls-4" d="M110.66,104.1c9.11,1.39,15.79,21.11,29.68,22.51,12.28,1.23,28.95-35.64,21.33-42.14S127.33,69.05,111,67s-40.37-1-45.77,3.89-4.66,43.79,10,45.87S101.56,102.71,110.66,104.1Z"/><path class="cls-5" d="M132.54,84.43c.5-1.81,1.66-.72,4.68.12s6.75,1.09,6.25,2.9-3.35,2.6-6.37,1.77S132,86.24,132.54,84.43Z"/><path class="cls-5" d="M82.52,80.1c-.38-1.84,1.15-1.4,4.21-2s6.52-2.1,6.89-.26-1.8,3.84-4.87,4.47S82.9,81.94,82.52,80.1Z"/><path class="cls-6" d="M136.16,132.15a6,6,0,0,0-3.28,6,11.43,11.43,0,0,1-1.25,6.94s-6.27,2.74-9.07,3.28c0,0,3-4.34,2.23-6.74s-1.64-5.73.89-9.34,1.84-4.31,1.84-4.31A19.3,19.3,0,0,0,136.16,132.15Z"/><ellipse class="cls-7" cx="107.1" cy="131.62" rx="11.86" ry="18.38" transform="translate(-60.27 159.58) rotate(-60.35)"/><path class="cls-8" d="M108.24,127.73s-6-4.23-8.09-.06-1,5,4.11,8.94,25,17.67,41.12,17.81,57.56-44.25,57.56-44.25l-9.58-4.11S155.75,146.48,146.62,146C130.91,145.18,108.24,127.73,108.24,127.73Z"/><path class="cls-9" d="M212.67,73.41l11-12.2s11,0,11.81,6.73-31.25,42.64-31.25,42.64l-13.38-5.41S221.51,75.05,212.67,73.41Z"/><path class="cls-10" d="M155.69,166.54c-18.47,11.75-10.58,67-9.92,79.55s15.26,18.58,19.66-2.48S173.82,155,155.69,166.54Z"/><path class="cls-11" d="M62.27,166c18.47,11.76,10.58,67,9.92,79.56s-15.26,18.57-19.66-2.49S44.15,154.5,62.27,166Z"/><path class="cls-12" d="M0,188.43s14.09,3.83,19.48,2.85,8.24-.33,14.64,8,10.47,9.62,10.47,9.62,10.57-14.35,6.25-23c-8.2-16.45-24-9.82-28.17-16.33a56.67,56.67,0,0,0-7-9.17Z"/><path class="cls-13" d="M0,188.43a42.25,42.25,0,0,0,15.69-28.07S.76,171.86,0,188.43Z"/><path class="cls-14" d="M17.72,191.43s7.39-8.86,14.36-7.46-4.55,2-7.16,3a6.73,6.73,0,0,0-3.48,4Z"/><path class="cls-14" d="M26.49,191.62s1.38-2.12,6.89-2.38,7.59,4.32,3.27,2.26S33.42,189.14,26.49,191.62Z"/><path class="cls-14" d="M22.67,169.53a7,7,0,0,0,.89,5.71c1.88,2.55,2.22-.47.54-2.32A4.48,4.48,0,0,1,22.67,169.53Z"/><path class="cls-15" d="M149.37,193.52l-30.44-31.3s10,35.77-10,51.72c0,0-24.75-19.38-14.59-51.72L73,189.3s-12.07,19.32-.91,32.78A146.24,146.24,0,0,1,75,274.21H139c-3.07-20,2.44-49.4,2.44-49.4A39.62,39.62,0,0,0,149.37,193.52Z"/><path class="cls-16" d="M94.34,147.17s10.61,8.71,24.59,6.41v-6.66A79.3,79.3,0,0,1,94.34,147.17Z"/><path class="cls-17" d="M58.14,69.41c14.07,8.44,34.55,6.15,36.32,5.2-.78-.29-6.2-2.39-7.93-8.06a12.21,12.21,0,0,1-.33-5.62,59.37,59.37,0,0,0,14.42,11.34,40.7,40.7,0,0,0,12.41,5,37,37,0,0,0,14,.11q-2.72-3.28-5.44-6.58a50.29,50.29,0,0,0,9.58,5.69c10.36,4.69,13.05,6.29,20.67,8.27,9.21,2.41,12.8,4.09,18.54,3,1-5.38,3.77-23.45-1-37C162.84,32.22,149.17,26,143,22.87c-15.12-7.59-31.45-8.29-51-.23C61.42,35.2,57.1,68.78,58.14,69.41Z"/><path class="cls-18" d="M18.61,191.73l.62.18-.47.11c.11,6.43,7,18,18.47,41.91,17.08,35.53,36,28.61,30.9,9.37-3.5-13.23-16.69-38.73-29.12-51.24"/><path class="cls-19" d="M18.16,194c9.24,5.77,24.28-3.41,26.66-8.53s-.51-8.06-2.38-9.45-1.36-3.57-3.22-4.5-4.08-.62-5.78-2.63-4.06-1.1-5.86-1.86-4.5-3.1-7-1.71-8,15.9-8,15.9-3.24-5.67-3.75-1.64S8.48,188,18.16,194Z"/><polygon class="cls-9" points="219.67 161.32 166.23 204.13 162.58 199.08 217.65 155.6 219.67 161.32"/><path class="cls-20" d="M261.45,155.35l-4.92,19.08a70.82,70.82,0,0,1-2.53,8.84,17.69,17.69,0,0,1-5.31,7.06c-4.58,3.75-10.75,5.77-16.36,3.12-5.2-2.45-8.37-7.51-9.65-13-1.55-6.61.35-13.57-1.7-20.07-.24-.76-1.45-.44-1.2.33,1.05,3.35,1,6.83.9,10.3a40.11,40.11,0,0,0,.7,9.35c1.21,5.55,4.27,10.76,9.31,13.61s11,2.25,16-.75a21.89,21.89,0,0,0,6.41-5.75,24.67,24.67,0,0,0,3.5-8.34c2.06-7.81,4-15.66,6.06-23.49a.63.63,0,0,0-1.21-.33Z"/><path class="cls-20" d="M250.54,164.37c-.78,10.54-1.78,22.12-9.48,30.15-.56.58.32,1.47.88.89,7.95-8.3,9-20.15,9.85-31,.06-.8-1.19-.79-1.25,0Z"/><path class="cls-20" d="M240.88,172.08c-.8,7.72-1.73,15.78-6.15,22.4-.45.67.63,1.29,1.08.63,4.55-6.8,5.49-15.09,6.32-23,.09-.8-1.16-.79-1.25,0Z"/><path class="cls-20" d="M230.58,178a34.91,34.91,0,0,0-1.88,14.26c.06.8,1.31.8,1.25,0a34,34,0,0,1,1.84-13.93c.26-.76-.94-1.08-1.21-.33Z"/><path class="cls-20" d="M224.91,173a52.89,52.89,0,0,0-1.13,13.86c0,.8,1.29.81,1.25,0a52,52,0,0,1,1.08-13.52c.17-.79-1-1.12-1.2-.34Z"/><path class="cls-20" d="M255.3,179.23a29.09,29.09,0,0,1-20.62,5.88,20.7,20.7,0,0,1-5.51-1.19,6.57,6.57,0,0,1-3.65-4c-1.23-3.19-1.3-6.7-3.54-9.44-.51-.62-1.39.27-.89.88,2.49,3,2.1,7.36,4.06,10.68s5.69,3.91,9.13,4.31a30.13,30.13,0,0,0,21.65-6c.63-.48,0-1.57-.63-1.08Z"/><path class="cls-20" d="M258.88,166.26c-4.2,3.05-8.61,5.77-13.08,8.38-4.06,2.38-9.06,6.51-13.71,3.2-.66-.46-1.29.62-.64,1.08a7.82,7.82,0,0,0,6.18,1.32c2.58-.55,4.92-2.26,7.17-3.57a168.11,168.11,0,0,0,14.71-9.33c.64-.46,0-1.55-.63-1.08Z"/><path class="cls-20" d="M246.92,117.79a247.35,247.35,0,0,0-1.34,47.51c.06.8,1.31.8,1.25,0a247.35,247.35,0,0,1,1.34-47.51c.1-.8-1.15-.79-1.25,0Z"/><path class="cls-20" d="M251.69,129.36a71.37,71.37,0,0,0,.82,30.13c.19.78,1.4.45,1.21-.33a69.7,69.7,0,0,1-.82-29.46c.15-.79-1.06-1.13-1.21-.34Z"/><path class="cls-20" d="M256.84,141.44a37.5,37.5,0,0,0-.24,14.7c.14.79,1.35.46,1.2-.33a36.06,36.06,0,0,1,.25-14c.17-.78-1-1.12-1.21-.33Z"/><path class="cls-20" d="M240.91,115.81c-2.57,17.91-5.12,36.19-1.78,54.18.15.79,1.35.45,1.2-.34-3.29-17.75-.75-35.84,1.79-53.51.11-.79-1.09-1.13-1.21-.33Z"/><path class="cls-20" d="M231.38,121a133.22,133.22,0,0,0,1.4,53.69c.18.79,1.39.45,1.21-.33a131.59,131.59,0,0,1-1.41-53c.14-.79-1.06-1.12-1.2-.33Z"/><path class="cls-20" d="M225.4,167.72A161.14,161.14,0,0,1,223,148.15c-.4-6.43-.7-13.06.71-19.38.18-.78-1-1.12-1.2-.33-1.44,6.44-1.17,13.16-.76,19.71a164.59,164.59,0,0,0,2.45,19.9c.15.79,1.35.45,1.21-.33Z"/><path class="cls-20" d="M240.17,169.79c-4.85-3.08-10.61-5.88-16.46-4-.76.25-.44,1.45.33,1.21,5.52-1.75,10.93,1,15.5,3.9.68.43,1.31-.65.63-1.08Z"/><path class="cls-20" d="M247.16,165.55a29.62,29.62,0,0,0-25.44-7.1c-.79.15-.46,1.35.33,1.2a28.33,28.33,0,0,1,24.23,6.79c.59.54,1.48-.35.88-.89Z"/><path class="cls-20" d="M253.65,159.13c-2.78-5.63-9.18-8-14.81-9.76a64.52,64.52,0,0,0-22.79-2.93c-.8.05-.81,1.3,0,1.25a62.94,62.94,0,0,1,21.56,2.61c5.59,1.65,12.19,3.86,15,9.46.36.72,1.44.09,1.08-.63Z"/><path class="cls-20" d="M261.5,152.61c-3.63-7.31-12.06-10.83-19.36-13.32A55.81,55.81,0,0,0,215,136.55c-.79.13-.46,1.34.33,1.21,8.76-1.46,17.73-.22,26.1,2.58,7.11,2.39,15.5,5.77,19,12.9.35.73,1.43.09,1.08-.63Z"/><path class="cls-20" d="M257.36,135.73a36.4,36.4,0,0,0-30.81-11.86c-.79.09-.8,1.34,0,1.25a35.24,35.24,0,0,1,29.93,11.49c.54.6,1.42-.28.88-.88Z"/><path class="cls-9" d="M211.88,132.28l-1,6.17,15.91,40.82h6.75l29.88-23.47,1.26-7.62L249.1,112.46l-6.36-2.77Zm4.1,2,25.92-19,5.35,2.32,13.06,30-1.06,6.4-25.09,19.71h-5.67l-13.37-34.29Z"/><path class="cls-21" d="M199.36,192.24l-.62.18.46.1c-.1,6.44-6.95,18-18.47,41.91-17.08,35.54-36,28.61-30.9,9.38,3.5-13.24,16.7-38.73,29.12-51.24"/><path class="cls-22" d="M199.8,194.54c-9.24,5.77-24.28-3.41-26.66-8.52s.51-8.06,2.38-9.46,1.36-3.56,3.23-4.49,4.07-.62,5.77-2.64,4.06-1.09,5.86-1.86,4.5-3.1,7-1.7,6,8.52,6,8.52,4.75-2.32,5.26,1.71S209.48,188.5,199.8,194.54Z"/><path class="cls-5" d="M78.27,88.75s10-3,16.62-.37S90.72,89.6,86.37,90,75.2,92.62,76.2,91.44,75.63,90.84,78.27,88.75Z"/><path class="cls-5" d="M144.41,98.59s-8.64-5.81-15.79-5.19,3.63,2.38,7.69,4,9.91,5.81,9.29,4.38S146.33,101.37,144.41,98.59Z"/><path class="cls-5" d="M83.1,85.39s8.46,1.6,13.11,4.18c0,0-.35-2.43-11.22-5.52Z"/><path class="cls-5" d="M140,93.86s-8.56-.94-13.75.18c0,0,1-2.22,12.34-2Z"/><path class="cls-6" d="M77.88,110.45s-.07-5.16,3.62-7.19,1.36-5.22,0-7.31.79-5.35.79-5.35A39.28,39.28,0,0,1,92.38,90S90,93.82,91.51,95.8s1,5.44.42,6.71-1.84,3.59-1.84,3.59S82.73,110.76,77.88,110.45Z"/><path class="cls-6" d="M77,123.34A6,6,0,0,1,78.37,130a11.42,11.42,0,0,0-.83,7s5.21,4.46,7.73,5.79c0,0-1.57-5-.17-7.1s3.24-5,1.87-9.19-.5-4.66-.5-4.66A19.47,19.47,0,0,1,77,123.34Z"/><path class="cls-6" d="M140.25,120.06s1.55-4.84-1.39-7.81.2-5.3,2.09-6.89.78-5.26.78-5.26-2.95-2.28-9.27-3.91c0,0,1,4.72-1,6.15s-2.55,4.82-2.34,6.19.72,3.91.72,3.91S135.51,119,140.25,120.06Z"/><path class="cls-23" d="M84.88,23.36s-21.7,5.39-22.52,25.9c0,0-7.56-10-6.56-15.38S72.22,32,71.91,23.06,84.88,23.36,84.88,23.36Z"/><path class="cls-24" d="M192.39,43.51s-18.81,6.12-24.55-5.45-14.76-13.32-25.54-9.15-9.38-9.38-17-11.12-13.08,6.26-4.11,11.82,12.11.91,15.58,8.45,17.74,3.47,25.21,7.07,10.7,3.52,16.73,12.07,27.57,1.6,31.39-4S198.73,42.17,192.39,43.51Z"/><path class="cls-25" d="M126.63,26.67a21.11,21.11,0,0,0,12.68,6.59c2.89.37,5.81.14,8.71.23a23.42,23.42,0,0,1,8.13,1.71c10.25,4.17,17,13.87,27.19,18.14,5.19,2.18,11.11,2.8,16.32.37.73-.34.1-1.42-.63-1.08-10.42,4.86-20.81-3.09-28.48-9.37-3.88-3.16-7.81-6.36-12.36-8.52a25.39,25.39,0,0,0-7-2.22,53.24,53.24,0,0,0-7.89-.29c-6.06,0-11.59-1.94-15.79-6.44-.55-.59-1.43.29-.88.88Z"/><path class="cls-26" d="M56,122.76s-19.42,11.71-9.26,18.46C53.08,145.45,49.87,129,56,122.76Z"/><path class="cls-27" d="M55.15,102.06s-42.64,6.6-30.26,23.16C32.64,135.59,39.78,108,55.15,102.06Z"/><path class="cls-28" d="M174.46,86.73s21.37,13.09,11.38,18.69C179.59,108.91,181.42,93.28,174.46,86.73Z"/></g></g></svg>