<svg xmlns="http://www.w3.org/2000/svg" xmlns:xlink="http://www.w3.org/1999/xlink" viewBox="0 0 287.4 268.1"><defs><style>.cls-1{fill:url(#linear-gradient);}.cls-2{fill:#fab998;}.cls-3{fill:url(#linear-gradient-2);}.cls-4{fill:url(#linear-gradient-3);}.cls-5{stroke:#dc69a2;stroke-miterlimit:10;stroke-width:10px;fill:url(#linear-gradient-4);}.cls-6{fill:#45362e;}.cls-7{fill:url(#linear-gradient-5);}.cls-8{fill:url(#linear-gradient-6);}.cls-9{fill:#dc69a2;}.cls-10{fill:url(#linear-gradient-7);}.cls-11{fill:url(#linear-gradient-8);}.cls-12{fill:url(#linear-gradient-9);}.cls-13{fill:#f49c76;}.cls-14{fill:url(#linear-gradient-10);}.cls-15{fill:#775d35;}.cls-16{fill:url(#linear-gradient-11);}.cls-17{fill:url(#linear-gradient-12);}.cls-18{fill:url(#linear-gradient-13);}</style><linearGradient id="linear-gradient" x1="14.48" y1="18.47" x2="273.22" y2="218.87" gradientUnits="userSpaceOnUse"><stop offset="0.02" stop-color="#935905"/><stop offset="0.3" stop-color="#633e02"/><stop offset="0.64" stop-color="#332401"/></linearGradient><linearGradient id="linear-gradient-2" x1="178.42" y1="127.94" x2="229.36" y2="158.42" gradientUnits="userSpaceOnUse"><stop offset="0.46" stop-color="#fab998"/><stop offset="0.65" stop-color="#f6a581"/><stop offset="0.78" stop-color="#f49c76"/></linearGradient><linearGradient id="linear-gradient-3" x1="79.47" y1="62.08" x2="218.02" y2="113.58" xlink:href="#linear-gradient-2"/><linearGradient id="linear-gradient-4" x1="45.53" y1="54.68" x2="177.41" y2="86.54" gradientTransform="translate(24.12 22.1) rotate(-1.3)" gradientUnits="userSpaceOnUse"><stop offset="0.02" stop-color="#fff"/><stop offset="0.51" stop-color="#befbff"/><stop offset="1" stop-color="#6aecff"/></linearGradient><linearGradient id="linear-gradient-5" x1="127.82" y1="118.18" x2="167.85" y2="130.16" gradientUnits="userSpaceOnUse"><stop offset="0.02" stop-color="#c1ffd5"/><stop offset="0.51" stop-color="#23f9d0"/><stop offset="1" stop-color="#06c9b1"/></linearGradient><linearGradient id="linear-gradient-6" x1="226.52" y1="72.32" x2="146.98" y2="132.47" xlink:href="#linear-gradient-5"/><linearGradient id="linear-gradient-7" x1="218.18" y1="293.51" x2="278" y2="307.96" gradientTransform="matrix(0.99, 0.13, -0.13, 0.99, -109.12, -124.75)" xlink:href="#linear-gradient-2"/><linearGradient id="linear-gradient-8" x1="52.21" y1="146.15" x2="181.02" y2="246.85" gradientUnits="userSpaceOnUse"><stop offset="0.12" stop-color="#9ed7d7"/><stop offset="0.23" stop-color="#84b6bd"/><stop offset="0.47" stop-color="#527688"/><stop offset="0.68" stop-color="#2c4662"/><stop offset="0.83" stop-color="#16294b"/><stop offset="0.92" stop-color="#0d1e42"/></linearGradient><linearGradient id="linear-gradient-9" x1="179.87" y1="32.83" x2="280.59" y2="93.1" xlink:href="#linear-gradient-2"/><linearGradient id="linear-gradient-10" x1="70.31" y1="29.98" x2="314.88" y2="90.16" xlink:href="#linear-gradient"/><linearGradient id="linear-gradient-11" x1="27.75" y1="191.43" x2="125" y2="214.93" xlink:href="#linear-gradient-2"/><linearGradient id="linear-gradient-12" x1="-1154.16" y1="1539.03" x2="-1067.51" y2="1539.03" gradientTransform="matrix(0.42, 0, 0, 0.42, 521.18, -595.37)" gradientUnits="userSpaceOnUse"><stop offset="0" stop-color="#fceb4f"/><stop offset="1" stop-color="#ffcc17"/></linearGradient><linearGradient id="linear-gradient-13" x1="-462.95" y1="1528.7" x2="-365.94" y2="1528.7" gradientTransform="matrix(0.5, 0.03, 0.03, 0.5, 424.36, -598.44)" xlink:href="#linear-gradient-12"/></defs><g id="Layer_2" data-name="Layer 2"><g id="Layer_4" data-name="Layer 4"><path class="cls-1" d="M97.58,16.57S67.9,45,84.39,83.77s-12.41,43-20.22,54.08-9.47,63.56,23.1,82.43,82.66-39.22,92.67-39.75-3,35.34,8.45,35,40.92-15.41,43.82-38.29-18.77-30.8-18.77-42.49,13.59-9.24,16.9-22.66S234,58.52,219,49.84s-14.56-20.27-21.06-33.27c-4-8-31.28-27.36-57.05-8.73C124,20.06,115,5.27,97.58,16.57Z"/><path class="cls-2" d="M135.07,157.81l-38,3.08s26.9,71.29,19,107.21h63s-7.75-53.05,22.82-106.83c0,0-32.51-2.12-42.57-3.46S135.07,157.81,135.07,157.81Z"/><path class="cls-3" d="M216.62,110.21s-54.09,55.51-34.91,68.67,48.59-54.71,48.59-62S228.93,104.54,216.62,110.21Z"/><polygon class="cls-2" points="135.07 142.19 135.07 157.81 159.28 157.81 159.24 142.19 135.07 142.19"/><path class="cls-4" d="M101.48,69.07s-12.68,75.26,46,74.91,42.8-74.91,42.8-74.91.8-38.76-44-38.38S101.48,69.07,101.48,69.07Z"/><path class="cls-5" d="M147.55,99.39c9.07,0,18.44,18.27,32.17,17.62,12.14-.57,23-38.91,14.67-44.14s-35.69-10-51.9-9.66-39.47,4.9-44,10.42,1.81,43.33,16.38,43.24S138.48,99.36,147.55,99.39Z"/><path class="cls-6" d="M165.71,78.94c-.1,1.85,1.32,1.19,4.4,1.36s6.64,1.09,6.74-.75-2.31-3.48-5.39-3.65S165.81,77.1,165.71,78.94Z"/><path class="cls-6" d="M116.54,79.33c-.1,1.85,1.32,1.19,4.4,1.36s6.65,1.09,6.75-.76-2.32-3.48-5.4-3.64S116.64,77.48,116.54,79.33Z"/><path class="cls-6" d="M132.63,90.32s-12.16-10.07-15.56-5.74,11.56,6.3,11.56,6.3-10.36.69-9.72,5.67S132.63,90.32,132.63,90.32Z"/><path class="cls-6" d="M162.27,91.56s11.69-10,15-5.77-11.14,6.28-11.14,6.28,10.07.56,9.51,5.45S162.27,91.56,162.27,91.56Z"/><ellipse class="cls-7" cx="147.18" cy="123.97" rx="18.1" ry="11.68"/><path class="cls-8" d="M146.26,120.09s-7.22-.68-6.95,3.88,1.58,4.84,7.87,5.65,30,3,43.87-4.78,27.71-65.91,27.71-65.91l-10.2,1.15S196.06,113,188,117C174.17,124,146.26,120.09,146.26,120.09Z"/><path class="cls-9" d="M209.18,22.73l3.5-15.82s9.39-5.38,13.38,0-6,51.72-6,51.72L206,60.52S217.54,19.82,209.18,22.73Z"/><path class="cls-10" d="M103.49,161.57c18.18,11.58,10.41,66,9.77,78.34s-15,18.3-19.36-2.44S85.64,150.21,103.49,161.57Z"/><path class="cls-11" d="M189.26,188.63l-30-30.82s9.9,35.23-9.84,50.94c0,0-24.38-19.08-14.37-50.94l-21,26.67s-11.88,19-.9,32.28a143.72,143.72,0,0,1,2.9,51.34h63c-3-19.7,2.4-48.65,2.4-48.65A39.05,39.05,0,0,0,189.26,188.63Z"/><path class="cls-12" d="M257.86,28.05c2.08-5.48-3.76-7.47-8.35-7.47s-7.94-.41-5.43-7.93S237-5.3,237.82,4.52s-8.77,31.09-7.52,36.1-1.16,15-1.16,15c-9.82,14.92-16,60.13-16,60.13s.3,12.5,13.12,6.46S247,48.07,247,48.07s2.81-1.36,5.67-3.13a6.38,6.38,0,0,0,2.72-5.31,6,6,0,0,0,1.36-5.57A7.51,7.51,0,0,0,257.86,28.05Z"/><path class="cls-13" d="M246.72,42.52S250,42,251.09,41c0,0-8.78-.5-11.77-3.44C239.32,37.59,243.28,42,246.72,42.52Z"/><path class="cls-13" d="M135.07,143s10.45,8.57,24.21,6.31v-6.57A78.14,78.14,0,0,1,135.07,143Z"/><path class="cls-14" d="M91.36,73.22c14.93,6.18,34.54,1,36.13-.2-.8-.17-6.39-1.43-8.9-6.71a12.14,12.14,0,0,1-1.14-5.42,58.64,58.64,0,0,0,15.7,9,39.86,39.86,0,0,0,12.81,3A36.41,36.41,0,0,0,159.58,71l-6.25-5.63a49.31,49.31,0,0,0,10.15,4.16c10.78,3.07,13.63,4.23,21.34,5.06,9.32,1,13.06,2.13,18.5.27.23-5.39.27-23.38-6.33-35.88-9-17.13-23.26-21.25-29.68-23.36-15.84-5.21-31.85-3.52-49.76,7.17C89.6,39.43,90.25,72.76,91.36,73.22Z"/><polygon class="cls-9" points="41.59 143.98 86.61 194.19 90.97 189.87 44.48 138.75 41.59 143.98"/><path class="cls-15" d="M.72,131.51l1.92,21.73c.29,3.24.49,6.58,1.72,9.63a20.14,20.14,0,0,0,4.83,6.89c4.1,3.92,9.59,6.17,15.23,4.6,5.48-1.53,9.61-5.82,11.92-10.89a35.55,35.55,0,0,0,2.6-9.49c.54-3.58,1-7.23,2.62-10.51.36-.71-.72-1.35-1.08-.63-2.56,5-2.32,10.79-3.82,16.13s-4.67,10.49-9.79,13.1c-5.44,2.78-11.36,1.53-15.89-2.37a20,20,0,0,1-5.15-6.56c-1.36-2.95-1.61-6.22-1.9-9.41q-1-11.1-2-22.22c-.07-.79-1.32-.8-1.25,0Z"/><path class="cls-15" d="M9.88,141.87c-1,10.65-1.8,22.31,4.54,31.59.45.66,1.53,0,1.08-.63-6.22-9.1-5.32-20.53-4.37-31,.07-.8-1.18-.79-1.25,0Z"/><path class="cls-15" d="M18,150.92c-.47,7.87-.83,16,2.49,23.38.33.73,1.41.1,1.08-.63-3.22-7.12-2.77-15.14-2.32-22.75,0-.81-1.2-.81-1.25,0Z"/><path class="cls-15" d="M27.1,158.61a33.29,33.29,0,0,1-.47,13.66.63.63,0,0,0,1.21.33,34.74,34.74,0,0,0,.46-14.32c-.14-.79-1.34-.46-1.2.33Z"/><path class="cls-15" d="M33.38,154.54a51.4,51.4,0,0,1-1.1,13.32c-.17.78,1,1.11,1.2.33a52.17,52.17,0,0,0,1.15-13.65c0-.8-1.29-.8-1.25,0Z"/><path class="cls-15" d="M3.25,156.55a29.85,29.85,0,0,0,19.5,9.34c3.49.26,7.67.29,10.12-2.61s2.84-7.25,5.81-9.86c.6-.53-.28-1.41-.89-.88-2.6,2.28-3.21,5.73-4.92,8.59a6.44,6.44,0,0,1-4.47,3.33,22.75,22.75,0,0,1-5.65.18,28.6,28.6,0,0,1-18.62-9c-.55-.59-1.43.29-.88.88Z"/><path class="cls-15" d="M1.87,143.38a168.91,168.91,0,0,0,12.78,11.43c1.93,1.6,3.87,3.54,6.19,4.56a7.76,7.76,0,0,0,6.56-.22c.72-.35.09-1.43-.63-1.08a6.83,6.83,0,0,1-7.15-.85c-2.05-1.44-4-3.17-5.87-4.77-3.8-3.17-7.52-6.43-11-9.95a.62.62,0,0,0-.88.88Z"/><path class="cls-15" d="M20.9,97.2a242.32,242.32,0,0,1-6.33,46.2c-.19.78,1,1.12,1.2.34A243.6,243.6,0,0,0,22.15,97.2c0-.81-1.22-.81-1.25,0Z"/><path class="cls-15" d="M14.39,107.84a68.74,68.74,0,0,1-5.51,28.5c-.31.73.77,1.36,1.08.63a70.23,70.23,0,0,0,5.68-29.13.63.63,0,0,0-1.25,0Z"/><path class="cls-15" d="M7.44,118.74a35.62,35.62,0,0,1-2.05,13.84c-.28.75.93,1.08,1.2.33a36.56,36.56,0,0,0,2.1-14.17c0-.8-1.29-.81-1.25,0Z"/><path class="cls-15" d="M27.05,96.41c-.38,17.64-.83,35.65-6.92,52.43-.28.76.93,1.08,1.2.33,6.13-16.87,6.59-35,7-52.76a.63.63,0,0,0-1.25,0Z"/><path class="cls-15" d="M35.47,103a129.87,129.87,0,0,1-9.94,51.45c-.31.74.9,1.07,1.2.34a130.68,130.68,0,0,0,10-51.79.63.63,0,0,0-1.25,0Z"/><path class="cls-15" d="M36.16,149.7A160.21,160.21,0,0,0,41.67,131c1.46-6.32,2.85-12.87,2.49-19.4,0-.8-1.3-.8-1.25,0,.36,6.58-1.06,13.16-2.55,19.53A159.6,159.6,0,0,1,35,149.36c-.27.76.93,1.09,1.21.34Z"/><path class="cls-15" d="M20.84,150c4.83-2.05,10.53-3.82,15.53-1.27.72.36,1.35-.72.63-1.08-5.45-2.78-11.51-1-16.79,1.27-.74.32-.1,1.39.63,1.08Z"/><path class="cls-15" d="M14.88,144.7A28,28,0,0,1,39.64,142c.76.28,1.08-.93.33-1.2a29.16,29.16,0,0,0-25.73,2.8c-.67.44,0,1.52.64,1.08Z"/><path class="cls-15" d="M9.94,137.08c3.57-4.94,10.44-6,16.07-6.7a61.83,61.83,0,0,1,21.23.94c.78.18,1.12-1,.33-1.21a63.53,63.53,0,0,0-22.67-.83c-5.83.79-12.38,2.1-16,7.17-.47.66.61,1.28,1.08.63Z"/><path class="cls-15" d="M3.37,129.49c4.54-6.3,13.26-8.2,20.47-9.37a53.67,53.67,0,0,1,25.91,1.72c.76.26,1.09-1,.33-1.21-8.69-3-18-3.16-27-1.64-7.48,1.26-16.08,3.37-20.77,9.87-.47.65.62,1.28,1.08.63Z"/><path class="cls-15" d="M9.9,114a34.62,34.62,0,0,1,30.77-6.28.63.63,0,0,0,.34-1.21A36,36,0,0,0,9,113.1c-.62.51.26,1.39.89.88Z"/><path class="cls-9" d="M27.5,90.11l-6.63,1.66L0,124v7.61l25.24,27.61,6.56,1.09,22-37.09V117Zm22,33.4L31,154.66l-5.51-.91-21.2-23.2v-6.38L21.84,97.11l5.57-1.39,22.12,22.61Z"/><path class="cls-16" d="M109.26,237.66c-3.45-13-16.44-38.14-28.68-50.45a9.22,9.22,0,0,0,5.15-5.66c2.8-8.54-2.21-9.46-2.21-9.46s.27-4.73-3.3-5.9c0,0-1.15-4.16-4.12-4.19a4.92,4.92,0,0,0-6.51-3.62c-3.19.86-4.12,1.32-4.35,1.56-.14-.8-1-3.24-6.54.88-6,4.49-6.57,12.11-6.57,12.11l8.36,13.95.61.17-.46.11c.1,6.34,6.85,17.69,18.19,41.27C95.65,263.43,114.27,256.61,109.26,237.66Z"/><polygon class="cls-17" points="43.06 80.57 36.9 68.6 25.19 61.95 37.28 55.59 44.13 43.77 50.29 55.74 62 62.39 49.92 68.75 43.06 80.57"/><polygon class="cls-18" points="264.27 174.1 255.18 157.85 239.32 148.11 254.54 140.81 262.45 125.91 271.54 142.16 287.4 151.9 272.18 159.19 264.27 174.1"/></g></g></svg>