<svg xmlns="http://www.w3.org/2000/svg" xmlns:xlink="http://www.w3.org/1999/xlink" viewBox="0 0 302.34 317.12"><defs><style>.cls-1{fill:url(#linear-gradient);}.cls-2{fill:#fab998;}.cls-3{fill:url(#linear-gradient-2);}.cls-4{stroke:#dc69a2;stroke-miterlimit:10;stroke-width:10px;fill:url(#linear-gradient-3);}.cls-5{fill:#45362e;}.cls-6{fill:url(#linear-gradient-4);}.cls-7{fill:url(#linear-gradient-5);}.cls-8{fill:url(#linear-gradient-6);}.cls-9{fill:#f49c76;}.cls-10{fill:url(#linear-gradient-7);}.cls-11{fill:#dc69a2;}.cls-12{fill:#775d35;}.cls-13{fill:url(#linear-gradient-8);}.cls-14{fill:url(#linear-gradient-9);}.cls-15{fill:url(#linear-gradient-10);}.cls-16{fill:url(#linear-gradient-11);}.cls-17{fill:url(#linear-gradient-12);}.cls-18{fill:url(#linear-gradient-13);}</style><linearGradient id="linear-gradient" x1="-330.85" y1="-270.7" x2="8.12" y2="-8.16" gradientTransform="translate(338.18 178.99) rotate(-16.45)" gradientUnits="userSpaceOnUse"><stop offset="0.02" stop-color="#935905"/><stop offset="0.3" stop-color="#633e02"/><stop offset="0.64" stop-color="#332401"/></linearGradient><linearGradient id="linear-gradient-2" x1="-285.57" y1="-152.66" x2="-155.24" y2="-104.22" gradientTransform="translate(338.18 178.99) rotate(-16.45)" gradientUnits="userSpaceOnUse"><stop offset="0.46" stop-color="#fab998"/><stop offset="0.65" stop-color="#f6a581"/><stop offset="0.78" stop-color="#f49c76"/></linearGradient><linearGradient id="linear-gradient-3" x1="-313.96" y1="-157.89" x2="-189.9" y2="-127.92" gradientTransform="translate(364.11 182.72) rotate(-17.75)" gradientUnits="userSpaceOnUse"><stop offset="0.02" stop-color="#fff"/><stop offset="0.51" stop-color="#befbff"/><stop offset="1" stop-color="#6aecff"/></linearGradient><linearGradient id="linear-gradient-4" x1="-240.09" y1="-99.89" x2="-202.43" y2="-88.61" gradientTransform="translate(320.52 245.68)" gradientUnits="userSpaceOnUse"><stop offset="0.02" stop-color="#c1ffd5"/><stop offset="0.51" stop-color="#23f9d0"/><stop offset="1" stop-color="#06c9b1"/></linearGradient><linearGradient id="linear-gradient-5" x1="-147.25" y1="-143.03" x2="-222.07" y2="-86.45" gradientTransform="translate(338.18 178.99) rotate(-16.45)" xlink:href="#linear-gradient-4"/><linearGradient id="linear-gradient-6" x1="11.46" y1="169.65" x2="132.62" y2="264.38" gradientUnits="userSpaceOnUse"><stop offset="0.12" stop-color="#9ed7d7"/><stop offset="0.23" stop-color="#84b6bd"/><stop offset="0.47" stop-color="#527688"/><stop offset="0.68" stop-color="#2c4662"/><stop offset="0.83" stop-color="#16294b"/><stop offset="0.92" stop-color="#0d1e42"/></linearGradient><linearGradient id="linear-gradient-7" x1="-294.19" y1="-182.85" x2="-64.13" y2="-126.25" xlink:href="#linear-gradient"/><linearGradient id="linear-gradient-8" x1="131.52" y1="209.52" x2="179.53" y2="209.52" gradientTransform="matrix(1, 0, 0, 1, 0, 0)" xlink:href="#linear-gradient-2"/><linearGradient id="linear-gradient-9" x1="145.47" y1="423.32" x2="190.8" y2="423.32" gradientTransform="matrix(0.94, -0.03, -0.03, 0.86, 13.96, -109.82)" xlink:href="#linear-gradient-2"/><linearGradient id="linear-gradient-10" x1="124.48" y1="267.76" x2="147.96" y2="267.76" gradientTransform="matrix(1, 0, 0, 1, 0, 0)" xlink:href="#linear-gradient-2"/><linearGradient id="linear-gradient-11" x1="43.68" y1="182.79" x2="85.16" y2="242.42" gradientTransform="matrix(1, 0, 0, 1, 0, 0)" xlink:href="#linear-gradient-2"/><linearGradient id="linear-gradient-12" x1="92.3" y1="200.75" x2="51.33" y2="299.8" gradientTransform="matrix(1, 0, 0, 1, 0, 0)" xlink:href="#linear-gradient-2"/><linearGradient id="linear-gradient-13" x1="159.78" y1="146.27" x2="221.79" y2="203.43" gradientUnits="userSpaceOnUse"><stop offset="0" stop-color="#fceb4f"/><stop offset="1" stop-color="#ffcc17"/></linearGradient></defs><g id="Layer_2" data-name="Layer 2"><g id="Layer_5" data-name="Layer 5"><path class="cls-1" d="M5.8,100.68s8.81-2.11,11.25-39.06,65-40.5,80.74-40.43S101.9,5.84,119.24.72,216.4,18.55,198,43.93s57.79,30.8,75.19,15.24S292.35,31,300.93,49.44s-23.86,60.17-44.41,65.07.19,19.28,20.82,12-10.25,39.8-53.47,23.75-66.32-25-85.41-9.89-19.52,40.82-57.76,33.41S-19.21,125,5.8,100.68Z"/><path class="cls-2" d="M90.65,180.63l-29.23,4.68s18.74,65.27,11.33,99.06H129.3s-4.25-49.25,11.65-98.76c0,0-18.07-3.73-27.53-5S90.65,180.63,90.65,180.63Z"/><polygon class="cls-2" points="89.4 165.94 89.4 180.63 112.18 180.63 112.14 165.94 89.4 165.94"/><path class="cls-3" d="M42.79,113.89s8.61,71.28,61.43,55.34,18.66-79,18.66-79S113.27,55.06,73,67.34,42.79,113.89,42.79,113.89Z"/><path class="cls-4" d="M92.43,129c8.19-2.39,21.5,11.57,33.72,7.33,10.79-3.75,10.41-41.24,1.47-43.73S92.75,93,78.23,97.68s-34.31,14.93-36.94,21.13,13.18,38.61,26.29,34.64S84.24,131.36,92.43,129Z"/><path class="cls-5" d="M103.37,105.69c.4,1.69,1.5.72,4.32,0s6.29-.78,5.89-2.48-3-2.52-5.83-1.85S103,104,103.37,105.69Z"/><path class="cls-5" d="M59.11,119.13c.4,1.7,1.51.73,4.33.06s6.29-.79,5.89-2.48-3-2.52-5.84-1.85S58.71,117.44,59.11,119.13Z"/><path class="cls-5" d="M76.56,124.77s-13.66-5.85-15.57-1,12.11,2.61,12.11,2.61-9.17,3.37-7.26,7.7S76.56,124.77,76.56,124.77Z"/><ellipse class="cls-6" cx="98.64" cy="151.25" rx="17.03" ry="10.98" transform="translate(-38.79 34.13) rotate(-16.45)"/><path class="cls-7" d="M96.78,148s-6.7,1.31-5.24,5.36,2.71,3.94,8.61,3,27.84-5.32,38.31-16S145.9,73.5,145.9,73.5L137,77.25s2.82,51.07-3.37,56.85C123,144.06,96.78,148,96.78,148Z"/><path class="cls-8" d="M140.38,209.62l-28.2-29s9.31,33.14-9.26,47.91c0,0-22.93-17.95-13.52-47.91L69.63,205.71s-11.18,17.91-.84,30.37a135.33,135.33,0,0,1,2.72,48.29h59.24c-2.84-18.53,2.26-45.76,2.26-45.76A36.73,36.73,0,0,0,140.38,209.62Z"/><path class="cls-9" d="M90,171.65a25.93,25.93,0,0,0,22.16,1.16l0-6.53A73.48,73.48,0,0,1,90,171.65Z"/><path class="cls-10" d="M34.76,120.33c15.12,1.6,31.43-8.31,32.55-9.81-.77.07-6.15.42-9.81-3.67a11.53,11.53,0,0,1-2.48-4.6,55,55,0,0,0,16.55,3.9,37.45,37.45,0,0,0,12.36-.68,33.83,33.83,0,0,0,11.78-5.36l-7.14-3.4a46.82,46.82,0,0,0,10.27,1c10.54-.1,13.42.19,20.6-1.12,8.67-1.57,12.35-1.56,16.76-4.68-1.23-4.93-6-21.17-15.27-30.69-12.72-13-26.65-13-33-13.16-15.67-.48-29.66,5.3-43,19.72C24.17,90.31,33.65,120.21,34.76,120.33Z"/><circle class="cls-5" cx="111.15" cy="113.54" r="5.11"/><path class="cls-11" d="M127.69,43.73l-1-15.2s7-7.36,12.07-3.57,8.39,48.26,8.39,48.26l-12.21,5.45S134.46,38.88,127.69,43.73Z"/><polygon class="cls-11" points="181.16 277.79 120.2 260.25 122.07 254.79 184.4 273.2 181.16 277.79"/><path class="cls-12" d="M208.05,306.14l-17.72,6.73a46.09,46.09,0,0,1-8.44,2.78,17,17,0,0,1-8.93-1c-5.13-1.92-9.11-5.95-9.48-11.61-.35-5.38,2.31-10.29,6.07-14,4.06-4,9.59-6.2,13.08-10.79.49-.64-.6-1.27-1.08-.63-3.44,4.52-9,6.71-13,10.68-3.76,3.73-6.46,8.7-6.32,14.12a14.12,14.12,0,0,0,7.74,12.2,21,21,0,0,0,8.06,2.44,20,20,0,0,0,8.61-1.46c7.3-2.63,14.52-5.5,21.77-8.25.75-.28.42-1.49-.33-1.21Z"/><path class="cls-12" d="M195.37,302.7c-8.37,5-17.64,10.49-27.82,9-.79-.12-1.13,1.09-.33,1.2,10.57,1.57,20.07-3.87,28.78-9.11a.63.63,0,0,0-.63-1.08Z"/><path class="cls-12" d="M184.38,299.52c-6.26,3.51-12.84,7.15-20.2,7.34a.63.63,0,0,0,0,1.25c7.59-.2,14.37-3.89,20.83-7.51a.63.63,0,0,0-.63-1.08Z"/><path class="cls-12" d="M174.44,294.88a32.55,32.55,0,0,0-11.93,6.29c-.62.51.27,1.39.89.88a31.18,31.18,0,0,1,11.38-6,.62.62,0,0,0-.34-1.2Z"/><path class="cls-12" d="M175,288a48.76,48.76,0,0,0-11.07,6.58c-.64.49.25,1.37.88.88a48.12,48.12,0,0,1,10.82-6.38c.74-.32.1-1.4-.63-1.08Z"/><path class="cls-12" d="M186.59,314.24a26.78,26.78,0,0,1-15-11.72,24,24,0,0,1-2.12-4.42,6.09,6.09,0,0,1,.49-5.49c1.7-2.85,4.6-4.81,5.52-8.13a.63.63,0,0,0-1.21-.33c-1,3.67-4.7,5.71-6.07,9.21-1.3,3.32.61,7,2.31,9.79a28.1,28.1,0,0,0,15.71,12.3c.77.24,1.1-1,.33-1.21Z"/><path class="cls-12" d="M198.31,310a147.59,147.59,0,0,1-13.69-5.58c-3.82-1.74-9.28-3.28-9.27-8.37a.63.63,0,0,0-1.25,0,7.29,7.29,0,0,0,2.26,5.41c1.77,1.65,4.25,2.5,6.41,3.49A163.6,163.6,0,0,0,198,311.22c.76.26,1.09-1,.33-1.21Z"/><path class="cls-12" d="M228.68,275.05a229.09,229.09,0,0,0-36.78,24.5c-.63.5.26,1.38.88.88a228,228,0,0,1,36.53-24.3c.71-.38.08-1.46-.63-1.08Z"/><path class="cls-12" d="M222.34,284.93a65.68,65.68,0,0,0-22.23,16.64c-.52.61.36,1.5.89.89A64.66,64.66,0,0,1,223,286c.73-.34.09-1.42-.63-1.08Z"/><path class="cls-12" d="M216,295.28a34.13,34.13,0,0,0-11.13,7.6c-.57.57.32,1.46.88.88a33.3,33.3,0,0,1,10.88-7.4c.74-.31.1-1.39-.63-1.08Z"/><path class="cls-12" d="M226.83,269.52c-14.88,7.6-30,15.44-41.81,27.54-.57.58.32,1.47.88.89,11.7-12,26.78-19.79,41.56-27.35.71-.36.08-1.44-.63-1.08Z"/><path class="cls-12" d="M217.77,265.11A123,123,0,0,0,178,294.8c-.53.6.35,1.49.89.89a122.09,122.09,0,0,1,39.48-29.51c.73-.34.1-1.41-.63-1.07Z"/><path class="cls-12" d="M179.38,285.61a152.64,152.64,0,0,1,13.36-12.18c4.67-3.77,9.58-7.61,15.17-9.94.73-.31.41-1.52-.34-1.21-5.52,2.31-10.34,6-15,9.69a152,152,0,0,0-14.09,12.76.63.63,0,0,0,.89.88Z"/><path class="cls-12" d="M185.76,297.88c-.27-5.41-1.25-11.28-5.85-14.75-.64-.49-1.27.6-.63,1.08,4.19,3.17,5,8.78,5.23,13.67,0,.8,1.29.8,1.25,0Z"/><path class="cls-12" d="M192.71,300.75a27.43,27.43,0,0,0-8.21-22.95c-.58-.55-1.47.33-.88.89a26.24,26.24,0,0,1,7.84,22.06c-.1.79,1.15.78,1.25,0Z"/><path class="cls-12" d="M201,302.4c3-5.66.95-12.48-1.05-18.12a59.62,59.62,0,0,0-9.5-17.3c-.51-.62-1.39.27-.89.89a57.13,57.13,0,0,1,9,16.33c1.95,5.38,4.24,12.14,1.33,17.57-.38.71.7,1.34,1.08.63Z"/><path class="cls-12" d="M210.12,304.84c3.84-7.14,1.63-16.16-.72-23.44a51.14,51.14,0,0,0-12-20.42.63.63,0,0,0-.89.88,49.55,49.55,0,0,1,11.51,19.48c2.31,7,4.69,16,1,22.87-.38.71.7,1.34,1.08.63Z"/><path class="cls-12" d="M220.71,292.68a33.9,33.9,0,0,0-7.57-29.82c-.54-.61-1.42.28-.89.88a32.56,32.56,0,0,1,7.25,28.61c-.18.78,1,1.12,1.21.33Z"/><path class="cls-11" d="M199,256.37l-5.22,2.52-22.36,33.87,3.6,5.11,33.73,10,6.44-3.11,18.71-30.88-1.32-6.29Zm.66,4.18L227.83,270l1.1,5.28-15.71,25.94-5.41,2.62-28.33-8.44-3-4.29,18.79-28.45Z"/><path class="cls-13" d="M131.64,193.33c-1.28,10,8.55,16.15,23.38,29s35.21,19.66,17.86-6.72S133.9,175.55,131.64,193.33Z"/><path class="cls-14" d="M171.7,226c-9.49-.06-14.84,9-26.35,22.94s-17,32.09,7.05,14.57S188.51,226.11,171.7,226Z"/><path class="cls-15" d="M146.56,262c4.38,5.75-2.58,15.09-6.46,16.57s-6.12-.32-7.17-1.48-2.71-.84-3.41-2-.47-2.53-2-3.59-.83-2.52-1.41-3.64-2.35-2.8-1.3-4.38,6.47-3.7,6.47-3.7-1.76-2.95,1.29-3.27S142,256,146.56,262Z"/><path class="cls-16" d="M62.56,185.31s9-3.69,12,32.63-1.92,29.4-8.65,24.79-14.57-30-12.29-41.51S57.87,186,62.56,185.31Z"/><path class="cls-17" d="M63.13,260.94c-17.56-11.54-3-28.19,3.31-27.05a11.83,11.83,0,0,1,6.46,3.25s8.91-25.53,13.86-20.68-11.76,22.21-8.27,25c3.85,3.11,11.78-22.28,17.05-18.11,4,3.19-10.37,23.39-10.37,23.39s2.2-.16,4,3.19S84.38,274.9,63.13,260.94Z"/><path class="cls-9" d="M72.72,255.94s6.21,2.18,10.71.58c0,0-.13,4-3.57,4.77,0,0,1.3-1.25.85-2.36C80.71,258.93,74,259,72.72,255.94Z"/><path class="cls-9" d="M58.12,245.67s.4,3.85,5.09,3.55c0,0,.63,3.12,5.25,3.12,0,0-4.07,3-6.26-2C62.2,250.33,56.56,250.65,58.12,245.67Z"/><polygon class="cls-18" points="199.41 199.63 189.68 188.01 174.59 189.43 182.64 176.58 176.62 162.66 191.33 166.35 202.7 156.32 203.74 171.45 216.79 179.17 202.72 184.84 199.41 199.63"/></g></g></svg>