<svg xmlns="http://www.w3.org/2000/svg" xmlns:xlink="http://www.w3.org/1999/xlink" viewBox="0 0 282.36 226.84"><defs><style>.cls-1{fill:url(#linear-gradient);}.cls-2{fill:#fab998;}.cls-3{fill:#f49c76;}.cls-4{fill:url(#linear-gradient-2);}.cls-5{fill:url(#linear-gradient-3);}.cls-6{fill:url(#linear-gradient-4);}.cls-7{fill:url(#linear-gradient-5);}.cls-8{fill:url(#linear-gradient-6);}.cls-9{fill:url(#linear-gradient-7);}.cls-10{fill:#45362e;}.cls-11{fill:url(#linear-gradient-8);}.cls-12{fill:#16103f;}.cls-13{fill:url(#radial-gradient);}.cls-14{fill:url(#linear-gradient-9);}.cls-15{fill:url(#linear-gradient-10);}</style><linearGradient id="linear-gradient" x1="275.45" y1="117.17" x2="97.19" y2="262.53" gradientTransform="translate(-55.57 -173.19) rotate(0.91)" gradientUnits="userSpaceOnUse"><stop offset="0.12" stop-color="#5c5d60"/><stop offset="0.18" stop-color="#535457"/><stop offset="0.51" stop-color="#262728"/><stop offset="0.77" stop-color="#0a0b0b"/><stop offset="0.92"/></linearGradient><linearGradient id="linear-gradient-2" x1="54.29" y1="111.11" x2="9.31" y2="89.26" gradientUnits="userSpaceOnUse"><stop offset="0" stop-color="#fceb4f"/><stop offset="1" stop-color="#ffcc17"/></linearGradient><linearGradient id="linear-gradient-3" x1="-1.74" y1="114.67" x2="-188.85" y2="309.48" gradientTransform="matrix(-0.63, 0.78, 0.78, 0.63, -74.59, 31.39)" gradientUnits="userSpaceOnUse"><stop offset="0.12" stop-color="#9fd8d8"/><stop offset="0.23" stop-color="#85b6bd"/><stop offset="0.47" stop-color="#527689"/><stop offset="0.68" stop-color="#2c4662"/><stop offset="0.83" stop-color="#16294b"/><stop offset="0.92" stop-color="#0d1e42"/></linearGradient><linearGradient id="linear-gradient-4" x1="-661.09" y1="302.3" x2="-956.06" y2="39.36" gradientTransform="matrix(0.04, -1, 1, 0.04, 140.47, -739.18)" xlink:href="#linear-gradient-3"/><linearGradient id="linear-gradient-5" x1="149.57" y1="305.95" x2="100.88" y2="350.36" gradientTransform="translate(21.74 -246.94) rotate(-9.99)" xlink:href="#linear-gradient-3"/><linearGradient id="linear-gradient-6" x1="651.68" y1="629.79" x2="719.88" y2="629.79" gradientTransform="matrix(-0.93, 0.25, 0.26, 0.97, 657, -705.76)" gradientUnits="userSpaceOnUse"><stop offset="0.05" stop-color="#fff"/><stop offset="0.26" stop-color="#d2ecef"/><stop offset="0.37" stop-color="#cdeaef"/><stop offset="0.5" stop-color="#bee5ee"/><stop offset="0.64" stop-color="#a5dded"/><stop offset="0.65" stop-color="#a3dced"/></linearGradient><linearGradient id="linear-gradient-7" x1="105.82" y1="336.23" x2="109.98" y2="373.37" gradientTransform="translate(21.74 -246.94) rotate(-9.99)" xlink:href="#linear-gradient-3"/><linearGradient id="linear-gradient-8" x1="-69.81" y1="-400.64" x2="-93.57" y2="-296.64" gradientTransform="matrix(0.93, 0.34, -0.35, 0.67, 106.06, 332.48)" xlink:href="#linear-gradient-3"/><radialGradient id="radial-gradient" cx="130.93" cy="355.02" r="13.55" gradientTransform="translate(9.89 -236.15) rotate(-8.81)" gradientUnits="userSpaceOnUse"><stop offset="0" stop-color="#9fd8d8"/><stop offset="0.14" stop-color="#85b6bd"/><stop offset="0.44" stop-color="#527689"/><stop offset="0.7" stop-color="#2c4662"/><stop offset="0.89" stop-color="#16294b"/><stop offset="1" stop-color="#0d1e42"/></radialGradient><linearGradient id="linear-gradient-9" x1="145.77" y1="299.83" x2="65.95" y2="345.11" gradientTransform="translate(21.74 -246.94) rotate(-9.99)" xlink:href="#linear-gradient"/><linearGradient id="linear-gradient-10" x1="274.19" y1="-42.64" x2="86.99" y2="152.27" gradientTransform="matrix(1, 0, 0, 1, 0, 0)" xlink:href="#linear-gradient-3"/></defs><g id="Layer_2" data-name="Layer 2"><g id="Layer_1-2" data-name="Layer 1"><path class="cls-1" d="M217.24,45.11C212.43,38,197.65,18,172,11c-6.35-1.74-18.19-5-32.37-2.22-9.1,1.78-13.22,4.88-23.84,5.59-8.61.58-15-.83-21.85-2.39C73.6,7.33,67.76-.06,51.11,0,41.7,0,38.94,2.41,37.83,4.2,35,8.81,40.25,13.92,38.1,18c-4.21,7.93-28.79-3.82-36,4.76-5.67,6.76.5,24.93,12.35,33.19,10.47,7.3,23.6,5.64,27.06,5.2,12.78-1.62,17.19-8,28.83-6a30,30,0,0,1,12.18,4.89c5.14,3.58,6.32,7,10,11.15.4.46,8.27,9.23,19.45,11.81,12.68,2.94,28.47-2.33,34.3-12.8,3.14-5.65.43-7.28,3.25-12,4.58-7.66,15.32-8,46.51-11C205.65,46.3,213.26,45.52,217.24,45.11Z"/><path class="cls-2" d="M257.17,90.78s-52.35,14.22-56.66,29,9.37,14.68,20.24,14.13,61.2-24.58,61.3-41.75S240.2,36,236.38,34.71s1.54-16-7.22-17.89-12,3-12,3S201.34-.61,197.27,2.07s17,20.34,15.58,22.12S193.54,9.65,191.68,13c-2.68,4.8,19.65,15.34,17.79,18s-3.26,4-.54,6.5c5.62,5.16,14.39,4.79,15.6,8.72S251.05,86.14,257.17,90.78Z"/><path class="cls-3" d="M227.39,20.7s3.05,4.37,2,7.92-3.91,1-3.91,1,6.18,4.94,4.72-4.74c0,0-1.93-4-.24-3.78A2.34,2.34,0,0,1,232,23S230.32,18.41,227.39,20.7Z"/><path class="cls-3" d="M222.58,23.27s2.76,5.76,2.6,7.72a2,2,0,0,1-1.82,2s4.4.48,2-6.75S222.58,23.27,222.58,23.27Z"/><path class="cls-3" d="M218.42,34.37s3,4.84-5.74,3a12.38,12.38,0,0,0,4.42,2.68C219.53,40.81,221,36.53,218.42,34.37Z"/><path class="cls-3" d="M258.26,90.26s-1,2.19,9.34,3.9c0,0-8.54,2.45-14.16-2.31Z"/><polygon class="cls-4" points="52.41 113.97 36.31 110.81 24.58 122.27 22.61 105.99 8.09 98.37 22.97 91.47 25.72 75.3 36.88 87.32 53.11 84.94 45.13 99.27 52.41 113.97"/><path class="cls-5" d="M236.41,34.76s-2.81,6.85-11.8,11.55c0,0,13,27.27,32.86,44.41,0,0-59.43,14.66-58.34,34.1s33.52,7,33.52,7S282.59,112.26,282.36,92C282.05,65.66,236.41,34.76,236.41,34.76Z"/><path class="cls-6" d="M152.25,218.78c6.3,4.93,14.69,7.09,22.53,7.77a70.77,70.77,0,0,0,25.3-2.22,48.86,48.86,0,0,0,11.76-5.15c.22-.53.44-1,.66-1.54a144.81,144.81,0,0,0,9.57-29.51c1.19-5.69,1.73-10.84,2.81-21.14,3.15-29.91,1.22-37.88.43-43-3.77-24.43-26.08-23.47-31.39-24.19-22.85,13.49-31.32,27.81-34.78,38.6-4.17,13-1.1,21.13-4.68,39a111.68,111.68,0,0,1-10.08,28.75A21.54,21.54,0,0,0,152.25,218.78Z"/><path class="cls-2" d="M153.66,94.27s-4.16,1-7.08-.17c-7.57-2.9-12.77-13.73-.15-17.56,14-4.24,13.09-41.8,20.56-45.71,14.12-7.4,38.89,2.22,45.34,9.33,5.73,6.32,9.45,11.71,10.85,19.74,1.1,6.32,2.29,15.63,1.93,23.19a37.31,37.31,0,0,1-8.7,22.71c-3.24,3.83-14.32,15.88-31.66,12.64-3.21-.6-10.31-2.42-18.61-9.43A57.7,57.7,0,0,1,153.66,94.27Z"/><path class="cls-7" d="M187,51.79c-13.34,2.35-33.45,5.9-38,18.76-1.94,5.5-.64,11.6-.37,12.89a23.15,23.15,0,0,0,4.69,10.33c1.23,1.47,6.13,7,13.06,7.28,5.7.25,10.52-3.11,15.47-6.55,3.7-2.58,5.66-4.78,10-5.68a27.31,27.31,0,0,1,6.42-.32c5.27.07,6.34.85,10.59.61a17.84,17.84,0,0,0,6.63-1.26,16.1,16.1,0,0,0,5.63-4.09c4.37-4.83,6.14-12.84,4-20.06a19.86,19.86,0,0,0-6.63-10.28c-6.06-4.61-14-3.74-25.76-2.43C189.83,51.3,187.73,51.66,187,51.79Z"/><path class="cls-8" d="M187,57.36c-18.4,4.06-29,6.39-32,15.09A17.25,17.25,0,0,0,156.68,87c.5.78,3.67,5.44,8.89,6.23,2.39.36,4.28-.25,12.9-4.81,10.37-5.49,9.29-5.5,11-5.93,7.21-1.77,9.94,2.16,18.36.18,3-.69,5.45-1.2,7.52-3.43,3.64-3.91,3.76-10.57,1.83-15.35a15.21,15.21,0,0,0-3.39-5.16C210.86,55.87,205.14,53.37,187,57.36Z"/><path class="cls-9" d="M199.86,85.35c3.31-.28,6.41-.54,9.16,1.41a10.84,10.84,0,0,1,3.79,5.71,17.26,17.26,0,0,1-1.08,12.76c-2.95,5.64-8.33,7.67-12,9.07s-9.09,3.43-14.78,1.24c-4.83-1.87-10.11-6.81-9.88-12.48.16-3.84,2.79-6.62,4.73-8.67,2.81-3,5.74-4.29,9.47-6A30.94,30.94,0,0,1,199.86,85.35Z"/><circle class="cls-10" cx="204.82" cy="76.08" r="3.48"/><path class="cls-10" d="M174.39,75.41c.32,1.11-.63.91-2.47,1.44s-3.88,1.6-4.2.49.91-2.43,2.76-3S174.07,74.3,174.39,75.41Z"/><path class="cls-11" d="M191.59,101l-1.53,9.36c-11.18-2.05-20.71-4.13-28.18-5.89-14.76-3.48-25-6.59-29.15-7.86C118.67,92.29,111.48,90,104,85.69c-6.61-3.83-12.84-7.44-16.21-13.56-5.87-10.66.29-17.4,1.84-19.41,4.68,2.45,8.52,5,12.78,7.31-1.28,2.47-2.55,4.59-1,8.72,2.86,7.49,13.16,11.72,25.37,16.51,5.13,2,13.09,4.85,32,9.19C167,96.35,178.18,98.72,191.59,101Z"/><path class="cls-10" d="M204.28,68.73c.32,1.11-.64.91-2.48,1.44s-3.88,1.6-4.2.5.92-2.44,2.76-3S204,67.63,204.28,68.73Z"/><path class="cls-12" d="M174.33,114.65a35,35,0,0,0,8.84,3.45c4.24,1,10.83,1.56,16-.38-.62,2.69-12.48,7.42-16.59,8-3.18.46-10.66.24-15.4-2.69A55.52,55.52,0,0,1,174.33,114.65Z"/><path class="cls-13" d="M184.64,107.4a9.56,9.56,0,0,0,4.1,2.91c3.26,1.16,6.2,0,9.22-1.16s5.61-2.19,7.32-5a10.61,10.61,0,0,0,1.42-6.43c-.11-1.1-.37-3.81-2.22-5.5-3.32-3-9.46-.68-12.28.39s-9.68,3.7-10,8.63C182,104.25,184.22,106.91,184.64,107.4Z"/><path class="cls-14" d="M223.18,59.9c-9.74,7.36-25.06,7.27-26.44,6.71A9.86,9.86,0,0,0,202,60a9.25,9.25,0,0,0-.2-4.18A44.06,44.06,0,0,1,192,65.35,30,30,0,0,1,183.22,70a27.37,27.37,0,0,1-10.32,1.18l3.5-5.29a37.77,37.77,0,0,1-6.63,5c-7.3,4.28-9.16,5.68-14.63,7.74-6.62,2.5-9.14,4-13.47,3.7-1.19-3.9-4.64-17-2.19-27.44,3.36-14.25,13-20,17.26-22.72,10.58-6.81,22.6-8.6,37.73-4.18C218.05,34.85,223.9,59.36,223.18,59.9Z"/><path class="cls-2" d="M112.17,137.7s44.25-31.39,58.41-25.33,5.38,16.57-2,24.61-57.85,31.65-71.18,20.81S80.61,89.76,82.08,86s-13.36-9-9.23-16.94,9.92-7.36,9.92-7.36-5.7-25.2-1-26.64,4.9,26.07,7.18,26.09S90,37,93.7,37.7c5.42,1-.64,24.92,2.61,25.18s5.16,0,5.36,3.7c.42,7.63-5.44,14.17-3.18,17.6S112.48,130,112.17,137.7Z"/><path class="cls-3" d="M77,70.18s1.43,5.12,4.84,6.58,3.24-2.39,3.24-2.39S85,82.28,78.41,75c0,0-1.84-4-2.77-2.58a2.36,2.36,0,0,0,.19,2.74S73.35,71,77,70.18Z"/><path class="cls-3" d="M82,68.1s2.7,5.78,4.32,6.91a2,2,0,0,0,2.72-.12s-2.43,3.7-6.47-2.77S82,68.1,82,68.1Z"/><path class="cls-3" d="M93.23,71.94s1.82,5.4,6-2.5a12.47,12.47,0,0,1-.75,5.11C97.5,76.88,93.25,75.31,93.23,71.94Z"/><path class="cls-10" d="M178,81.78s-12.16-2-14.09.39,11.63.29,11.63.29-6,2.72-5.74,4.29S178,81.78,178,81.78Z"/><path class="cls-15" d="M82.08,86s9.26,1,16.41-1.84c0,0,11.61,28.1,13.68,53.52,0,0,48.9-36.83,63.28-23.71s-15.77,30.39-15.77,30.39-46.2,25.81-62.24,13.41C78.8,143.38,82.08,86,82.08,86Z"/></g></g></svg>