<svg xmlns="http://www.w3.org/2000/svg" xmlns:xlink="http://www.w3.org/1999/xlink" viewBox="0 0 202.62 61.14"><defs><style>.cls-1{fill:url(#linear-gradient);}.cls-2{fill:#2f4b4f;opacity:0.2;}.cls-3{fill:#fff;}.cls-4{fill:url(#linear-gradient-2);}.cls-5{fill:url(#linear-gradient-3);}.cls-6{fill:url(#linear-gradient-4);}.cls-7{fill:#3c8b9e;}</style><linearGradient id="linear-gradient" x1="7.78" y1="-12.38" x2="177.26" y2="65.51" gradientUnits="userSpaceOnUse"><stop offset="0" stop-color="#40b3f9"/><stop offset="0.07" stop-color="#56c4f8"/><stop offset="0.19" stop-color="#74dbf6"/><stop offset="0.31" stop-color="#8aecf5"/><stop offset="0.42" stop-color="#97f7f4"/><stop offset="0.52" stop-color="#9cfaf4"/><stop offset="0.63" stop-color="#92f2f5"/><stop offset="0.82" stop-color="#78def6"/><stop offset="1" stop-color="#57c5f8"/></linearGradient><linearGradient id="linear-gradient-2" x1="0.96" y1="30.35" x2="199.44" y2="30.79" gradientUnits="userSpaceOnUse"><stop offset="0" stop-color="#dd9f3c"/><stop offset="0.26" stop-color="#fccc75"/><stop offset="0.51" stop-color="#f9d498"/><stop offset="0.74" stop-color="#fccc6d"/><stop offset="1" stop-color="#e1a543"/></linearGradient><linearGradient id="linear-gradient-3" x1="-2150.25" y1="-845.73" x2="-2127.94" y2="-823.92" gradientTransform="translate(1215.67 -1904.25) rotate(-79.63)" gradientUnits="userSpaceOnUse"><stop offset="0.4" stop-color="#ffa034"/><stop offset="0.92" stop-color="#f94319"/></linearGradient><linearGradient id="linear-gradient-4" x1="0.81" y1="-0.01" x2="23.56" y2="22.23" gradientTransform="matrix(-1, 0, 0, 1, 204.9, 0)" xlink:href="#linear-gradient-3"/></defs><g id="Layer_2" data-name="Layer 2"><g id="end_game" data-name="end game"><rect class="cls-1" x="6.06" y="6.23" width="190.36" height="48.68" rx="24.34"/><path class="cls-2" d="M10.29,44.18A24.39,24.39,0,0,0,30.4,54.91H172.08s13.41,0,20.18-10.73c0,0-4.68,5.16-16,6.46-10.78,1.25-141.13.72-149.28.9C17.35,51.77,10.29,44.18,10.29,44.18Z"/><path class="cls-3" d="M59.45,10.06c1.73,1.74,80.59,1.64,83,0S58.06,8.66,59.45,10.06Z"/><path class="cls-4" d="M171.29,0H30.61A30.57,30.57,0,0,0,0,30.57H0A30.57,30.57,0,0,0,30.61,61.14H171.29a30.57,30.57,0,0,0,30.57-30.57h0A30.57,30.57,0,0,0,171.29,0Zm25.2,30.57a24.34,24.34,0,0,1-24.34,24.34H30.47A24.34,24.34,0,0,1,6.13,30.57h0A24.34,24.34,0,0,1,30.47,6.23H172.15a24.34,24.34,0,0,1,24.34,24.34Z"/><path class="cls-5" d="M20.69,50.43l-4,2.2a1.82,1.82,0,0,0-.95,1.42l-.48,4.56a1.83,1.83,0,0,1-3.09,1.14L8.81,56.59a1.84,1.84,0,0,0-1.65-.46l-4.49.95a1.83,1.83,0,0,1-2-2.58l2-4.15a1.82,1.82,0,0,0-.07-1.71l-2.29-4a1.83,1.83,0,0,1,1.83-2.73l4.55.6a1.82,1.82,0,0,0,1.6-.59l3.08-3.42a1.84,1.84,0,0,1,3.17.9l.83,4.52a1.85,1.85,0,0,0,1.06,1.34l4.2,1.87A1.83,1.83,0,0,1,20.69,50.43Z"/><path class="cls-6" d="M191.4,22.41l2.94-3.65a1.84,1.84,0,0,1,1.59-.69l4.67.35a1.87,1.87,0,0,0,1.71-2.88l-2.56-3.92a1.86,1.86,0,0,1-.16-1.74l1.78-4.33A1.87,1.87,0,0,0,199.15,3l-4.52,1.22a1.87,1.87,0,0,1-1.7-.38l-3.57-3a1.87,1.87,0,0,0-3.08,1.33l-.23,4.67a1.85,1.85,0,0,1-.89,1.5l-4,2.46a1.87,1.87,0,0,0,.31,3.34l4.38,1.67a1.88,1.88,0,0,1,1.15,1.3l1.1,4.55A1.88,1.88,0,0,0,191.4,22.41Z"/><path class="cls-7" d="M38,39.51V28.17a2.2,2.2,0,0,1,.62-1.61,2.24,2.24,0,0,1,1.64-.62,2.13,2.13,0,0,1,2.25,2.23V39.51a2.13,2.13,0,0,1-2.25,2.25,2.24,2.24,0,0,1-1.64-.62A2.22,2.22,0,0,1,38,39.51Z"/><path class="cls-7" d="M56.2,36.08H51.9a2.73,2.73,0,0,0-1.37.26,1,1,0,0,0-.4.86,1.1,1.1,0,0,0,.19.68,1.28,1.28,0,0,0,.52.39,2.05,2.05,0,0,0,.71.17,4.57,4.57,0,0,0,.74,0,1.51,1.51,0,0,1,1.27.44A1.67,1.67,0,0,1,54,40a1.83,1.83,0,0,1-.53,1.32,2.53,2.53,0,0,1-1.77.56,11.79,11.79,0,0,1-1.9-.11,6.05,6.05,0,0,1-2-.62,4.49,4.49,0,0,1-1.59-1.35,3.74,3.74,0,0,1-.65-2.28A3.93,3.93,0,0,1,47,34.08,7.27,7.27,0,0,1,51.31,33H56.2v-.53a3,3,0,0,0-.73-2.23,3.26,3.26,0,0,0-2.33-.7,5.17,5.17,0,0,0-1.9.35A3.07,3.07,0,0,0,49.82,31a2.44,2.44,0,0,1-2.78.54,1.57,1.57,0,0,1-.66-.64,1.69,1.69,0,0,1-.19-.94,2.36,2.36,0,0,1,.39-1.13,5.15,5.15,0,0,1,2.49-2.15,9.79,9.79,0,0,1,4.07-.8c2.6,0,4.52.62,5.74,1.87A7.16,7.16,0,0,1,60.71,33v6.53a2.21,2.21,0,0,1-.61,1.63,2.16,2.16,0,0,1-1.62.62,2.26,2.26,0,0,1-1.64-.62,2.19,2.19,0,0,1-.64-1.63Z"/><path class="cls-7" d="M56.2,21.78V19.13a2.21,2.21,0,0,1,.61-1.6,2.16,2.16,0,0,1,1.62-.62,2.26,2.26,0,0,1,1.64.62,2.12,2.12,0,0,1,.64,1.6v2.65a2.16,2.16,0,0,1-.61,1.6,2.13,2.13,0,0,1-1.62.62,2.22,2.22,0,0,1-1.64-.62A2.14,2.14,0,0,1,56.2,21.78Z"/><path class="cls-7" d="M74.21,39.2a3.73,3.73,0,0,1-.67,1,4.5,4.5,0,0,1-1.1.84,6.19,6.19,0,0,1-1.46.59,6.82,6.82,0,0,1-1.8.23,6.12,6.12,0,0,1-2.69-.54,5.1,5.1,0,0,1-1.83-1.43,5.79,5.79,0,0,1-1-2.07,8.65,8.65,0,0,1-.34-2.46V28.17a2.23,2.23,0,0,1,.6-1.61,2.19,2.19,0,0,1,1.62-.62,2.26,2.26,0,0,1,1.65.62,2.17,2.17,0,0,1,.63,1.61v6.22A4.17,4.17,0,0,0,68.5,37a2.8,2.8,0,0,0,2.34.93,3.12,3.12,0,0,0,2.53-1,4.12,4.12,0,0,0,.84-2.74v-6a2.24,2.24,0,0,1,.61-1.61,2.16,2.16,0,0,1,1.62-.62,2.26,2.26,0,0,1,1.64.62,2.14,2.14,0,0,1,.64,1.61V39.51a2.39,2.39,0,0,1-.54,1.63,2.12,2.12,0,0,1-1.69.62,2.6,2.6,0,0,1-1.66-.49A1.58,1.58,0,0,1,74.21,40Z"/><path class="cls-7" d="M85.56,35.51a2.35,2.35,0,0,0,.81,2,3.75,3.75,0,0,0,2.42.69,2.79,2.79,0,0,0,2.52-1.14,5.8,5.8,0,0,0,.75-3.2,5.59,5.59,0,0,0-.78-3.19,3,3,0,0,0-2.66-1.14,5.65,5.65,0,0,0-2,.35A3.26,3.26,0,0,0,85.16,31a2.47,2.47,0,0,1-2.8.54,1.57,1.57,0,0,1-.66-.64,1.61,1.61,0,0,1-.18-.94,2.52,2.52,0,0,1,.41-1.13,5.59,5.59,0,0,1,2.58-2.15,10,10,0,0,1,4.11-.8q3.94,0,6,2t2,6q0,4-2.09,6a7.91,7.91,0,0,1-5.71,2,10.27,10.27,0,0,1-3.38-.51A7.09,7.09,0,0,1,83,39.88a5.77,5.77,0,0,1-1.49-2.23A7.47,7.47,0,0,1,81,34.81a1.93,1.93,0,0,1,.57-1.52,2,2,0,0,1,1.4-.51h4.69a1.2,1.2,0,0,1,.93.36,1.34,1.34,0,0,1,.34,1,1.43,1.43,0,0,1-.34,1,1.2,1.2,0,0,1-.93.36Z"/><path class="cls-7" d="M91.83,20.57v-.73a1.79,1.79,0,0,1,.58-1.42,2.17,2.17,0,0,1,1.53-.52,2.3,2.3,0,0,1,1.58.52,1.8,1.8,0,0,1,.59,1.42v1.91a1.9,1.9,0,0,1-2,2H82.69a1.61,1.61,0,0,1-1.17-.42,1.56,1.56,0,0,1-.44-1.16A1.62,1.62,0,0,1,81.52,21a1.55,1.55,0,0,1,1.17-.45Z"/><path class="cls-7" d="M103.09,32.78h1.63a1.06,1.06,0,0,1,.8.3,1.07,1.07,0,0,1,.3.8,1.26,1.26,0,0,1-.62,1,2.52,2.52,0,0,0-.83,1,4.46,4.46,0,0,0-.35,2v1.6a2.13,2.13,0,0,1-2.25,2.25,2.24,2.24,0,0,1-1.64-.62,2.22,2.22,0,0,1-.62-1.63V38.1a3.87,3.87,0,0,1,.44-1.94,3.56,3.56,0,0,1,1.17-1.24h-1A1.46,1.46,0,0,1,99,34.51a1.42,1.42,0,0,1-.4-1v-.68A6.35,6.35,0,0,1,101,27.56a7.46,7.46,0,0,1,2.52-1.26,10.51,10.51,0,0,1,2.89-.41,10.12,10.12,0,0,1,2.9.42,7.3,7.3,0,0,1,2.5,1.31,6.65,6.65,0,0,1,1.77,2.26,7.44,7.44,0,0,1,.68,3.3v6.33a2.21,2.21,0,0,1-.61,1.63,2.15,2.15,0,0,1-1.61.62,2.26,2.26,0,0,1-1.65-.62,2.18,2.18,0,0,1-.63-1.63V33a3.53,3.53,0,0,0-.29-1.49,2.62,2.62,0,0,0-.74-1,3.13,3.13,0,0,0-1.07-.56,4.35,4.35,0,0,0-1.25-.19,4.83,4.83,0,0,0-1.28.17,3.33,3.33,0,0,0-1.07.52,2.43,2.43,0,0,0-.73.89,2.73,2.73,0,0,0-.27,1.24Z"/><path class="cls-7" d="M121.35,35.85A3.42,3.42,0,0,1,122.56,34a3.26,3.26,0,0,1,2.28-.73,1.42,1.42,0,0,1,1.58,1.63,2.5,2.5,0,0,1-.42,1.37,1.36,1.36,0,0,1-1.19.43,3.54,3.54,0,0,0-1.19.17,4.4,4.4,0,0,0-1.11.54,2.92,2.92,0,0,0-.83.81,1.77,1.77,0,0,0-.33,1v1.15a1.63,1.63,0,0,1-.15.78,1.09,1.09,0,0,1-.45.4,1.84,1.84,0,0,1-.69.17q-.39,0-.9,0t-.93,0a2,2,0,0,1-.73-.17,1,1,0,0,1-.48-.42,1.57,1.57,0,0,1-.17-.79V33a7.32,7.32,0,0,1,.6-3,6.52,6.52,0,0,1,1.68-2.25,7.34,7.34,0,0,1,2.52-1.39,10,10,0,0,1,3.16-.48,10.11,10.11,0,0,1,3.16.48,7.39,7.39,0,0,1,2.53,1.39A6.37,6.37,0,0,1,132.17,30a7.16,7.16,0,0,1,.61,3v7.31a1.58,1.58,0,0,1-.16.79.92.92,0,0,1-.45.42,1.81,1.81,0,0,1-.71.17q-.44,0-.93,0c-.34,0-.65,0-.92,0a1.85,1.85,0,0,1-.7-.17,1.06,1.06,0,0,1-.47-.42,1.58,1.58,0,0,1-.16-.79V33.8a4.58,4.58,0,0,0-.89-3,3.63,3.63,0,0,0-5.15,0,4.58,4.58,0,0,0-.89,3Z"/><path class="cls-7" d="M135.51,39a2.15,2.15,0,0,1-.4-1.08,1.83,1.83,0,0,1,.19-.92,1.46,1.46,0,0,1,.64-.61,2.17,2.17,0,0,1,1-.23,2.13,2.13,0,0,1,1.69.73A3.63,3.63,0,0,0,140.1,38a5,5,0,0,0,1.91.38,5.31,5.31,0,0,0,1.87-.31,1.1,1.1,0,0,0,.8-1.07.87.87,0,0,0-.36-.73,3.65,3.65,0,0,0-1-.51,15.65,15.65,0,0,0-1.59-.44c-.62-.14-1.3-.3-2-.49-.5-.15-1-.31-1.54-.49a5.36,5.36,0,0,1-1.43-.73,3.82,3.82,0,0,1-1-1.18,3.68,3.68,0,0,1-.41-1.82,3.86,3.86,0,0,1,.61-2.21,4.54,4.54,0,0,1,1.58-1.43,7.13,7.13,0,0,1,2.16-.79,12.09,12.09,0,0,1,2.38-.24,9.28,9.28,0,0,1,3.93.77,5.19,5.19,0,0,1,2.37,2,2.21,2.21,0,0,1,.4,1.09,1.69,1.69,0,0,1-.18.91,1.59,1.59,0,0,1-.64.62,2.06,2.06,0,0,1-1,.23,2.26,2.26,0,0,1-1-.2,2.17,2.17,0,0,1-.73-.54,3.43,3.43,0,0,0-1.32-1,4.37,4.37,0,0,0-1.89-.38,3.88,3.88,0,0,0-1.72.32,1,1,0,0,0-.62,1,.85.85,0,0,0,.27.65,2.4,2.4,0,0,0,.73.45,7.51,7.51,0,0,0,1.07.34l1.28.31c.77.2,1.52.41,2.26.62a8.21,8.21,0,0,1,1.95.8,4.07,4.07,0,0,1,1.38,1.29,3.74,3.74,0,0,1,.52,2.07,3.63,3.63,0,0,1-.72,2.34,4.88,4.88,0,0,1-1.8,1.4,8.11,8.11,0,0,1-2.32.69,14.62,14.62,0,0,1-2.25.19,9.74,9.74,0,0,1-4-.78A5.2,5.2,0,0,1,135.51,39Z"/><path class="cls-7" d="M137.56,20.37a2.16,2.16,0,0,1,.41-1.29,1.76,1.76,0,0,1,1.53-.56,2.78,2.78,0,0,1,.78.09,1.57,1.57,0,0,1,.48.26.85.85,0,0,1,.25.33l.13.33a1.28,1.28,0,0,0,.5.8,2.86,2.86,0,0,0,1.41.24h4a1.61,1.61,0,1,1,0,3.21h-4.84a8.22,8.22,0,0,1-1.86-.2,4.34,4.34,0,0,1-1.45-.6,3.15,3.15,0,0,1-1-1.06A3.25,3.25,0,0,1,137.56,20.37Z"/><path class="cls-7" d="M143.3,14.72a1.31,1.31,0,0,1-1-.37,1.33,1.33,0,0,1-.35-1,1.41,1.41,0,0,1,.35-1,1.31,1.31,0,0,1,1-.37h2a2.34,2.34,0,0,1,1.15.22,1.35,1.35,0,0,1,.58.52,2.12,2.12,0,0,1,.26.66,3.57,3.57,0,0,0,.18.66,1.19,1.19,0,0,0,.36.52,1.28,1.28,0,0,0,.82.21h2.73a1.49,1.49,0,0,1,1.07.38,1.37,1.37,0,0,1,.39,1,1.45,1.45,0,0,1-.39,1.05,1.39,1.39,0,0,1-1.07.41h-4.25a2.26,2.26,0,0,1-1.1-.22,1.66,1.66,0,0,1-.59-.55,3.25,3.25,0,0,1-.31-.71,6.37,6.37,0,0,0-.25-.7,1.4,1.4,0,0,0-.41-.55,1.21,1.21,0,0,0-.8-.22Z"/><path class="cls-7" d="M150.76,35.74a2,2,0,0,1,2.14-2.39,3.74,3.74,0,0,1,.82.08,2.14,2.14,0,0,1,.71.3,1.42,1.42,0,0,1,.51.55,1.67,1.67,0,0,1,.18.81v.65a2.25,2.25,0,0,0,.58,1.63,2.06,2.06,0,0,0,1.53.59,2,2,0,0,0,1.48-.59,2.25,2.25,0,0,0,.58-1.66V30.08a.77.77,0,0,0-.1-.38.42.42,0,0,0-.38-.15h-.76a1.56,1.56,0,0,1-1.27-.51,1.84,1.84,0,0,1-.42-1.21,1.7,1.7,0,0,1,.47-1.25,1.63,1.63,0,0,1,1.22-.47h2.73a2.92,2.92,0,0,1,2.31.81,3.22,3.22,0,0,1,.7,2.21v6.69a5.9,5.9,0,0,1-.52,2.55,5.54,5.54,0,0,1-1.42,1.88,6.09,6.09,0,0,1-2.08,1.17,8.23,8.23,0,0,1-5.07,0,6.22,6.22,0,0,1-2-1.11,5.16,5.16,0,0,1-1.38-1.73,4.93,4.93,0,0,1-.51-2.25Z"/></g></g></svg>