<svg xmlns="http://www.w3.org/2000/svg" xmlns:xlink="http://www.w3.org/1999/xlink" viewBox="0 0 2046.91 521.18"><defs><style>.cls-1{opacity:0.62;}.cls-2{fill:#3f509f;}.cls-3{opacity:0.69;}.cls-4{fill:url(#linear-gradient);}.cls-5{fill:url(#linear-gradient-2);}.cls-6{fill:url(#linear-gradient-3);}.cls-7{fill:url(#linear-gradient-4);}.cls-8{fill:url(#linear-gradient-5);}.cls-9{fill:url(#radial-gradient);}.cls-10{fill:#fff;}.cls-11{fill:url(#linear-gradient-11);}.cls-12{fill:url(#linear-gradient-12);}.cls-13{fill:url(#linear-gradient-13);}.cls-14{fill:url(#linear-gradient-14);}.cls-15{fill:url(#linear-gradient-15);}.cls-16{fill:url(#radial-gradient-3);}.cls-17{fill:url(#linear-gradient-16);}.cls-18{fill:url(#linear-gradient-17);}.cls-19{fill:url(#linear-gradient-18);}.cls-20{fill:url(#linear-gradient-19);}.cls-21{fill:url(#linear-gradient-20);}.cls-22{fill:url(#radial-gradient-4);}.cls-23{fill:url(#linear-gradient-21);}.cls-24{fill:url(#linear-gradient-22);}.cls-25{fill:url(#linear-gradient-23);}.cls-26{fill:url(#linear-gradient-24);}.cls-27{fill:url(#linear-gradient-25);}.cls-28{fill:url(#radial-gradient-5);}.cls-29{fill:url(#linear-gradient-26);}.cls-30{fill:url(#linear-gradient-27);}.cls-31{fill:url(#linear-gradient-28);}.cls-32{fill:url(#linear-gradient-29);}.cls-33{fill:url(#linear-gradient-30);}.cls-34{fill:url(#radial-gradient-6);}.cls-35{fill:url(#linear-gradient-31);}.cls-36{fill:url(#linear-gradient-32);}.cls-37{fill:url(#linear-gradient-33);}.cls-38{fill:url(#linear-gradient-34);}.cls-39{fill:url(#linear-gradient-35);}.cls-40{fill:url(#radial-gradient-7);}.cls-41{fill:url(#linear-gradient-36);}.cls-42{fill:url(#linear-gradient-37);}.cls-43{fill:url(#linear-gradient-38);}.cls-44{fill:url(#linear-gradient-39);}.cls-45{fill:url(#linear-gradient-40);}.cls-46{fill:url(#radial-gradient-8);}.cls-47{fill:url(#linear-gradient-41);}.cls-48{fill:url(#linear-gradient-42);}.cls-49{fill:url(#linear-gradient-43);}.cls-50{fill:url(#linear-gradient-44);}.cls-51{fill:url(#linear-gradient-45);}.cls-52{fill:url(#radial-gradient-9);}.cls-53{fill:url(#New_Gradient_Swatch_1);}.cls-54{fill:url(#New_Gradient_Swatch_1-2);}.cls-55{fill:url(#New_Gradient_Swatch_1-3);}.cls-56{fill:url(#New_Gradient_Swatch_1-4);}.cls-57{fill:url(#New_Gradient_Swatch_1-5);}.cls-58{fill:url(#New_Gradient_Swatch_1-6);}.cls-59{fill:url(#New_Gradient_Swatch_1-7);}.cls-60{fill:url(#New_Gradient_Swatch_1-8);}.cls-61{fill:url(#New_Gradient_Swatch_1-9);}.cls-62{fill:url(#New_Gradient_Swatch_1-10);}.cls-63{fill:url(#New_Gradient_Swatch_1-11);}.cls-64{fill:url(#New_Gradient_Swatch_1-12);}.cls-65{fill:url(#New_Gradient_Swatch_1-13);}.cls-66{fill:url(#New_Gradient_Swatch_1-14);}.cls-67{fill:url(#New_Gradient_Swatch_1-15);}.cls-68{fill:url(#New_Gradient_Swatch_1-16);}.cls-69{fill:url(#New_Gradient_Swatch_1-17);}.cls-70{fill:url(#New_Gradient_Swatch_1-18);}.cls-71{fill:url(#New_Gradient_Swatch_1-19);}.cls-72{fill:url(#New_Gradient_Swatch_1-20);}.cls-73{fill:url(#New_Gradient_Swatch_1-21);}.cls-74{fill:url(#New_Gradient_Swatch_1-22);}.cls-75{fill:url(#New_Gradient_Swatch_1-23);}.cls-76{fill:url(#New_Gradient_Swatch_1-24);}.cls-77{fill:url(#New_Gradient_Swatch_1-25);}.cls-78{fill:url(#New_Gradient_Swatch_1-26);}.cls-79{fill:url(#New_Gradient_Swatch_1-27);}.cls-80{fill:url(#New_Gradient_Swatch_1-28);}.cls-81{fill:url(#New_Gradient_Swatch_1-29);}.cls-82{fill:url(#New_Gradient_Swatch_1-30);}.cls-83{fill:url(#New_Gradient_Swatch_1-31);}.cls-84{fill:url(#New_Gradient_Swatch_1-32);}.cls-85{fill:url(#New_Gradient_Swatch_1-33);}.cls-86{fill:url(#New_Gradient_Swatch_1-34);}.cls-87{fill:url(#New_Gradient_Swatch_1-35);}.cls-88{fill:url(#New_Gradient_Swatch_1-36);}.cls-89{fill:url(#New_Gradient_Swatch_1-37);}.cls-90{fill:url(#New_Gradient_Swatch_1-38);}.cls-91{fill:url(#New_Gradient_Swatch_1-39);}.cls-92{fill:url(#New_Gradient_Swatch_1-40);}.cls-93{fill:url(#New_Gradient_Swatch_1-41);}.cls-94{fill:url(#New_Gradient_Swatch_1-42);}.cls-95{fill:url(#New_Gradient_Swatch_1-43);}.cls-96{fill:url(#New_Gradient_Swatch_1-44);}.cls-97{fill:url(#New_Gradient_Swatch_1-45);}.cls-98{fill:url(#New_Gradient_Swatch_1-46);}.cls-99{fill:url(#New_Gradient_Swatch_1-47);}.cls-100{fill:url(#New_Gradient_Swatch_1-48);}.cls-101{fill:url(#New_Gradient_Swatch_1-49);}.cls-102{fill:url(#New_Gradient_Swatch_1-50);}.cls-103{fill:url(#New_Gradient_Swatch_1-51);}.cls-104{fill:url(#New_Gradient_Swatch_1-52);}.cls-105{fill:url(#New_Gradient_Swatch_1-53);}.cls-106{fill:url(#New_Gradient_Swatch_1-54);}.cls-107{fill:url(#linear-gradient-46);}.cls-108{opacity:0.39;}.cls-109{fill:#232323;}.cls-110{fill:#6d5151;}.cls-111{fill:url(#linear-gradient-47);}.cls-112{fill:url(#linear-gradient-48);}.cls-113{fill:url(#linear-gradient-49);}.cls-114{fill:url(#linear-gradient-50);}</style><linearGradient id="linear-gradient" x1="-206.79" y1="556.43" x2="-208.17" y2="828.27" gradientTransform="matrix(0.98, 0.2, -0.2, 0.98, 1577.95, -257.23)" gradientUnits="userSpaceOnUse"><stop offset="0.05" stop-color="#f6c9d9"/><stop offset="0.17" stop-color="#f1bccf"/><stop offset="0.38" stop-color="#e299b6"/><stop offset="0.66" stop-color="#cb628c"/><stop offset="0.68" stop-color="#c95c88"/><stop offset="0.73" stop-color="#c35f8c"/><stop offset="0.8" stop-color="#b16697"/><stop offset="0.87" stop-color="#9372a9"/><stop offset="0.92" stop-color="#7c7cb7"/></linearGradient><linearGradient id="linear-gradient-2" x1="-1494.99" y1="542.87" x2="-1494.43" y2="765.83" gradientTransform="matrix(0.33, 0.05, -0.14, 0.99, 1808.98, -184.39)" gradientUnits="userSpaceOnUse"><stop offset="0.05" stop-color="#fff"/><stop offset="0.84" stop-color="#68b9b1" stop-opacity="0.1"/></linearGradient><linearGradient id="linear-gradient-3" x1="8646" y1="715.52" x2="8646.57" y2="939.39" gradientTransform="matrix(-0.32, -0.08, -0.25, 0.97, 4243.17, 299.71)" xlink:href="#linear-gradient-2"/><linearGradient id="linear-gradient-4" x1="-2107.35" y1="666.91" x2="-2106.89" y2="845.13" gradientTransform="matrix(0.33, 0.06, -0.2, 0.98, 2066.92, -191.45)" xlink:href="#linear-gradient-2"/><linearGradient id="linear-gradient-5" x1="-207.03" y1="578.62" x2="-207.03" y2="634.42" gradientTransform="matrix(-0.02, 1, -1, -0.02, 1857.18, 514.62)" gradientUnits="userSpaceOnUse"><stop offset="0.05" stop-color="#f6c9d9"/><stop offset="0.17" stop-color="#f1bccf"/><stop offset="0.38" stop-color="#e299b6"/><stop offset="0.66" stop-color="#cb628c"/><stop offset="0.68" stop-color="#c95c88"/></linearGradient><radialGradient id="radial-gradient" cx="-496.45" cy="-512.68" r="124.73" gradientTransform="matrix(0, 0.88, -0.84, -0.03, 865.48, 718.05)" gradientUnits="userSpaceOnUse"><stop offset="0.05" stop-color="#f6c9d9"/><stop offset="0.13" stop-color="#f1bccf"/><stop offset="0.26" stop-color="#e299b6"/><stop offset="0.43" stop-color="#cb628c"/><stop offset="0.45" stop-color="#c95c88"/></radialGradient><linearGradient id="linear-gradient-11" x1="1801.23" y1="-84.74" x2="1799.85" y2="187.1" gradientTransform="matrix(-0.91, 0.41, 0.41, 0.91, 2768.1, -392.8)" xlink:href="#linear-gradient"/><linearGradient id="linear-gradient-12" x1="4627.39" y1="5.54" x2="4627.96" y2="228.49" gradientTransform="matrix(-0.31, 0.12, 0.36, 0.93, 2559.37, -269.87)" xlink:href="#linear-gradient-2"/><linearGradient id="linear-gradient-13" x1="2721.17" y1="-27.8" x2="2721.74" y2="196.07" gradientTransform="matrix(0.3, -0.15, 0.46, 0.89, 296.41, 749.28)" xlink:href="#linear-gradient-2"/><linearGradient id="linear-gradient-14" x1="3924.2" y1="25.74" x2="3924.65" y2="203.96" gradientTransform="matrix(-0.3, 0.14, 0.41, 0.91, 2306.45, -218.73)" xlink:href="#linear-gradient-2"/><linearGradient id="linear-gradient-15" x1="1800.99" y1="-62.55" x2="1800.99" y2="-6.75" gradientTransform="matrix(-1, 0.02, 0.02, 1, 2912.29, 313.31)" xlink:href="#linear-gradient-5"/><radialGradient id="radial-gradient-3" cx="1777.76" cy="-1238.76" r="124.73" gradientTransform="matrix(-0.88, 0, 0.03, 0.84, 2713.75, 1308.45)" xlink:href="#radial-gradient"/><linearGradient id="linear-gradient-16" x1="383.71" y1="1617.61" x2="382.65" y2="1826.97" gradientTransform="matrix(-0.7, 0.71, 0.71, 0.7, 177.62, -1048.89)" xlink:href="#linear-gradient"/><linearGradient id="linear-gradient-17" x1="134.71" y1="1623.53" x2="135.15" y2="1796.7" gradientTransform="matrix(-0.25, 0.22, 0.67, 0.74, 26.58, -859.51)" xlink:href="#linear-gradient-2"/><linearGradient id="linear-gradient-18" x1="6719.02" y1="1736.55" x2="6719.46" y2="1909.39" gradientTransform="matrix(0.22, -0.25, 0.74, 0.67, -1723.03, 900.76)" xlink:href="#linear-gradient-2"/><linearGradient id="linear-gradient-19" x1="-325.12" y1="1709.33" x2="-324.77" y2="1847.38" gradientTransform="matrix(-0.23, 0.24, 0.71, 0.7, -191.39, -721.4)" xlink:href="#linear-gradient-2"/><linearGradient id="linear-gradient-20" x1="383.53" y1="1634.03" x2="383.53" y2="1677.2" gradientTransform="matrix(-1, -0.01, -0.01, 1, 1478.45, -1261.47)" xlink:href="#linear-gradient-5"/><radialGradient id="radial-gradient-4" cx="-525.57" cy="0.52" r="124.73" gradientTransform="matrix(-0.68, 0, -0.01, 0.65, 727.27, 359.04)" xlink:href="#radial-gradient"/><linearGradient id="linear-gradient-21" x1="-1291.33" y1="2961.52" x2="-1292.39" y2="3170.88" gradientTransform="matrix(0.85, 0.53, -0.53, 0.85, 3987.39, -1482.86)" xlink:href="#linear-gradient"/><linearGradient id="linear-gradient-22" x1="-5097.1" y1="2879.76" x2="-5096.66" y2="3052.93" gradientTransform="matrix(0.29, 0.16, -0.49, 0.87, 4177.15, -1332.3)" xlink:href="#linear-gradient-2"/><linearGradient id="linear-gradient-23" x1="11536.74" y1="3164.61" x2="11537.18" y2="3337.45" gradientTransform="matrix(-0.27, -0.19, -0.58, 0.82, 6277.82, -10.61)" xlink:href="#linear-gradient-2"/><linearGradient id="linear-gradient-24" x1="-5356.5" y1="3053.25" x2="-5356.15" y2="3191.3" gradientTransform="matrix(0.28, 0.18, -0.53, 0.85, 4420.6, -1246.75)" xlink:href="#linear-gradient-2"/><linearGradient id="linear-gradient-25" x1="-1291.52" y1="2977.94" x2="-1291.52" y2="3021.11" gradientTransform="translate(4306.92 1632.03) rotate(89.5)" xlink:href="#linear-gradient-5"/><radialGradient id="radial-gradient-5" cx="-3002.41" cy="2089.23" r="124.73" gradientTransform="matrix(0, 0.68, -0.65, 0.01, 2686.51, 2387.93)" xlink:href="#radial-gradient"/><linearGradient id="linear-gradient-26" x1="1166.05" y1="193.6" x2="1164.41" y2="516.43" gradientTransform="translate(-9.88 138.18) rotate(-6.5)" xlink:href="#linear-gradient"/><linearGradient id="linear-gradient-27" x1="2674.04" y1="256.59" x2="2674.71" y2="523.08" gradientTransform="matrix(0.33, -0.05, 0.16, 0.99, 232.35, 137.13)" xlink:href="#linear-gradient-2"/><linearGradient id="linear-gradient-28" x1="4568.47" y1="289.19" x2="4569.14" y2="555.68" gradientTransform="matrix(-0.33, 0.02, 0.06, 1, 2698.27, -143.76)" xlink:href="#linear-gradient-2"/><linearGradient id="linear-gradient-29" x1="2022.25" y1="318.42" x2="2022.79" y2="531.1" gradientTransform="matrix(0.33, -0.04, 0.11, 0.99, 475.87, 51.79)" xlink:href="#linear-gradient-2"/><linearGradient id="linear-gradient-30" x1="1165.77" y1="219.09" x2="1165.77" y2="285.58" gradientTransform="translate(10.92 4.63)" xlink:href="#linear-gradient-5"/><radialGradient id="radial-gradient-6" cx="1162.78" cy="206.22" r="124.73" gradientTransform="translate(11.41 4.61)" xlink:href="#radial-gradient"/><linearGradient id="linear-gradient-31" x1="1169.59" y1="310.96" x2="1168.48" y2="529.24" gradientTransform="translate(-9.88 138.18) rotate(-6.5)" gradientUnits="userSpaceOnUse"><stop offset="0.14" stop-color="#f6c9d9"/><stop offset="0.26" stop-color="#f1bccf"/><stop offset="0.47" stop-color="#e299b6"/><stop offset="0.77" stop-color="#cb628c"/><stop offset="0.79" stop-color="#c95c88"/><stop offset="0.82" stop-color="#c35f8c"/><stop offset="0.85" stop-color="#b16697"/><stop offset="0.89" stop-color="#9372a9"/><stop offset="0.92" stop-color="#7c7cb7"/></linearGradient><linearGradient id="linear-gradient-32" x1="2691.09" y1="360.34" x2="2691.54" y2="540.52" gradientTransform="matrix(0.33, -0.05, 0.16, 0.99, 232.35, 137.13)" xlink:href="#linear-gradient-2"/><linearGradient id="linear-gradient-33" x1="4564.17" y1="392.5" x2="4564.62" y2="572.68" gradientTransform="matrix(-0.33, 0.02, 0.06, 1, 2698.27, -143.76)" xlink:href="#linear-gradient-2"/><linearGradient id="linear-gradient-34" x1="2033.25" y1="405.35" x2="2033.61" y2="549.15" gradientTransform="matrix(0.33, -0.04, 0.11, 0.99, 475.87, 51.79)" xlink:href="#linear-gradient-2"/><linearGradient id="linear-gradient-35" x1="1169.42" y1="318.39" x2="1169.42" y2="392.51" gradientTransform="translate(-9.88 138.18) rotate(-6.5)" gradientUnits="userSpaceOnUse"><stop offset="0.21" stop-color="#f6c9d9"/><stop offset="0.29" stop-color="#f1bccf"/><stop offset="0.45" stop-color="#e299b6"/><stop offset="0.66" stop-color="#cb628c"/><stop offset="0.68" stop-color="#c95c88"/></linearGradient><radialGradient id="radial-gradient-7" cx="1167.36" cy="1435.56" r="94.71" gradientTransform="matrix(0.99, -0.11, 0.15, 1.33, -192.89, -1468.39)" gradientUnits="userSpaceOnUse"><stop offset="0.05" stop-color="#f6c9d9"/><stop offset="0.17" stop-color="#f1bccf"/><stop offset="0.38" stop-color="#e299b6"/><stop offset="0.66" stop-color="#cb628c"/><stop offset="0.69" stop-color="#c95c88"/></radialGradient><linearGradient id="linear-gradient-36" x1="-519.38" y1="680.5" x2="-520.27" y2="856.83" gradientTransform="translate(1920.54 -181.68) rotate(13.65)" xlink:href="#linear-gradient-31"/><linearGradient id="linear-gradient-37" x1="-2422.51" y1="637.29" x2="-2422.15" y2="782.85" gradientTransform="matrix(0.33, 0.06, -0.19, 0.98, 2148.31, -99.22)" xlink:href="#linear-gradient-2"/><linearGradient id="linear-gradient-38" x1="9583.53" y1="842.68" x2="9583.9" y2="988.23" gradientTransform="matrix(-0.32, -0.1, -0.29, 0.96, 4560.08, 486.5)" xlink:href="#linear-gradient-2"/><linearGradient id="linear-gradient-39" x1="-3039.79" y1="762.68" x2="-3039.5" y2="878.84" gradientTransform="matrix(0.32, 0.08, -0.24, 0.97, 2406.32, -95.45)" xlink:href="#linear-gradient-2"/><linearGradient id="linear-gradient-40" x1="-519.51" y1="686.51" x2="-519.51" y2="746.38" gradientTransform="translate(1920.54 -181.68) rotate(13.65)" xlink:href="#linear-gradient-35"/><radialGradient id="radial-gradient-8" cx="-521.18" cy="1712.25" r="76.51" gradientTransform="matrix(0.97, 0.24, -0.32, 1.3, 2302.14, -1752.96)" xlink:href="#radial-gradient-7"/><linearGradient id="linear-gradient-41" x1="540.32" y1="293.4" x2="539.43" y2="469.73" gradientTransform="matrix(-0.89, 0.45, 0.45, 0.89, 1481.41, -131.65)" xlink:href="#linear-gradient-31"/><linearGradient id="linear-gradient-42" x1="815.99" y1="305.05" x2="816.36" y2="450.61" gradientTransform="matrix(-0.3, 0.13, 0.4, 0.92, 1278.02, -0.08)" xlink:href="#linear-gradient-2"/><linearGradient id="linear-gradient-43" x1="6464.3" y1="401.74" x2="6464.67" y2="547.29" gradientTransform="matrix(0.29, -0.16, 0.49, 0.87, -940.24, 1113.04)" xlink:href="#linear-gradient-2"/><linearGradient id="linear-gradient-44" x1="143.27" y1="375.58" x2="143.56" y2="491.75" gradientTransform="matrix(-0.3, 0.15, 0.45, 0.89, 1027.46, 61.61)" xlink:href="#linear-gradient-2"/><linearGradient id="linear-gradient-45" x1="540.19" y1="299.41" x2="540.19" y2="359.28" gradientTransform="matrix(-0.89, 0.45, 0.45, 0.89, 1481.41, -131.65)" xlink:href="#linear-gradient-35"/><radialGradient id="radial-gradient-9" cx="538.52" cy="1423.21" r="76.51" gradientTransform="matrix(-0.89, 0.45, 0.6, 1.2, 756.2, -1576.86)" xlink:href="#radial-gradient-7"/><linearGradient id="New_Gradient_Swatch_1" x1="2334.82" y1="1013.63" x2="2335.54" y2="974.28" gradientTransform="translate(-3014.87 -1744.42) scale(1.42 1.98)" gradientUnits="userSpaceOnUse"><stop offset="0.3" stop-color="#f38e26"/><stop offset="0.92" stop-color="#c73127"/></linearGradient><linearGradient id="New_Gradient_Swatch_1-2" x1="2991.18" y1="2543.41" x2="2991.91" y2="2504.06" gradientTransform="translate(-3927.43 -4761.87) scale(1.42 1.98)" xlink:href="#New_Gradient_Swatch_1"/><linearGradient id="New_Gradient_Swatch_1-3" x1="2567.31" y1="2285.09" x2="2567.87" y2="2254.98" gradientTransform="matrix(1.42, 0, 0, -1.98, -3312.09, 4762.53)" xlink:href="#New_Gradient_Swatch_1"/><linearGradient id="New_Gradient_Swatch_1-4" x1="4425.49" y1="3311.46" x2="4426.05" y2="3281.35" gradientTransform="matrix(1.42, 0, 0, -1.98, -5954.84, 6781.65)" xlink:href="#New_Gradient_Swatch_1"/><linearGradient id="New_Gradient_Swatch_1-5" x1="2524.67" y1="2292.32" x2="2525.4" y2="2252.97" gradientTransform="matrix(1.42, 0, 0, -1.98, -3287.03, 4813.83)" xlink:href="#New_Gradient_Swatch_1"/><linearGradient id="New_Gradient_Swatch_1-6" x1="4399.84" y1="3341.14" x2="4400.57" y2="3301.79" gradientTransform="matrix(1.42, 0, 0, -1.98, -5956.79, 6873.57)" xlink:href="#New_Gradient_Swatch_1"/><linearGradient id="New_Gradient_Swatch_1-7" x1="2290.03" y1="1016.05" x2="2290.47" y2="992.4" gradientTransform="translate(-2983.45 -1709.16) scale(1.42 1.98)" xlink:href="#New_Gradient_Swatch_1"/><linearGradient id="New_Gradient_Swatch_1-8" x1="2967.38" y1="2563.23" x2="2967.82" y2="2539.59" gradientTransform="translate(-3932.75 -4765.23) scale(1.42 1.98)" xlink:href="#New_Gradient_Swatch_1"/><linearGradient id="New_Gradient_Swatch_1-9" x1="4561.23" y1="2239.47" x2="4562.25" y2="2184.41" gradientTransform="translate(-6161.54 -9758.23) scale(1.41 4.56)" xlink:href="#New_Gradient_Swatch_1"/><linearGradient id="New_Gradient_Swatch_1-10" x1="2538.06" y1="1474.61" x2="2538.64" y2="1443.75" gradientTransform="matrix(0.09, -1.41, -1.98, -0.12, 2920.77, 4014.45)" xlink:href="#New_Gradient_Swatch_1"/><linearGradient id="New_Gradient_Swatch_1-11" x1="3596.55" y1="2758.24" x2="3597.09" y2="2729.12" gradientTransform="matrix(-0.95, -1.05, -1.47, 1.33, 7695.67, 395.06)" xlink:href="#New_Gradient_Swatch_1"/><linearGradient id="New_Gradient_Swatch_1-12" x1="2589.03" y1="1799.57" x2="2589.48" y2="1775.31" gradientTransform="matrix(0.48, -1.33, 1.86, 0.67, -4347.56, 2517.06)" xlink:href="#New_Gradient_Swatch_1"/><linearGradient id="New_Gradient_Swatch_1-13" x1="3957.79" y1="2958.85" x2="3958.24" y2="2934.75" gradientTransform="matrix(1.29, -0.59, 0.83, 1.8, -7303.07, -2694.91)" xlink:href="#New_Gradient_Swatch_1"/><linearGradient id="New_Gradient_Swatch_1-14" x1="2556.99" y1="1806.18" x2="2557.57" y2="1774.47" gradientTransform="matrix(0.48, -1.33, 1.86, 0.67, -4347.56, 2517.06)" xlink:href="#New_Gradient_Swatch_1"/><linearGradient id="New_Gradient_Swatch_1-15" x1="3939.41" y1="2982.13" x2="3940" y2="2950.64" gradientTransform="matrix(1.29, -0.59, 0.83, 1.8, -7303.07, -2694.91)" xlink:href="#New_Gradient_Swatch_1"/><linearGradient id="New_Gradient_Swatch_1-16" x1="2504.3" y1="1475.37" x2="2504.64" y2="1456.82" gradientTransform="matrix(0.09, -1.41, -1.98, -0.12, 2920.77, 4014.45)" xlink:href="#New_Gradient_Swatch_1"/><linearGradient id="New_Gradient_Swatch_1-17" x1="3577.53" y1="2772.79" x2="3577.85" y2="2755.29" gradientTransform="matrix(-0.95, -1.05, -1.47, 1.33, 7695.67, 395.06)" xlink:href="#New_Gradient_Swatch_1"/><linearGradient id="New_Gradient_Swatch_1-18" x1="5230.1" y1="2193.49" x2="5230.87" y2="2151.58" gradientTransform="matrix(-1.38, -0.29, -0.92, 4.46, 9464.8, -7891.63)" xlink:href="#New_Gradient_Swatch_1"/><linearGradient id="New_Gradient_Swatch_1-19" x1="2286.74" y1="1349.88" x2="2287.67" y2="1299.28" gradientTransform="translate(-3046.26 -2506.82) scale(1.42 1.98)" xlink:href="#New_Gradient_Swatch_1"/><linearGradient id="New_Gradient_Swatch_1-20" x1="3289.35" y1="2806.72" x2="3290.29" y2="2756.12" gradientTransform="translate(-4440.91 -5387.53) scale(1.42 1.98)" xlink:href="#New_Gradient_Swatch_1"/><linearGradient id="New_Gradient_Swatch_1-21" x1="2385.45" y1="1975.14" x2="2386.16" y2="1936.42" gradientTransform="matrix(1.42, 0, 0, -1.98, -3112.13, 4020.75)" xlink:href="#New_Gradient_Swatch_1"/><linearGradient id="New_Gradient_Swatch_1-22" x1="3986.16" y1="3190.19" x2="3986.88" y2="3151.47" gradientTransform="matrix(1.42, 0, 0, -1.98, -5398.28, 6416.31)" xlink:href="#New_Gradient_Swatch_1"/><linearGradient id="New_Gradient_Swatch_1-23" x1="2330.61" y1="1984.43" x2="2331.54" y2="1933.83" gradientTransform="matrix(1.42, 0, 0, -1.98, -3049.6, 4099.85)" xlink:href="#New_Gradient_Swatch_1"/><linearGradient id="New_Gradient_Swatch_1-24" x1="3953.18" y1="3228.35" x2="3954.12" y2="3177.75" gradientTransform="matrix(1.42, 0, 0, -1.98, -5372.19, 6549.66)" xlink:href="#New_Gradient_Swatch_1"/><linearGradient id="New_Gradient_Swatch_1-25" x1="2229.15" y1="1352.99" x2="2229.71" y2="1322.57" gradientTransform="translate(-2969.79 -2451.24) scale(1.42 1.98)" xlink:href="#New_Gradient_Swatch_1"/><linearGradient id="New_Gradient_Swatch_1-26" x1="3258.74" y1="2832.22" x2="3259.31" y2="2801.8" gradientTransform="translate(-4413.1 -5377.39) scale(1.42 1.98)" xlink:href="#New_Gradient_Swatch_1"/><linearGradient id="New_Gradient_Swatch_1-27" x1="5018.12" y1="2288.25" x2="5019.43" y2="2217.44" gradientTransform="translate(-6871.75 -10028.27) scale(1.41 4.56)" xlink:href="#New_Gradient_Swatch_1"/><linearGradient id="New_Gradient_Swatch_1-28" x1="2166.4" y1="1280.22" x2="2167.14" y2="1240.52" gradientTransform="matrix(-0.51, -1.32, -1.85, 0.71, 3604.58, 2128.83)" xlink:href="#New_Gradient_Swatch_1"/><linearGradient id="New_Gradient_Swatch_1-29" x1="3139.74" y1="2814.6" x2="3140.43" y2="2777.15" gradientTransform="matrix(-1.3, -0.56, -0.79, 1.82, 6442.08, -3148.32)" xlink:href="#New_Gradient_Swatch_1"/><linearGradient id="New_Gradient_Swatch_1-30" x1="2304.35" y1="2063.14" x2="2304.92" y2="2031.93" gradientTransform="matrix(-0.12, -1.41, 1.97, -0.17, -3628.23, 3789.36)" xlink:href="#New_Gradient_Swatch_1"/><linearGradient id="New_Gradient_Swatch_1-31" x1="4019.17" y1="3291.01" x2="4019.74" y2="3260.02" gradientTransform="matrix(0.92, -1.07, 1.5, 1.29, -8483.34, 278.3)" xlink:href="#New_Gradient_Swatch_1"/><linearGradient id="New_Gradient_Swatch_1-32" x1="2263.14" y1="2071.63" x2="2263.89" y2="2030.85" gradientTransform="matrix(-0.12, -1.41, 1.97, -0.17, -3628.23, 3789.36)" xlink:href="#New_Gradient_Swatch_1"/><linearGradient id="New_Gradient_Swatch_1-33" x1="3995.53" y1="3320.95" x2="3996.28" y2="3280.46" gradientTransform="matrix(0.92, -1.07, 1.5, 1.29, -8483.34, 278.3)" xlink:href="#New_Gradient_Swatch_1"/><linearGradient id="New_Gradient_Swatch_1-34" x1="2122.98" y1="1281.19" x2="2123.42" y2="1257.33" gradientTransform="matrix(-0.51, -1.32, -1.85, 0.71, 3604.58, 2128.83)" xlink:href="#New_Gradient_Swatch_1"/><linearGradient id="New_Gradient_Swatch_1-35" x1="3115.28" y1="2833.32" x2="3115.7" y2="2810.81" gradientTransform="matrix(-1.3, -0.56, -0.79, 1.82, 6442.08, -3148.32)" xlink:href="#New_Gradient_Swatch_1"/><linearGradient id="New_Gradient_Swatch_1-36" x1="4905.77" y1="2306.21" x2="4906.76" y2="2252.33" gradientTransform="matrix(-1.38, 0.32, 1.02, 4.44, 4605.23, -11420.26)" xlink:href="#New_Gradient_Swatch_1"/><linearGradient id="New_Gradient_Swatch_1-37" x1="2242.41" y1="1289.23" x2="2243.14" y2="1249.89" gradientTransform="translate(-3105.46 -2389.05) scale(1.42 1.98)" xlink:href="#New_Gradient_Swatch_1"/><linearGradient id="New_Gradient_Swatch_1-38" x1="3201.5" y1="2783.54" x2="3202.23" y2="2744.19" gradientTransform="translate(-4444.24 -5344.54) scale(1.42 1.98)" xlink:href="#New_Gradient_Swatch_1"/><linearGradient id="New_Gradient_Swatch_1-39" x1="2371.4" y1="2038.8" x2="2371.95" y2="2008.69" gradientTransform="matrix(1.42, 0, 0, -1.98, -3230.69, 4156.43)" xlink:href="#New_Gradient_Swatch_1"/><linearGradient id="New_Gradient_Swatch_1-40" x1="4042.65" y1="3239.3" x2="4043.21" y2="3209.2" gradientTransform="matrix(1.42, 0, 0, -1.98, -5612.85, 6525.3)" xlink:href="#New_Gradient_Swatch_1"/><linearGradient id="New_Gradient_Swatch_1-41" x1="2328.75" y1="2046.02" x2="2329.48" y2="2006.68" gradientTransform="matrix(1.42, 0, 0, -1.98, -3182.07, 4217.93)" xlink:href="#New_Gradient_Swatch_1"/><linearGradient id="New_Gradient_Swatch_1-42" x1="4017" y1="3268.98" x2="4017.73" y2="3229.63" gradientTransform="matrix(1.42, 0, 0, -1.98, -5592.56, 6628.99)" xlink:href="#New_Gradient_Swatch_1"/><linearGradient id="New_Gradient_Swatch_1-43" x1="2197.63" y1="1291.65" x2="2198.07" y2="1268" gradientTransform="translate(-3045.99 -2345.83) scale(1.42 1.98)" xlink:href="#New_Gradient_Swatch_1"/><linearGradient id="New_Gradient_Swatch_1-44" x1="3177.7" y1="2803.36" x2="3178.13" y2="2779.71" gradientTransform="translate(-4422.62 -5336.65) scale(1.42 1.98)" xlink:href="#New_Gradient_Swatch_1"/><linearGradient id="New_Gradient_Swatch_1-45" x1="4930.4" y1="2284.76" x2="4931.42" y2="2229.7" gradientTransform="translate(-6875.41 -10065.98) scale(1.41 4.56)" xlink:href="#New_Gradient_Swatch_1"/><linearGradient id="New_Gradient_Swatch_1-46" x1="2196.58" y1="1331.23" x2="2197.15" y2="1300.36" gradientTransform="matrix(-0.51, -1.32, -1.85, 0.71, 3604.58, 2128.83)" xlink:href="#New_Gradient_Swatch_1"/><linearGradient id="New_Gradient_Swatch_1-47" x1="3214.51" y1="2832.54" x2="3215.05" y2="2803.42" gradientTransform="matrix(-1.3, -0.56, -0.79, 1.82, 6442.08, -3148.32)" xlink:href="#New_Gradient_Swatch_1"/><linearGradient id="New_Gradient_Swatch_1-48" x1="2316.8" y1="2005.35" x2="2317.25" y2="1981.09" gradientTransform="matrix(-0.12, -1.41, 1.97, -0.17, -3628.23, 3789.36)" xlink:href="#New_Gradient_Swatch_1"/><linearGradient id="New_Gradient_Swatch_1-49" x1="3972.6" y1="3242.08" x2="3973.05" y2="3217.99" gradientTransform="matrix(0.92, -1.07, 1.5, 1.29, -8483.34, 278.3)" xlink:href="#New_Gradient_Swatch_1"/><linearGradient id="New_Gradient_Swatch_1-50" x1="2284.75" y1="2011.96" x2="2285.34" y2="1980.25" gradientTransform="matrix(-0.12, -1.41, 1.97, -0.17, -3628.23, 3789.36)" xlink:href="#New_Gradient_Swatch_1"/><linearGradient id="New_Gradient_Swatch_1-51" x1="3954.22" y1="3265.36" x2="3954.81" y2="3233.88" gradientTransform="matrix(0.92, -1.07, 1.5, 1.29, -8483.34, 278.3)" xlink:href="#New_Gradient_Swatch_1"/><linearGradient id="New_Gradient_Swatch_1-52" x1="2162.81" y1="1331.99" x2="2163.16" y2="1313.43" gradientTransform="matrix(-0.51, -1.32, -1.85, 0.71, 3604.58, 2128.83)" xlink:href="#New_Gradient_Swatch_1"/><linearGradient id="New_Gradient_Swatch_1-53" x1="3195.49" y1="2847.1" x2="3195.81" y2="2829.59" gradientTransform="matrix(-1.3, -0.56, -0.79, 1.82, 6442.08, -3148.32)" xlink:href="#New_Gradient_Swatch_1"/><linearGradient id="New_Gradient_Swatch_1-54" x1="4983.11" y1="2289.9" x2="4983.88" y2="2248" gradientTransform="matrix(-1.38, 0.32, 1.02, 4.44, 4605.23, -11420.26)" xlink:href="#New_Gradient_Swatch_1"/><linearGradient id="linear-gradient-46" x1="1706.43" y1="-590.13" x2="1708.56" y2="-268.74" gradientTransform="translate(153.4 940.37) rotate(-14.04)" gradientUnits="userSpaceOnUse"><stop offset="0.26" stop-color="#ac807b"/><stop offset="0.99" stop-color="#7a4154"/></linearGradient><linearGradient id="linear-gradient-47" x1="1841.51" y1="-258.96" x2="1848.38" y2="-258.96" gradientTransform="translate(153.4 940.37) rotate(-14.04)" gradientUnits="userSpaceOnUse"><stop offset="0" stop-color="#988279"/><stop offset="1" stop-color="#7c515d"/></linearGradient><linearGradient id="linear-gradient-48" x1="1849.92" y1="-474.56" x2="1851.47" y2="-225.33" gradientTransform="translate(153.4 940.37) rotate(-14.04)" gradientUnits="userSpaceOnUse"><stop offset="0.07" stop-color="#bea497"/><stop offset="0.99" stop-color="#a26d7e"/></linearGradient><linearGradient id="linear-gradient-49" x1="1749.32" y1="-292.76" x2="1833.07" y2="-292.76" xlink:href="#linear-gradient-48"/><linearGradient id="linear-gradient-50" x1="1889.65" y1="-282.79" x2="1955.73" y2="-282.79" xlink:href="#linear-gradient-48"/></defs><g id="Layer_2" data-name="Layer 2"><g id="BG"><g class="cls-1"><path class="cls-2" d="M878.68,341.16c-10.58-8.58-19.12,6.31-30.74,1.27,1.94-6.12,6.37-12.83,9.49-18.82,5.56-10.7,9.38-1.36,17.29-6.32,2.56-1.6,2.46-7.1,4.68-9.28,1.58-1.56,6.91-3.76,9.26-5.35,3.83-2.61,20.59-11.16,10.74-15.75-5,7.91-14.11,16.44-23.67,16.8-2.62-11.14-4.52-24.63-11.05-34.53C860,271.81,866,284.82,867.41,289c3,9,6.44,14.36,3.53,23.27-14.59.25-10.72-12.74-18.22-21.39-10.21,3.37,1.81,15.57,1.5,21.48-.36,7-5.11,18.27-8.6,23.88-3.79-1.13-12.5-5.55-15.42-2.67,2.38,2.48,10.17,5,11.7,8.36.62,1.35.13,5.36-.54,8.94-12.5,15.75-7.91-3.25-18.86-11.38-7.1,5.81,2.73,11.41,4.36,17.16,2.54,9-3.67,22.44-6.76,30.73-1.54-1.94-9.26-20.25-10.16-8.51-.24,3.14,4.81,6.65,5,10,.25,4.22-1.54,4.83-3.52,8.67-4.79,9.27-5.89,13-15.7,14.56-11,1.78-7.14-1.27-14.61-7.32,3.44-5.39,13.32-8.58,15.84-14.36,2.09-4.83.86-17.36-6.82-13.65,1.43,9.65,1.24,11.29-5.53,17.79-3.44,3.31-6.69,6.64-10.13,9.82-5.18-4.42-12.72-8.19-16.12-7.8-13.23,1.53-12.39,20.06-29.84,12,3.6-7.28,10.62-12.29,15.94-18.17,6-6.65,6.43-13.49-2.11-7.33-11.85,8.52-19.12,22.95-33.08,29.34-3.77,1.73-14.42,4.24-16.08-2.25-1.18-4.56,6.9-9.79,9.07-13.32,2.58-4.19,6-12.63-2.47-10-1.91.6-8.8,10.79-11.06,12.83-7.27,6.56-9.39,8.31-14.42-.32-.53-.91-1.1-1.9-1.65-2.95,1.31-11.34,2-22.89,3.18-34.18,4.57-4.55,8.19-6,13.2-2.46,6.11,4.35,1.68,14.7,10,16.85,1.06-7.81-2.87-14.34,4.35-19.75,3.52-2.64,18-5.26,21.62-.94s-4.55,13.13-4,18.48c1.7,15.11,8.22-3.85,10.42-7.75,9.31-16.47,19.58-16.21,31.53-4.33,6,5.92,8.54,12.22,17,8.7,5.07-2.1,11.81-10.68,14.37-15.18-8.94-5.53-9.57,8.27-16.64,8.29-4.32,0-15.6-11.18-15.23-14.42,7.63-1,41.43-16.48,51.31-28.65,3.42-.76,6.9-1.06,10.54-2.19,3.91-1.21,17.69-6.08,19.66-9.53,6.81-11.92-17.67,1.92-20.94,1.57-5.47-.58-10.53-7.63-10.51-11.92,0-2.48,4.48-15.77,5.6-17.63,4-6.64,8.67-3.77,15.69-5.42,6-1.42,16.29-12.89,16.15-21.55,2.74-4.72,6.73-9.29,10.82-9.9,6.73-1,16.85,5.67,21.84,9.43,1.7,1.29,5.84,7.52,8.1,4.18,1.61-2.4-2.76-6.11-4.34-7.51-6.22-5.51-15-7.85-22.69-10.55.86-11.86,12.06-11.18,20.93-11.2,3.4,0,11.44,1.94,14.32.46,3.28-1.69,2.37-4.77,1.94-8.56-10.19-.78-23.07,2.41-33.41,3.74-.63-12.56,11.29-24.28,13.94-36.57,1.37-6.37.13-7.47-5.17-11.44-1.44-1.08-8.32-7.4-9.92-4.9-.62,1,7.59,9.46,8.09,11.88,1,4.86-1,8.44-3,12.88-1.87,4.15-3.85,8.08-5.65,12.12a8.1,8.1,0,0,0-2.41-5.35c-1.61-1.67-4.76-2.07-6.17-3.76-2-2.44-1.18-1.81-1.64-5.25-.67-5.09.76-10.4,0-15.45-.84-5.6-6.38-8.92-7.15-14.46-.21-1.49,4.3-13.81-.63-10.69-1.23.79-3.89,10.62-3.7,12,.62,4.61,6,7.69,7,12.5.79,3.51,1.35,12.06-.2,15.36-2.79,6-4.12,2.62-8.87.63a90.07,90.07,0,0,0-12.21-3.64c-2.18,4.87,13.46,7.6,17.93,9.27,6.69,2.5,14,5.45,16.5,12.36a10.17,10.17,0,0,1,.31,1,15.42,15.42,0,0,1,.46,2.13l-2,0c-.62,1.77-1.19,3.59-1.67,5.49-1.47,5.83,0,10.36-5.59,13.74s-11.69-2.29-14.95,3.36c3.26,5.78,10.41-.62,8.73,8.17a10,10,0,0,1-1.46,3.42c-6.63,4.79-7.22,18.53-14.76,22.35-12,6.08-13.9-3.22-12.69-12.39,1.17-8.83,2-3.55,6.69-9.06,2.33-2.74,3.13-8.84,4.68-12.16,2.75-5.88,8.76-21.71,15.65-22.63a11.52,11.52,0,0,0-8.25-2.63c-2.65,9.73-8.28,24.44-16.92,30.3-6.69-3.73-11.83-15.41-16.71-21.57-9.59,6.89,5.45,12.26,8.17,18.83,3.15,7.59.69,27.43-3.44,34.93a24.35,24.35,0,0,1-6.81-6.22c-1.62-6.34-6.72-11.21-9.67-16.35-3.23-5.62-1.65-14-.72-20.05.88-5.81.79-14.25,3.33-19.59,3.44-7.25,13-9.63,20.61-10.89-.37-8.81-15.6,1.14-19.54,2-.72-4,1.69-18.76,3.83-22.6,4.89-8.75,21,2.31,15.27-12.57-4.81,2.6-18.24,3.85-21.32,8.34-2.82,4.1,3.24,19.22-5.52,15.08-3.06-1.44-6.17-15.18-10.61-12.9-5.24,2.69,4.64,9.55,6.08,11.15,8.11,9.06,1.22,20.08,1,31.15-.18,7.44,4.64,21.34.84,28.32-3.41,6.27-15-.4-20.88-1.39a14,14,0,0,0-1.5,5c3.64-1.36,9.92.75,13.67,1.16,1.32.15,2.72.27,4.11.43l-.3.07,6.59,1.43c-.08.29-.16.6-.24.95a38.82,38.82,0,0,1,10.06,9.05c.63.78,1.24,1.59,1.82,2.42,4,5.7,6.76,12.25,6.72,17.84-.06,9.55-.09,19.66-.48,29.33l.41-.3q0-.74.09-1.44a2,2,0,0,1,1.89.18h0l.18.12L807,320.44l-.35.79c.09-1.59.17-3.19.24-4.82-7.85,5.62-14.79,15.15-24.09,16.28-15.75,1.91,5.19-22.28-4.91-27.25,0,7.45-3.69,21.16-8.24,26.77-4.17,5.14-19.22,12.05-25.34,10.84,1.54-6,6.81-13.15.5-18.91-3,6.3-2.78,14.14-8.55,18.28-5.45,3.92-17.85,4.59-24.05,3.21,1.27-4.34,2.53-8.58,2.64-13-6.1-2.28-4.88,4.94-7.52,8.35s-7.47,5.71-11.53,7.78c-5.59,2.85-17.5,2.08-17.52-2.91l-.3.51c.68-4,1.49-7.9,2.49-11.73,2.56-9.79,4.93-9.5,14.42-11.38,13.69-2.72,26.24-7.68,39.71-10.95,7.5-1.81,15.81,3.22,22.32,1.49,10.61-2.82-.19-7.87-4.93-11.13,8.22-8.75,21.49-11.07,28.2-23.56-6.66-7.6-16.84,7.91-23.82,9.56-.13-3.23-.08-7.25-1.59-10.34-5.51,3.73-4.16,14-9.46,18.92-2,1.89-12.51,7-14.78,6.27-4.45-1.38-2.94-6.73-3.29-10.86-5.49,3-1.31,11.06-6.11,14.65-3.81,2.85-24.75,1.47-29.06-.66,2-4,3.42-16.84,7.27-19.17,2.41-1.45,7.26,1,10.32-.23,2.56-1.06,3.81-4.05,5.84-5.76,6.38-5.34,11.71-13.1,19.69-13.39,4.82-.17,13.4,5.91,13.92-3.43-4.1-2.23-9-4.34-12.5-6.92,6.57-6,11.47-19.1,19.2-23.46,4.65-2.62,17.2,2.68,15.53-6.7-3.38-1-6.76-1.9-9.66-3.78,3-5.55,17.27-22.76,9.8-26.5-4.59,6.08-8.17,13.2-13.12,19.1-.74-6.82-2.38-19.19-8.45-23-1.86,14,15,35.11-3.64,44.3a31.61,31.61,0,0,0-4.3-10.08c-7.5,5,.37,14.13-2.41,20.43-2.42,5.49-12.11,12.64-16.37,17.35-5.23,5.79-9.19,12.13-16.36,12.75-10.69.92-20.68-4.6-13.3-15,4.7-6.62,21.72-9.29,21.58-19.16-4.14-.57-9.84,2.57-14.13,4.59.89-5.73,3.83-10.83,6.21-16.08,4.27-9.41,4.88-7.68,14.55-11.89,4.47-1.95,19-9.15,8-11.69-5.67-1.31-13.32,6.94-19.4,6.13,1.11-5.33,5.52-12.9,8.62-17.56.94-1.41,5.19-5.88,8.65-10.13l-.12.28,4.06-5.39c6.3-4.33,16,.76,21.84,3.92,7.31,3.94,7.89-1.21,2.82-7-4.85-5.54-10.34-5.72-17.12-5.6-.65-14.75,15.23-11.95,25.74-9.87,5,1,9.24,4.27,13.91,5.32,6.88,1.54,8.68-4.12,11-10.4-5.72,1.3-8.08,4.37-13.79,3.69-4.71-.56-9.86-3.09-14.45-4.44a35,35,0,0,0-15.82-1.31c-7,.91-9.24,3.12-9.72-4.82-.39-6.35,1.42-12.45,6.94-14.94,7.23-3.26,7.09,3.1,13.22,4.3,8.34,1.64,2.11-3.52-1.34-6-3.65-2.65-6.54-6.38-11.5-6.88-6.6-.67-5.44,5.24-12.12,6.35-7,1.16-8-4.9-10-10.38-1.27-3.54,0-4.87-3.72-6.75-2.09-1-6.24-1.49-7.56,1.08-.66,1.3,5.26,12.41,7,15,4.07,5.86,10.76,5.78,12.12,14,.6,3.68,1.16,21.54-3.39,24.29-3.62,2.18-11.56-4-13.06-7.85-2.59-6.67,3.8-14.61-7.63-16-10.44-1.24,0,5.08.89,10.28.69,3.93-1.2,6,1.2,9.29,1.65,2.26,7.08,5.18,9.42,6.77,3.61,2.44,6.58,3.88,7.94,5.5a35.23,35.23,0,0,0-2.54,3.1,67.9,67.9,0,0,0-5,8.31c-3.15.67-3.5-5-8-8.51-1,2.1,3.17,10.09,5.12,14.12-3.5,7-7.12,13.94-12.92,18.76.66-9.88,5.1-21.69,3-31.27a2.36,2.36,0,0,0-2.59.43c-1.28,10.17-1.08,26.92-5.52,35.69-2.26-4-3.53-9.38-6.89-12.43-5,7.91,4.91,14.69,5.19,22.55.1,2.84-1.26,7.58-3.25,12.61-5.73-11.4-9.14-28.37-8.71-37.16.52-10.62,5-22,8.12-32.21,2.55-8.25,4.51-12.26-4.63-15.91-.29,4.95,1.69,26.6-7,18.77-5.7-5.16-4.2-21.32-7.08-29.24,2,.07,4.14.61,6.28.29,4.45-.65,7.89-3.39,10.71-6.76,2.22-2.67,5.8-9.84-1.86-7.2-4.2,1.44-3.22,8.67-9.31,9.33-11.54,1.25-5.25-12-3-17.08,1.59-3.63,2.93-7.86,6.17-10.4s12-1.94,11.18-6.68c-7.78,3.37-13.58.23-18.16,8.81-1.35,2.52-3,10.7-7,9.31-4.56-1.59.13-7.88.14-10.78,0-9.16-10.26-8.74-17.25-11.78-2.38-1-9.11-3.1-10.46-5.31-1.45-2.37-.32-8.44-.39-11.36-3.11.19-4.06,5.27-4.63,8.32-.9,4.92-1.32,5.52,2.9,8.55,5.73,4.13,16,5.65,22.56,8.13A53,53,0,0,1,656,124.88c-2.59-.69-12.78-5.44-14-1.87-1.41,4.2,10.44,5,12.77,5.58,7.8,2,10.31,3.08,10.66,10.49.17,3.43-.15,7.32.56,10.49h0c-1.38,13.62,12.38,32.26,13.21,42.94-6.42-.9-21.57-18.69-14.95-3.56,2.17,5,7.47,7.17,10.22,11.09,2.25,3.22,3.2,8.65,4,13,1.9,10.4,2.49,20.67,5.64,30.94a60.26,60.26,0,0,0,2.84,8.15c-2.44,4.71-5,8.74-7,10.54-5.81,5.31-13.87,2.91-11.18-5.16,1.86-5.58,11.61-9.53,6.39-16-4.81,3.62-15.71,22.63-19.1,10.14-1.7-6.26,3.4-16.93,3-23.81-.41-6.66-2.8-4.92.57-11.6,1.61-3.19,7.26-9.17,6.79-12.88-1.17-9.24-13.27,14.11-14.72,16.37-6-2.74-7-11.66-10.8-16.49l.41,2.21c-.32-.17-.33,1.07-.8-.2,0-.79.07-1.59.08-2.39-.13-.16-.27-.3-.4-.45a6,6,0,0,0,.11-2.32l.32,1.69c.12-6.78-.22-13.92-.1-20.78.09-4.71,0-7.54,4.16-10.43,5.14-3.6,4.29-2.59,3.76-8.72-3.38,1.75-6.66,4.37-10.58,4.29-.57-3.53-2-10.59-.58-14,1.92-4.69,9.42-7.74,13.17-10.86-2.88-4.93-8.89.57-12.42,2.45-2.91,1.55-3.65,2.79-6,1.26-2.09-1.33-4.37-7.49-5.3-9.68-3.28-7.75-1.62-13.26-10.52-14.75-2.78-.46-12.4-3.26-13.46.33,6.5,4.54,13.72,1.28,16.17,10.46,1.89,7.08,6.36,14.9,7.23,22-5.43-.83-11.45-5.21-15.65-8.52-4.72-3.72-2.09-9.58-7.89-11.17-.11,3.49.33,7.45.29,11.12,5.82,2.23,16.52,21.28,24.37,14.45,3.5,4.11,3.78,17.44,3.5,23-2.8.1-10.63-3.28-12.65-5.6-3.75-4.32-1.5-7.86-8.07-8.74-3.41-.45-11.66.19-5.62,3.68,4.81,2.78,6.69-1.8,9.77,5.19,2.3,5.2,1.69,6,7.46,8,3,1.07,6.77,1.38,9.56,2.9,4.09,2.25,4.14,5.14,4.34,10.15.09,2.08-.1,3.24.19,4-1.89,8.77,13,20.31,15.25,27.35,2.75,8.47-2.15,19.5-1.19,28.71,1.13,10.79,6.88,9.91,15,15.38,9.9,6.64,6.41,13.43,3.42,23.16Q665.26,306,662,315.24c-4.16-6-7-13.07-11.17-19-4.88-6.9-8.73-10.3-10.05-19-.75-4.91,1.22-19.67-1.66-23.59-4.94-6.74-3.06,12.57-4.23,15.82-3.17-5.21-4.78-14.46-5.56-20.44-.48-3.59.46-17.85-3.66-19.93-7.5-3.78,3.56,22.19-12.31,17.33-7.1-2.18-8-4.84-7.71-11.83.3-6.58-1-9,4.49-12.31,2.55-1.54,11.4-2.67,9.05-8.31-1.75-4.19-9.46,1-13.09,1.45-1.57-6.26,7.12-27.38-5.58-27.11-.61,4.56,1.82,13.53-.54,17.52-3.26,5.55-8.48-1.79-11.92-5.88-.2.47-.39.95-.58,1.43l0-1.14a19.81,19.81,0,0,0-1.08,1.69c.28-1.46.61-2.88,1-4.21l.08,2.52c.14-.2.27-.38.41-.55l.21.26c2.29-5.39,5.28-10.44,6.29-16.31-7.36-4.48-10.19,6.46-11.46,12.7-5.09-2.18-12.85-17.32-10.62-21.84,2-4.09,8-6,10.82-9.36,2.38-2.88,3.12-5.8,4.1-9.42-7.25-3.05-11.14,12.17-19.14,13.77-1.61-5.1-.19-20.83,3.09-26.49,2-3.43,7.21-6,11.19-7.07,1.59-.44,3.53-1.63,5.19-.87,1.27.59,1.48,3.27,1.81,3.4,3.18,1.27,3,1,3-3.8,0-4.47-.55-5-4.65-6.71-8.81-3.75-12.4,8.18-20.69,7.2.38-3.76,1.79-9.69,1.31-14.09,2.49-4.51,6.3-9.65,9.12-11.15,4.61-2.44,21.35-4.05,26.16-2.1,4.95-7.23-22.59-5.33-27.34-3.93-1.73-4.62,1.31-10.51-.2-14.48-1.37-3.57-8.35-5.87-11.9-7.57-4.06,4.56,3.22,4.08,5.33,7,2.46,3.44.94,10.2.54,14-.31,2.93-2.63,8.14-4.28,13.12l-.31-.17c-2.81-1.41-7.73-.71-10.88-1.4-2-.43-4.77-2.15-6.78-2-10.85.71,3.39,6.19,7.21,7.58,5.8,2.1,5.84,2.47,5.86,9.2,0,7-1.54,14.08-2.17,20.84-3.56.56-8.86-1.91-11-5.08-1.88-2.82,0-11.8-5.78-10.83-4,.68-2.9,10-1.47,12.87,2,4.14,7.6,6.31,11.88,8.81,10.1,5.88,7.6,10.94,9.83,21.61.7,3.33,5,7.74,5,11.42,0,6.25-8,5.27-13.36,6.59-4.23-4.66-4.64-18.31-9.44-21.07-5.72-3.29-2,8.87-1.58,11.46.51,3.43.36,9,2,12.11,2.64,5,5.14,3.09,10.83,2.49,5.5-.59,15.32-2.65,19.61.88,3.09,2.55,4.56,7.52,4.19,11.21-.37,3.51-4.65,6.59,1.91,7.85,2.48-3.86,3.41-9.15,4.3-14.31,4.61,4,11.55,8.44,13.09,14.56,1.65,6.56-1.62,16.12-1.6,23.1-7,.66-11.58-7.6-16.13-11.89-6.7,7-2.57,13.26,4.31,17.48,2.47,1.52,7.58,4.89,10.33,4.95,3.72.1,5-3.34,8.73-3.43,2.75-.07,11.31,6.43,13.39,8.42,4.06,3.89,3.63,3.49,1.63,8.7-5.55,14.51-12.76,3.68-22.59-1.22-3.63,3.14-1.1,5.86,1.35,8.76,1.88,2.24,9.93,10.23,12.9,10.47,9.84.79,8.64-15.4,18.27-6.49C635.2,284.89,636,292,640,298.51c3.3,5.36,7.31,10.47,10.26,16,2.26,4.27,2.46,13.91,6,16.89.07-.11.14-.22.2-.33-1.44,4-2.89,8-4.31,12.07q-1.17,3.31-2.42,6.65c-8.84.66-15-11.49-15.78-18.61-.87-8.17,5.48-21.43-5.34-27-3.76,10.35-.41,22.8.06,33.47-10.15.06-9-17.22-11.42-23.64-3-7.78-10.91-14-19.49-15.63,3.65,5.78,13,13,10.22,20.39-4.18,11.23-14.28-5.3-19.8,5.16,7.14,4.82,17.35,3.92,23.81,10,3.71,3.49,4.6,10.24,8.61,13.41s9.28.81,7.59,7.24c-2.07,7.88-8.64,1.73-13,4.38-4.08,2.5-3.31,7,2.81,7.69,11,1.21,17.63-20.13,26.83-4.14-3.76,9.52-7.67,19.1-11.31,28.72-11.91-.19-25.2-7.39-35.6-12-7.25-3.19-12.92-3.92-12.85-11.86s7.5-12.89,8.8-19.5a14.32,14.32,0,0,0-5.72-1.77c-2.85,11-16.75,25.16-16.28,5.6.3-12.78,3.47-26.45,5.84-39.07a8.93,8.93,0,0,0-1.38-.67,38,38,0,0,0,10.35-10.22c6-9.68-8-10.38-10.4,1-3.19-1.51-12.66-10-13.56-13.79-1.12-4.69,5.29-9.9,8.88-14.34,3.2-4,8.89-13.76-.9-9.44-2.1.92-9.06,12.54-10.54,14.85,1.3-17.35-10.29-28.66,2.13-44.05,2.31-2.85,8.08-6.67,7.13-10.92-1.62-7.18-6.51-2.9-9.68-.2-9.4,8.06-7.31,23.91-12.29,34.61-3.49-1.44-6.31-8.23-9.65-9.29-4.21-1.32-7.25,0-4.63,5.18,1.62,3.22,6.23,3.38,8.81,5.52,3.26,2.69,3.5,5.83,7.32,7.73-1.87,12.77,6.18,27.4-13.68,19.59,4.87,14.07,11.17,3.11,20.82,7.16,5.13,2.14,11,11.72,14.15,17.73a2.08,2.08,0,0,0,.74.38c-.07.2-.15.41-.21.62.2.38.38.75.56,1.1l-.57-1.08c-4.21,12.67-.59,33.88-18.68,16.22-2-2-18-20.71-25-20.8-3.26-2.55-14.73-11.88-14.62-16.77.08-3.32,1.74-11.79,3.48-14.64,2.21-3.62,9.84-5.67,13.43-7.84A11.35,11.35,0,0,1,528,264.4c-5.76.15-11.74,5.31-17.41,6.29-1.77-6.94.24-16.17.93-23.17.4-4.13,0-11.19,2.71-14.06s14-6.13,17.91-6.26c4.41-.15,6.66,2.54,8.93,6.26a26,26,0,0,0,3.84-4.8c-3.07-4.19-7.54-11-12.68-10.91-7.51.12-12.37,6.57-19.18,7.84-1.21-9.74,14.05-15.88,14.43-25.8.24-6.18,3.41-25-6.82-25.54-1.92,7.31,2.31,16.11.43,23.6-1.09,4.33-11.79,14.54-16.84,16.32-.48-3.72-4.17-20.09-7.53-21.62-5.29-2.41-1.87,7.86-1.45,9.39,1.4,5,3.57,9.87,5,14.91,2.13,7.66,5,12.81,5.12,20.81.16,8.32-1,17.2-1.93,25.4-9.29-4.56-16.32-4.34-15.7-15.32.44-7.64,6.27-21.8-2.11-26.68-2.85,6.89-1.09,15.4-1.7,22.73-.39,4.71-4.08,11.79-1.37,16.15,3,4.9,11.81,6.23,15.85,10.35,2.81,2.85,2.92,6.89,2.81,11.08-.1,3.56.34,10.78-1.2,14-3.14,6.52-16.34,2.69-22.35,1.71-1.79-.29-5.45-.42-7-1.22-1.22-.62-1.75-2.15-2.84-2.74-2.31-1.25-4.62-1.49-7.22-2.18-8.42,13.18,23,15.05,30.37,15.5,5.43.34,14.07.44,11.43,7.74-1.06,2.93-7.11,9.41-9.65,11.23-4.4,3.15-10.79,6.32-16.61,4.51-4-1.24-3.6-3-5.75-6.21-1.52-2.27-5.22-5.47-6.72-.95-.53,1.59,2.74,8.9,3.82,10.14,2.79,3.19,7.89,3.23,12.15,3.65,10,1,12.95-2.82,19.43-9.52,4.47-4.61,6.94-10.61,11.32-15.14s9.19-1.87,14,1.35h0c2.56,1.47,4.87,2.82,7,4.27h0A28.45,28.45,0,0,1,541,328.28c2.55,4.93,1.14,5.59,5,9.64,3.1,3.26,9,4.71,11.87,8,2.72,3.09,6.83,16,4.41,20.38-4.35,7.91-16.69-.33-20.71-5.26-10.38,6.78,6.48,12.21,11.31,13.41,4,1,6.5,2.22,10.46,1.92,4.53-.34,6.56-3.65,11.28-1.93,1.47.54,5.3,5.87,7.27,7.12,3.17,2,7.74,2.23,11,4.26,4.54,2.85,6.06,1,4.59,7.63-.94,4.29-6.67,8.93-10,11.2a7,7,0,0,0,3.26,2.79c12.89-16,22.52-12.21,39.6-7.49a265.52,265.52,0,0,0-8.2,26.76l1.27.72c-.23,1.65-1.85.78-1.92,2.57,12.94,1.22,27,6.74,40,9.58a108.42,108.42,0,0,0,9.06-28.79c3.31,1.29,7.7,1,10,5.43s-2.18,15.58.43,18.61c5,5.79,6.39-13.21,7.3-15.18,3.17,2.2,6.09,4.85,10.59,5.25,3.61.33,9.41-3.57,12.86-2.75,11.66,2.77-2.12,14.2,3.88,21.86,3.1,3.95,19.31,5.35,24.17,5.27,8.65-.15,16.29-5,15.62-15.47-7.17-3-7.13,5.55-11.63,8.65-5.28,3.65-11.06,1.24-16.49-3-7.92-6.25-8.19-21.14,4.45-18.92,5.52,1,9.33,4.67,13.76,2.47,3.9-1.93,5.54-9.71,8.28-12.68,8-8.65,16.15-2,22.85,5.68l.58-.24c2.13,3.09,2.87,6.83,2.45,12.66-.69,9.62-2.65,18.69,11,17.81-.56-3.87-4.21-5.44-5.59-8.68-2.06-4.81-2.4-12.05-3-17.07,4-1.06,14.33-3.89,18.07-1.39,4.55,3,4.7,13.4,5.73,18.18,1.89,8.82,3.17,10.65,12.61,9.71,4.92-.5,16.95-2,15.65-8.54-9.32-.71-15.64,3.29-22.15-4.18-1.74-2-6.92-9.46-6.47-12.13.92-5.36,5.51-3.41,10.49-3.36,9,.09,17.3,1,23-5.61,4.94-5.71,11.45-15.18,12.44-22.47-15.88-2.53-10,22.18-25.83,19.89-12.34-1.78-4.32-9-1.83-17.24,2.35-7.74,3.92-17.55,8.51-24.21,2.76-4,14-9.88,14.78-15.25a31.79,31.79,0,0,1,10-6.23c9.32-3.76,14.19-5.61,21.44,1.66,1.81,1.81,6.3,7.85,8.66,2.2C888.6,347.77,881,343,878.68,341.16ZM701.78,250.3l-3.43,2.5c-.32-.23-.63-.48-.94-.75a8.36,8.36,0,0,0-.16-2.31A7.91,7.91,0,0,1,701.78,250.3ZM645.55,366.23l1.12-3.17C647.54,364.44,647.15,368.43,645.55,366.23Zm16.51-50.93c.07-.16.13-.33.2-.47l1.33,2.51C663.06,316.68,662.55,316,662.06,315.3ZM840,356.6l.18-.58C840.12,356.24,840.06,356.44,840,356.6Z"/></g><g class="cls-3"><path class="cls-4" d="M1232.73,492.79l-34.7-6.31a798.42,798.42,0,0,0,17-114.14,792.05,792.05,0,0,0,1.88-84.31,1.49,1.49,0,0,1,.63-1,1.54,1.54,0,0,1,1.12-.21l77.17,14a1.45,1.45,0,0,1,1.21,1.71,824.45,824.45,0,0,0-32.85,78.31A813.59,813.59,0,0,0,1232.73,492.79Z"/><path class="cls-5" d="M1208.13,488.27l-3.43-.46q9.58-51.3,17.82-102.79,7.53-47.19,13.94-94.53l3.43.45Z"/><path class="cls-6" d="M1222,491l3.36.79,52.94-193.48-3.36-.78q-10.17,44.55-22.07,88.7Q1238.63,438.85,1222,491Z"/><path class="cls-7" d="M1214.79,489.87a1.64,1.64,0,0,1-1.37-1.94,933.8,933.8,0,0,0,30.41-133.47q1.49-9.79,2.73-19.44a1.73,1.73,0,0,1,.75-1.06,1.83,1.83,0,0,1,1.32-.25,1.63,1.63,0,0,1,1.37,1.94l-33.14,152.9A1.78,1.78,0,0,1,1214.79,489.87Z"/><ellipse class="cls-8" cx="1256.97" cy="295.32" rx="13.33" ry="40.72" transform="translate(746.19 1481.19) rotate(-79.92)"/><ellipse class="cls-9" cx="1256.14" cy="298.9" rx="10.65" ry="34.49" transform="translate(741.4 1483.07) rotate(-79.89)"/><path class="cls-10" d="M1221.49,296s12.9,11.22,34,14.37,35-2.34,35-2.34-3.59,3.76-36.29.3C1250.27,308,1226.84,303.65,1221.49,296Z"/><path class="cls-4" d="M1232.73,492.79l-34.7-6.31a798.42,798.42,0,0,0,17-114.14,792.05,792.05,0,0,0,1.88-84.31,1.49,1.49,0,0,1,.63-1,1.54,1.54,0,0,1,1.12-.21l77.17,14a1.45,1.45,0,0,1,1.21,1.71,824.45,824.45,0,0,0-32.85,78.31A813.59,813.59,0,0,0,1232.73,492.79Z"/><path class="cls-5" d="M1208.13,488.27l-3.43-.46q9.58-51.3,17.82-102.79,7.53-47.19,13.94-94.53l3.43.45Z"/><path class="cls-6" d="M1222,491l3.36.79,52.94-193.48-3.36-.78q-10.17,44.55-22.07,88.7Q1238.63,438.85,1222,491Z"/><path class="cls-7" d="M1214.79,489.87a1.64,1.64,0,0,1-1.37-1.94,933.8,933.8,0,0,0,30.41-133.47q1.49-9.79,2.73-19.44a1.73,1.73,0,0,1,.75-1.06,1.83,1.83,0,0,1,1.32-.25,1.63,1.63,0,0,1,1.37,1.94l-33.14,152.9A1.78,1.78,0,0,1,1214.79,489.87Z"/><ellipse class="cls-8" cx="1256.97" cy="295.32" rx="13.33" ry="40.72" transform="translate(746.19 1481.19) rotate(-79.92)"/><ellipse class="cls-9" cx="1256.14" cy="298.9" rx="10.65" ry="34.49" transform="translate(741.4 1483.07) rotate(-79.89)"/><path class="cls-10" d="M1221.49,296s12.9,11.22,34,14.37,35-2.34,35-2.34-3.59,3.76-36.29.3C1250.27,308,1226.84,303.65,1221.49,296Z"/><path class="cls-11" d="M1179,500.32l32.39-14A801.12,801.12,0,0,1,1169.11,379a794.52,794.52,0,0,1-20.79-81.74,1.44,1.44,0,0,0-.83-.79,1.58,1.58,0,0,0-1.13,0l-72,31a1.45,1.45,0,0,0-.79,1.94,825,825,0,0,1,49.61,68.91A812.13,812.13,0,0,1,1179,500.32Z"/><path class="cls-12" d="M1201.91,490.38l3.25-1.22q-20.9-47.84-40.49-96.15-18-44.29-34.84-89l-3.25,1.22Z"/><path class="cls-13" d="M1189.05,496.1l-3.1,1.52L1090.85,321l3.1-1.52q19.93,41.13,41.46,81.47Q1161.09,449.08,1189.05,496.1Z"/><path class="cls-14" d="M1195.79,493.44a1.65,1.65,0,0,0,.89-2.21A933.69,933.69,0,0,1,1137,368q-3.64-9.21-7-18.33a1.67,1.67,0,0,0-1-.86,1.86,1.86,0,0,0-1.35,0,1.65,1.65,0,0,0-.89,2.21l66.68,141.53A1.79,1.79,0,0,0,1195.79,493.44Z"/><ellipse class="cls-15" cx="1110.92" cy="313.36" rx="40.72" ry="13.33" transform="translate(-33.93 460.55) rotate(-23.08)"/><ellipse class="cls-16" cx="1112.54" cy="316.66" rx="34.49" ry="10.65" transform="translate(-35.02 462) rotate(-23.11)"/><path class="cls-10" d="M1145.66,306.08s-10,13.83-29.88,21.64-34.65,5.6-34.65,5.6,4.34,2.85,35.42-7.87C1120.29,324.16,1142.16,314.7,1145.66,306.08Z"/><path class="cls-17" d="M1178.88,508.55,1198,489a625.47,625.47,0,0,1-58.79-67.67,632.58,632.58,0,0,1-36.72-54.71,1,1,0,0,0-.8-.36,1.21,1.21,0,0,0-.79.35l-42.53,43.4a1.19,1.19,0,0,0,0,1.66,623,623,0,0,1,120.55,96.84Z"/><path class="cls-18" d="M1192.41,494.69l2-1.82q-27.64-29.56-54.52-59.84-24.63-27.75-48.61-56.11l-2,1.82Z"/><path class="cls-19" d="M1184.87,502.58l-1.78,2-114.8-104,1.78-2q25.17,24.84,51.25,48.67Q1152.45,475.62,1184.87,502.58Z"/><path class="cls-20" d="M1188.91,498.69a1.35,1.35,0,0,0,0-1.89,720,720,0,0,1-75.35-74.47q-5.05-5.79-9.91-11.6a1.25,1.25,0,0,0-.92-.36,1.39,1.39,0,0,0-.94.41,1.36,1.36,0,0,0,0,1.89l85.26,86.07A1.3,1.3,0,0,0,1188.91,498.69Z"/><ellipse class="cls-21" cx="1080.41" cy="389.18" rx="31.54" ry="10.33" transform="translate(47.1 890.2) rotate(-45.68)"/><ellipse class="cls-22" cx="1082.44" cy="391.17" rx="26.72" ry="8.25" transform="translate(46.18 892.03) rotate(-45.66)"/><path class="cls-10" d="M1103,374a57.44,57.44,0,0,1-15.28,24.5c-11.91,11.41-23,14-23,14s3.84.89,22.91-15.86C1089.94,394.54,1102.84,381.34,1103,374Z"/><path class="cls-23" d="M1228.6,505.34l-23-14.71a624.94,624.94,0,0,0,42.06-79.15,633.84,633.84,0,0,0,23.48-61.58,1,1,0,0,1,.7-.52,1.12,1.12,0,0,1,.84.16l51.21,32.72a1.2,1.2,0,0,1,.41,1.61,622.87,622.87,0,0,0-95.68,121.47Z"/><path class="cls-24" d="M1212.29,494.88l-2.32-1.33q20.29-35,39.66-70.57,17.76-32.58,34.74-65.6l2.33,1.33Z"/><path class="cls-25" d="M1221.41,500.87l2.19,1.55,88.46-127.19-2.19-1.56q-18.93,29.88-39,59Q1247,467.31,1221.41,500.87Z"/><path class="cls-26" d="M1216.6,498a1.35,1.35,0,0,1-.46-1.83,721.27,721.27,0,0,0,56.68-89.51q3.62-6.78,7-13.53a1.29,1.29,0,0,1,.82-.56,1.33,1.33,0,0,1,1,.19,1.35,1.35,0,0,1,.47,1.83l-63.72,103A1.31,1.31,0,0,1,1216.6,498Z"/><ellipse class="cls-27" cx="1297.7" cy="366.89" rx="10.33" ry="31.54" transform="translate(288.2 1261.06) rotate(-57.32)"/><ellipse class="cls-28" cx="1296.16" cy="369.28" rx="8.25" ry="26.72" transform="translate(285.67 1261.09) rotate(-57.33)"/><path class="cls-10" d="M1272.27,357.13a57.54,57.54,0,0,0,20.4,20.44c14.17,8.43,25.52,8.43,25.52,8.43s-3.54,1.73-25.88-10.3C1289.61,374.25,1274.08,364.29,1272.27,357.13Z"/><path class="cls-29" d="M1224,487.84l-39.89,4.54a1003.3,1003.3,0,0,0-53.52-232.52,1.68,1.68,0,0,1,.33-1.31,1.6,1.6,0,0,1,1.12-.62l88.72-10.11a1.76,1.76,0,0,1,1.94,1.54c-3.48,30.66-5.87,64.23-6.35,100.35A1009.6,1009.6,0,0,0,1224,487.84Z"/><path class="cls-30" d="M1195.74,491l-3.88.65q-8.74-61.71-19-123.17-9.42-56.33-20.14-112.44l3.89-.64Z"/><path class="cls-31" d="M1211.7,489.39l3.93-.24L1200.8,250.77l-3.93.24q5.61,54.21,9.18,108.55Q1210.33,424.38,1211.7,489.39Z"/><path class="cls-32" d="M1203.54,490.58a2,2,0,0,1-2.2-1.75,1166.05,1166.05,0,0,0-16.84-162.38q-2-11.65-4.29-23.07a2.09,2.09,0,0,1,.42-1.47,2.07,2.07,0,0,1,1.34-.74,2,2,0,0,1,2.2,1.76l21.13,185.45A2,2,0,0,1,1203.54,490.58Z"/><ellipse class="cls-33" cx="1176.69" cy="254.61" rx="46.35" ry="15.91" transform="translate(-21.26 134.81) rotate(-6.5)"/><ellipse class="cls-34" cx="1177.12" cy="258.97" rx="39.26" ry="12.72" transform="translate(-21.75 134.89) rotate(-6.5)"/><path class="cls-10" d="M1138.56,267.43a80.67,80.67,0,0,0,42.13,4.88c24-3.55,37-14.51,37-14.51s-2.48,5.5-39.14,12.61C1174.14,271.27,1147.19,274.3,1138.56,267.43Z"/><path class="cls-35" d="M1223.52,510.36l-27,3.07a679.92,679.92,0,0,0-36.18-157.22,1.09,1.09,0,0,1,.21-.88,1.14,1.14,0,0,1,.76-.42l60-6.83a1.18,1.18,0,0,1,1.31,1c-2.35,20.73-4,43.43-4.29,67.85A682.23,682.23,0,0,0,1223.52,510.36Z"/><path class="cls-36" d="M1204.39,512.5l-2.63.44q-5.91-41.73-12.86-83.28-6.37-38.09-13.62-76l2.63-.44Z"/><path class="cls-37" d="M1215.17,511.41l2.66-.16-10-161.18-2.66.17q3.8,36.64,6.21,73.38Q1214.24,467.45,1215.17,511.41Z"/><path class="cls-38" d="M1209.66,512.21a1.34,1.34,0,0,1-1.49-1.18,787.91,787.91,0,0,0-11.38-109.79q-1.38-7.87-2.9-15.6a1.36,1.36,0,0,1,.28-1,1.34,1.34,0,0,1,.9-.5,1.36,1.36,0,0,1,1.5,1.19l14.28,125.38A1.35,1.35,0,0,1,1209.66,512.21Z"/><path class="cls-39" d="M1222.64,349.14c.88,7.73-11.85,22.95-29,24.91s-32.3-10.09-33.18-17.82,12.25-15.5,29.45-17.46S1221.76,341.42,1222.64,349.14Z"/><path class="cls-40" d="M1218.5,355.51c.72,6.32-10.34,16.88-24.9,18.54s-27.16-6.23-27.88-12.54,10.53-12.78,25.1-14.44S1217.78,349.19,1218.5,355.51Z"/><path class="cls-41" d="M1228.22,515.42l-21.31-5.17a547.51,547.51,0,0,0,16.3-129.3.91.91,0,0,1,1.11-.72l47.39,11.51a1,1,0,0,1,.71,1.16c-7.55,15.06-15.1,31.83-22.14,50.26A550.61,550.61,0,0,0,1228.22,515.42Z"/><path class="cls-42" d="M1213.11,511.72l-2.11-.4q7.13-33.29,13.42-66.73,5.76-30.66,10.82-61.45l2.12.4Z"/><path class="cls-43" d="M1221.6,513.9l2.06.61,37.24-125-2.06-.61q-7.32,28.85-15.71,57.38Q1233.13,480.29,1221.6,513.9Z"/><path class="cls-44" d="M1217.19,513a1.09,1.09,0,0,1-.8-1.31,637.64,637.64,0,0,0,21.92-86.43q1.14-6.36,2.14-12.64a1.09,1.09,0,0,1,2.12.52l-24.06,99.06A1.09,1.09,0,0,1,1217.19,513Z"/><path class="cls-45" d="M1272.41,392.92c-1.48,6.1-15.37,14.1-29,10.8s-21.68-16.64-20.2-22.74,13.61-8.35,27.2-5.05S1273.9,386.81,1272.41,392.92Z"/><path class="cls-46" d="M1267.5,396.59c-1.21,5-12.54,9.93-24,7.13s-18.86-12.28-17.65-17.27,11.55-6.76,23.06-4S1268.71,391.6,1267.5,396.59Z"/><path class="cls-47" d="M1192,521.18l19.6-9.84a548.33,548.33,0,0,1-45-122.32,1,1,0,0,0-.54-.5.9.9,0,0,0-.7.05l-43.59,21.87a1,1,0,0,0-.43,1.29A550.36,550.36,0,0,1,1192,521.18Z"/><path class="cls-48" d="M1205.9,514.17l2-.86q-14.43-30.84-28.08-62-12.51-28.57-24.37-57.44l-2,.87Z"/><path class="cls-49" d="M1198.12,518.2l-1.87,1.06-64.41-113.44,1.87-1.06q13.63,26.46,28.22,52.38Q1179.34,488.06,1198.12,518.2Z"/><path class="cls-50" d="M1202.21,516.31a1.09,1.09,0,0,0,.48-1.46,636,636,0,0,1-40.79-79.29q-2.55-5.94-4.93-11.83a1.08,1.08,0,0,0-.63-.54,1.05,1.05,0,0,0-.83.06,1.09,1.09,0,0,0-.49,1.46l45.73,91.11A1.09,1.09,0,0,0,1202.21,516.31Z"/><path class="cls-51" d="M1121.4,411.75c2.82,5.61,18.15,10.28,30.65,4s17.38-21.09,14.57-26.71-15.14-5.07-27.64,1.2S1118.58,406.13,1121.4,411.75Z"/><path class="cls-52" d="M1127,414.22c2.31,4.59,14.45,6.85,25,1.54s15.62-16.2,13.31-20.8-12.77-4-23.35,1.33S1124.71,409.63,1127,414.22Z"/></g><g class="cls-1"><path class="cls-53" d="M294.42,181.77h0a5.46,5.46,0,0,1,5.46,5.46v51.08a1.6,1.6,0,0,1-1.6,1.6h-7.73a1.6,1.6,0,0,1-1.6-1.6V187.23A5.46,5.46,0,0,1,294.42,181.77Z" transform="translate(-66.48 240.66) rotate(-40.33)"/><path class="cls-54" d="M312,192.23h0a5.46,5.46,0,0,1,5.46,5.46v51.08a1.6,1.6,0,0,1-1.6,1.6h-7.73a1.6,1.6,0,0,1-1.6-1.6V197.69a5.46,5.46,0,0,1,5.46-5.46Z" transform="translate(21.6 -27.66) rotate(5.26)"/><path class="cls-55" d="M323.56,256.44h5.92a1.22,1.22,0,0,1,1.22,1.22v39.09a4.18,4.18,0,0,1-4.18,4.18h0a4.18,4.18,0,0,1-4.18-4.18V257.66A1.22,1.22,0,0,1,323.56,256.44Z" transform="translate(-86.1 397.1) rotate(-56.49)"/><path class="cls-56" d="M314,244h5.92a1.22,1.22,0,0,1,1.22,1.22v39.09a4.18,4.18,0,0,1-4.18,4.18h0a4.18,4.18,0,0,1-4.18-4.18V245.26A1.22,1.22,0,0,1,314,244Z" transform="translate(122.94 631.97) rotate(-102.08)"/><path class="cls-57" d="M287.44,298.59h7.73a1.6,1.6,0,0,1,1.6,1.6v51.08a5.46,5.46,0,0,1-5.46,5.46h0a5.46,5.46,0,0,1-5.46-5.46V300.19A1.6,1.6,0,0,1,287.44,298.59Z" transform="translate(-142.72 389.68) rotate(-56.49)"/><path class="cls-58" d="M275,282.39h7.73a1.6,1.6,0,0,1,1.6,1.6v51.08a5.46,5.46,0,0,1-5.46,5.46h0a5.46,5.46,0,0,1-5.46-5.46V284A1.6,1.6,0,0,1,275,282.39Z" transform="translate(32.65 649.31) rotate(-102.08)"/><path class="cls-59" d="M262.13,253.78h0a3.28,3.28,0,0,1,3.28,3.28v30.7a1,1,0,0,1-1,1H259.8a1,1,0,0,1-1-1v-30.7a3.28,3.28,0,0,1,3.28-3.28Z" transform="translate(-113.25 234.12) rotate(-40.33)"/><path class="cls-60" d="M272.69,260.06h0a3.28,3.28,0,0,1,3.28,3.28V294a1,1,0,0,1-1,1h-4.65a1,1,0,0,1-1-1v-30.7a3.28,3.28,0,0,1,3.28-3.28Z" transform="translate(26.58 -23.82) rotate(5.26)"/><path class="cls-61" d="M285,185.67h0a5.45,5.45,0,0,1,5.45,5.45v180.3a1.59,1.59,0,0,1-1.59,1.59h-7.71a1.59,1.59,0,0,1-1.59-1.59V191.12A5.45,5.45,0,0,1,285,185.67Z" transform="translate(257.25 -118.77) rotate(41.59)"/><path class="cls-62" d="M248.25,240.14l-.09,6a1.39,1.39,0,0,0,1.23,1.36l40,4.32a3.79,3.79,0,0,0,4.32-3.73v0a4.74,4.74,0,0,0-4.19-4.65l-40-4.32A1.11,1.11,0,0,0,248.25,240.14Z"/><path class="cls-63" d="M237.61,250.77l4.26,4.63a1.27,1.27,0,0,0,1.76.17l28.39-25a4.14,4.14,0,0,0,0-5.93v0a4.37,4.37,0,0,0-6-.59l-28.4,25A1.21,1.21,0,0,0,237.61,250.77Z"/><path class="cls-64" d="M231.33,258.84,230,263.07a.89.89,0,0,1-1.2.51L199.56,252a3.52,3.52,0,0,1-2.17-4.22h0a3,3,0,0,1,4.08-1.75l29.23,11.54A1,1,0,0,1,231.33,258.84Z"/><path class="cls-65" d="M236.31,270.23l-4.11,1.71a1,1,0,0,1-1.29-.52l-14-28a3,3,0,0,1,1.39-4.21h0a3.54,3.54,0,0,1,4.41,1.79l14.06,28A.88.88,0,0,1,236.31,270.23Z"/><path class="cls-66" d="M224.57,304l-1.77,5.53a1.15,1.15,0,0,1-1.56.67L183,295.09a4.59,4.59,0,0,1-2.82-5.5v0a3.91,3.91,0,0,1,5.32-2.28l38.21,15.08A1.35,1.35,0,0,1,224.57,304Z"/><path class="cls-67" d="M231.08,318.86l-5.38,2.24a1.36,1.36,0,0,1-1.68-.68l-18.37-36.65a3.89,3.89,0,0,1,1.82-5.48h0a4.61,4.61,0,0,1,5.74,2.33l18.38,36.65A1.13,1.13,0,0,1,231.08,318.86Z"/><path class="cls-68" d="M236.88,289.16l0,3.57a.82.82,0,0,0,.73.82l24,2.6a2.29,2.29,0,0,0,2.61-2.25h0a2.85,2.85,0,0,0-2.53-2.8l-24-2.6A.67.67,0,0,0,236.88,289.16Z"/><path class="cls-69" d="M230.48,295.55l2.56,2.78a.76.76,0,0,0,1.06.1l17.06-15a2.49,2.49,0,0,0,0-3.57h0a2.62,2.62,0,0,0-3.63-.36l-17.06,15A.73.73,0,0,0,230.48,295.55Z"/><path class="cls-70" d="M219.88,350.7l6,1.48a1.12,1.12,0,0,0,1.42-.89l22-135.07a4.69,4.69,0,0,0-3.55-5.12h0a3.84,3.84,0,0,0-4.87,3L218.85,349.2A1.36,1.36,0,0,0,219.88,350.7Z"/></g><g class="cls-1"><path class="cls-71" d="M195.09,62h0a7,7,0,0,1,7,7V134.7a2.05,2.05,0,0,1-2.05,2.05h-9.94a2.05,2.05,0,0,1-2.05-2.05V69a7,7,0,0,1,7-7Z" transform="translate(22.35 233.89) rotate(-64.9)"/><path class="cls-72" d="M221.24,64.83h0a7,7,0,0,1,7,7v65.69a2.05,2.05,0,0,1-2.05,2.05h-9.94a2.05,2.05,0,0,1-2.05-2.05V71.85a7,7,0,0,1,7-7Z" transform="translate(-21.35 78.92) rotate(-19.31)"/><path class="cls-73" d="M265.1,133h7.61a1.57,1.57,0,0,1,1.57,1.57v50.26a5.38,5.38,0,0,1-5.38,5.38h0a5.38,5.38,0,0,1-5.38-5.38V134.52A1.57,1.57,0,0,1,265.1,133Z" transform="translate(67.54 402.11) rotate(-81.06)"/><path class="cls-74" d="M247.31,123.55h7.61a1.57,1.57,0,0,1,1.57,1.57v50.26a5.38,5.38,0,0,1-5.38,5.38h0a5.38,5.38,0,0,1-5.38-5.38V125.12a1.57,1.57,0,0,1,1.57-1.57Z" transform="translate(278.95 444.45) rotate(-126.65)"/><path class="cls-75" d="M248.95,200.29h9.94a2.05,2.05,0,0,1,2.05,2.05V268a7,7,0,0,1-7,7h0a7,7,0,0,1-7-7V202.34A2.05,2.05,0,0,1,248.95,200.29Z" transform="matrix(0.16, -0.99, 0.99, 0.16, -20.31, 451.59)"/><path class="cls-76" d="M225.69,188h9.94a2.05,2.05,0,0,1,2.05,2.05v65.69a7,7,0,0,1-7,7h0a7,7,0,0,1-7-7V190.06A2.05,2.05,0,0,1,225.69,188Z" transform="translate(187.55 544.99) rotate(-126.65)"/><path class="cls-77" d="M189.62,164.83h0a4.22,4.22,0,0,1,4.22,4.22v39.48a1.23,1.23,0,0,1-1.23,1.23h-6a1.23,1.23,0,0,1-1.23-1.23V169a4.22,4.22,0,0,1,4.22-4.22Z" transform="translate(-60.42 279.57) rotate(-64.9)"/><path class="cls-78" d="M205.34,166.53h0a4.22,4.22,0,0,1,4.22,4.22v39.48a1.23,1.23,0,0,1-1.23,1.23h-6a1.23,1.23,0,0,1-1.23-1.23V170.75a4.22,4.22,0,0,1,4.22-4.22Z" transform="matrix(0.94, -0.33, 0.33, 0.94, -50.95, 78.54)"/><path class="cls-79" d="M220.7,64.07h0a7,7,0,0,1,7,7V302.93a2,2,0,0,1-2,2h-9.91a2,2,0,0,1-2-2V71.07a7,7,0,0,1,7-7Z" transform="translate(63.66 -56.51) rotate(17.02)"/><path class="cls-80" d="M156.76,158.33l3.08,7a1.77,1.77,0,0,0,2.16.93L211,150a4.88,4.88,0,0,0,3.07-6.67l0,0a6.09,6.09,0,0,0-7.39-3.19l-49,16.31A1.43,1.43,0,0,0,156.76,158.33Z"/><path class="cls-81" d="M150,176.46l7.46,3.14a1.64,1.64,0,0,0,2.15-.74l19.83-44.47a5.33,5.33,0,0,0-3.14-6.95h0A5.6,5.6,0,0,0,168.9,130l-19.82,44.47A1.56,1.56,0,0,0,150,176.46Z"/><path class="cls-82" d="M147,189.25l.68,5.67a1.13,1.13,0,0,1-1.12,1.24l-40.35,2.13a4.53,4.53,0,0,1-4.8-3.78h0a3.87,3.87,0,0,1,3.84-4.23l40.35-2.13A1.31,1.31,0,0,1,147,189.25Z"/><path class="cls-83" d="M158.88,199.91l-3.89,4.2a1.33,1.33,0,0,1-1.78.08l-31.43-25.27a3.84,3.84,0,0,1-.61-5.67h0a4.54,4.54,0,0,1,6.1-.26l31.43,25.26A1.12,1.12,0,0,1,158.88,199.91Z"/><path class="cls-84" d="M163.2,245.65l.88,7.42a1.47,1.47,0,0,1-1.46,1.61l-52.75,2.79a5.91,5.91,0,0,1-6.25-4.92v0a5,5,0,0,1,5-5.52l52.75-2.79A1.73,1.73,0,0,1,163.2,245.65Z"/><path class="cls-85" d="M178.77,259.58l-5.09,5.49a1.74,1.74,0,0,1-2.33.11l-41.09-33a5,5,0,0,1-.8-7.38l0,0a6,6,0,0,1,8-.34l41.08,33A1.47,1.47,0,0,1,178.77,259.58Z"/><path class="cls-86" d="M169.67,221.74l1.85,4.21a1.07,1.07,0,0,0,1.3.56l29.47-9.8a2.94,2.94,0,0,0,1.85-4h0a3.68,3.68,0,0,0-4.46-1.92l-29.47,9.8A.86.86,0,0,0,169.67,221.74Z"/><path class="cls-87" d="M165.61,232.64l4.47,1.88a1,1,0,0,0,1.3-.44l11.91-26.72a3.2,3.2,0,0,0-1.89-4.19h0A3.39,3.39,0,0,0,177,204.7l-11.91,26.71A1,1,0,0,0,165.61,232.64Z"/><path class="cls-88" d="M182.7,302.81l7.76-1.46a1.43,1.43,0,0,0,1.19-1.8l-46.56-169.7a6,6,0,0,0-6.89-4.1h0a4.93,4.93,0,0,0-4.07,6.16l46.56,169.7A1.77,1.77,0,0,0,182.7,302.81Z"/></g><g class="cls-1"><path class="cls-89" d="M72.89,82.64h0a5.46,5.46,0,0,1,5.46,5.46v51.08a1.6,1.6,0,0,1-1.6,1.6H69a1.6,1.6,0,0,1-1.6-1.6V88.1a5.46,5.46,0,0,1,5.46-5.46Z" transform="translate(-59.19 130.33) rotate(-64.9)"/><path class="cls-90" d="M93.22,84.84h0a5.46,5.46,0,0,1,5.46,5.46v51.08a1.6,1.6,0,0,1-1.6,1.6H89.36a1.6,1.6,0,0,1-1.6-1.6V90.31a5.46,5.46,0,0,1,5.46-5.46Z" transform="translate(-32.43 37.24) rotate(-19.31)"/><path class="cls-91" d="M127.33,137.82h5.92a1.22,1.22,0,0,1,1.22,1.22v39.09a4.18,4.18,0,0,1-4.18,4.18h0a4.18,4.18,0,0,1-4.18-4.18V139A1.22,1.22,0,0,1,127.33,137.82Z" transform="translate(-48.07 263.91) rotate(-81.06)"/><path class="cls-92" d="M113.49,130.51h5.92a1.22,1.22,0,0,1,1.22,1.22v39.09a4.18,4.18,0,0,1-4.18,4.18h0a4.18,4.18,0,0,1-4.18-4.18V131.73A1.22,1.22,0,0,1,113.49,130.51Z" transform="translate(63.42 337.37) rotate(-126.65)"/><path class="cls-93" d="M114.77,190.18h7.73a1.6,1.6,0,0,1,1.6,1.6v51.08a5.46,5.46,0,0,1-5.46,5.46h0a5.46,5.46,0,0,1-5.46-5.46V191.78a1.6,1.6,0,0,1,1.6-1.6Z" transform="translate(-116.38 302.39) rotate(-81.06)"/><path class="cls-94" d="M96.69,180.63h7.73a1.6,1.6,0,0,1,1.6,1.6V233.3a5.46,5.46,0,0,1-5.46,5.46h0a5.46,5.46,0,0,1-5.46-5.46V182.22A1.6,1.6,0,0,1,96.69,180.63Z" transform="translate(-7.65 415.55) rotate(-126.65)"/><path class="cls-95" d="M68.64,162.6h0a3.28,3.28,0,0,1,3.28,3.28v30.7a1,1,0,0,1-1,1H66.31a1,1,0,0,1-1-1v-30.7a3.28,3.28,0,0,1,3.28-3.28Z" transform="translate(-123.55 165.85) rotate(-64.9)"/><path class="cls-96" d="M80.86,163.93h0a3.28,3.28,0,0,1,3.28,3.28v30.7a1,1,0,0,1-1,1H78.54a1,1,0,0,1-1-1v-30.7A3.28,3.28,0,0,1,80.86,163.93Z" transform="translate(-55.44 36.95) rotate(-19.31)"/><path class="cls-97" d="M92.81,84.25h0a5.45,5.45,0,0,1,5.45,5.45V270a1.59,1.59,0,0,1-1.59,1.59H89A1.59,1.59,0,0,1,87.36,270V89.7a5.45,5.45,0,0,1,5.45-5.45Z" transform="translate(56.13 -19.37) rotate(17.02)"/><path class="cls-98" d="M43.09,157.56,45.48,163a1.38,1.38,0,0,0,1.68.73L85.29,151a3.78,3.78,0,0,0,2.39-5.18v0a4.75,4.75,0,0,0-5.75-2.49L43.78,156A1.11,1.11,0,0,0,43.09,157.56Z"/><path class="cls-99" d="M37.82,171.65l5.8,2.44a1.26,1.26,0,0,0,1.67-.58l15.42-34.57a4.13,4.13,0,0,0-2.44-5.4h0a4.36,4.36,0,0,0-5.73,2L37.11,170.07A1.21,1.21,0,0,0,37.82,171.65Z"/><path class="cls-100" d="M35.47,181.6,36,186a.88.88,0,0,1-.87,1L3.75,188.63A3.53,3.53,0,0,1,0,185.69H0a3,3,0,0,1,3-3.29l31.38-1.66A1,1,0,0,1,35.47,181.6Z"/><path class="cls-101" d="M44.73,189.89l-3,3.26a1,1,0,0,1-1.39.06L15.88,173.57a3,3,0,0,1-.48-4.41h0a3.53,3.53,0,0,1,4.75-.21L44.59,188.6A.87.87,0,0,1,44.73,189.89Z"/><path class="cls-102" d="M48.09,225.45l.69,5.77a1.15,1.15,0,0,1-1.14,1.26l-41,2.17a4.6,4.6,0,0,1-4.86-3.83v0a3.92,3.92,0,0,1,3.89-4.29l41-2.17A1.35,1.35,0,0,1,48.09,225.45Z"/><path class="cls-103" d="M60.2,236.29l-4,4.27a1.36,1.36,0,0,1-1.81.08L22.48,215a3.89,3.89,0,0,1-.62-5.74v0a4.62,4.62,0,0,1,6.19-.27l32,25.69A1.14,1.14,0,0,1,60.2,236.29Z"/><path class="cls-104" d="M53.12,206.87l1.44,3.27a.82.82,0,0,0,1,.43L78.49,203a2.28,2.28,0,0,0,1.43-3.12h0a2.85,2.85,0,0,0-3.46-1.5L53.54,206A.68.68,0,0,0,53.12,206.87Z"/><path class="cls-105" d="M50,215.34l3.48,1.46a.77.77,0,0,0,1-.35l9.26-20.77a2.5,2.5,0,0,0-1.46-3.26h0a2.63,2.63,0,0,0-3.45,1.19l-9.26,20.77A.74.74,0,0,0,50,215.34Z"/><path class="cls-106" d="M63.26,269.9l6-1.13a1.12,1.12,0,0,0,.92-1.4L34,135.41a4.7,4.7,0,0,0-5.36-3.19h0A3.85,3.85,0,0,0,25.48,137L61.69,269A1.38,1.38,0,0,0,63.26,269.9Z"/></g><g class="cls-1"><path class="cls-107" d="M1613.84,229.19c16.2,5.88,37.18,1.55,54.6,6.72,11.89,3.54,21.66,12.7,33,17.47-5.88,2.41-11.63,3.87-4.09,9.88,6.32,5.05,17.22,4.6,24.64,10.12s8.91,11.29,19.91,8.55a32.37,32.37,0,0,0,5.26-1.65c5.54-.46,10.92-2.66,13.34-7.47a7,7,0,0,0-2.21-1.12c.13.52.28,1,.43,1.57l-4.48-1.6a7.6,7.6,0,0,1,4,0c-4.13-15-6.34-30.48-7.55-46.3,9-7.09,15.21-18.43,24-25.62,11.25-9.23,22.38-4.94,35.16-10.29-11.48-7.92-17.37-6.23-7.48-19.4,6.6-8.8,15-16.78,22.28-24.93,8.17-9.1,17.84-16.12,24.64-26.48,5.14-7.83,16.81-21.27,16.9-30.29-15.92-4-49.12,50.62-65.69,58.66-4-6.6,1.09-16.14,1-23.3-7.78,7.42-8.15,21.69-11.44,31.51-3.61,10.85-8,17-16.43,25.89-6.86,7.27-16.33,13.64-21.84,22.38a41,41,0,0,0-2.09,3.7c-.67-18.83-.42-37.93-.72-56.87,10.71-14.18,20.53-29.81,32.83-42.73,14.82-15.57,37.67-16.73,48.89-35.84-9.84,1.9-23.81,11.2-33,9.59,9.52-18.43,35.24-54.6,28.12-76.59-13.08,9.27-19.07,34.16-27.3,47.82-9.15,15.19-17.82,32.72-29,46.3-.16-8.8,4.07-20.45-1.47-27.84-13.16,6.92-3.58,31.54-6.51,43.63-1.37,5.65-9.71,15-12.94,22.41-.74-21.95-2.68-43.54-8.16-64.11-.61-6.52-1.33-12.93-1.83-18.66-1-11.22,1.17-38.38-7.23-45.19-4.2,17.6-1.84,35.14-.44,52.52-3.12,6.84-2.79,19.4-1.72,31.3-12.1-.78-25.87-10.48-10.72,9.21,2.73,3.54,8.12,10.69,13.43,15.77,0,.34,0,.66,0,1,.57,14.14,9.18,58.34-1.94,67.55-10.21-13.48-17.35-39.38-31.61-49.47-9.11-7.86-24.52-9.86-23-27.32,1.13-13.3,26.39-49.61,18-59.68-9.56,6-9.58,18.88-16.89,27-11.16,12.39-10.25.7-12.09-11.61-2.86-19.06-6.17-45-17.2-61-9.73,6.45,1.27,41.67,2.67,52.41,2.59,19.75,9.9,44.22,7.35,63.91-8.87-4.47-28.6-22.08-37-15.75,15.2,11.11,28.6,21.2,45.15,29.65,8.08,4.11,23.83,14,30.53,16.85,3.36,10.66,11.16,21.43,15,30.33,5.76,13.49,15.44,27.07,18.81,41.23,1.75,7.41,1.61,15.08,1.33,22.74-4.15-7.6-7.29-16.15-8.06-21.55-2.82,3.93,2.31,16.18-.43,18.6-5.78,5.07-17.63-14.31-20.65-17.9-10.86-12.92-20.47-27.17-33.1-38.63-23.63-21.42-5.15,9.92,2.23,19.52,2.35,3.07,4.81,6.11,7.31,9.12-12-2.1-46.22-29.72-51.59-36.67-3.63-4.7-9.12-28.05-14.16-27.6-7,.62,3,27,2,31.73-11.29-3.49-23.48-13.32-35.71-21.21,4.81-13.09,8.83-32.34,15.31-46.38,6.64-14.43,27.33-22.59,29-38.33-12.22,0-16.35,15.72-27.51,15.55-10.22-24.17,11.47-63.89-4.67-85.19-12.53,12.79-4.72,43.23-5.37,59.19-.53,12.57.3,44.13-10.52,51-7.3-10.37-16-23.14-26.89-30.16-3.81,18.86,17.79,28.48,24,43.56,2.54,6.22-1.57,17.53-2.1,25.54-6.59-3.52-13.12-5.91-19.47-5.84-2,11.82,46.34,37.81,56.39,45.11,5.21,3.79,27.15,13.18,27.87,19.53C1636,224.22,1618.17,220.45,1613.84,229.19Z"/><g class="cls-108"><path class="cls-109" d="M1882.56,241.84l-2.49,2.73c-.09-.41-.18-.83-.28-1.23A5.87,5.87,0,0,1,1882.56,241.84Z"/><path class="cls-109" d="M1963.09,161.56c-8.94,9.93-24.88,14.63-34.91,24.53-6.84,6.75-10.19,16.59-16.17,24,4.9-.5,9.37-1.59,6.4,5.27-2.48,5.76-10.1,9.43-13.16,15.91s-2,11-10.51,13.12a24.35,24.35,0,0,1-4.19.79c-4,1.71-8.45,2.17-11.86-.24a5.4,5.4,0,0,1,1.1-1.57c.1.4.19.82.28,1.23l2.49-2.73a5.87,5.87,0,0,0-2.77,1.5,187.87,187.87,0,0,0-11.73-34.44c-8.77-1.55-17.13-7.06-25.75-8.79-11.07-2.2-17.12,4.8-27.81,5.8,5-9.61,9.61-10.61-2-16-7.72-3.61-16.36-6-24.34-8.92-8.91-3.25-18.09-4.52-26.53-9.13-6.37-3.48-19.25-8.42-22.61-14.56,9.45-8.52,52.08,16.71,66.36,16.16.32-6-6.64-10.64-9.21-15.56,8,2.23,13.5,11.86,19.33,17.38,6.43,6.1,11.67,8.69,20.69,11.72,7.35,2.47,16.15,3.38,23.11,7.34,1.06.61,2,1.2,2.78,1.77-6.41-13.12-13.55-26.1-20.26-39.17-12.5-5.79-24.93-12.91-38.06-17.26-15.81-5.24-31.88,2.3-46.53-6.68,7.43-2.29,20.38-1,26-5.46-13.25-9.14-44-24.5-47.2-42.14,12.34,1.56,25.52,16.4,36.14,22.75,11.8,7,24.13,15.89,36.73,21.1-3.1-6.08-10.25-12.51-9.16-19.59,11.54-.06,14,20.28,20.38,27.48,3,3.37,12.14,6.75,17,10.61-7.51-15.28-14.06-30.77-17.82-46.84-2-4.69-3.81-9.33-5.55-13.44-3.42-8-14.81-25.83-11.55-33.56,9.3,10.51,14.09,23.38,19.47,35.78,4.63,3.54,9,12.26,12.6,20.79,8-5,13.88-16.61,10.7,2.39a114.21,114.21,0,0,1-3.44,15.69c.11.24.21.47.32.68,4.77,9.88,15,43.27,26,45.52,2.07-12.95-2.5-33.28,3.58-45.39,3.36-8.7,13.18-15.69,5.79-27.1-5.63-8.69-36.16-24.32-34.12-34.26,8.73.62,13.44,9.43,21.41,12.31,12.15,4.4,7.27-3.26,4-12.36-5-14.08-12.2-33-10.5-48,9,.86,14.34,29,17.3,36.84,5.44,14.45,9.37,33.87,18.29,46.41,4.44-6.3,11.52-25.55,19.58-24.28-6.35,13.14-11.83,24.94-20.07,36.76-4,5.76-11.2,18.28-14.74,22.67,1.59,8.52.18,18.74.83,26.22,1,11.33-.68,24.15,2.18,35.07,1.5,5.71,4.4,10.91,7.38,16,.07-6.71-.9-13.71-2.34-17.68,3.36,1.66,4.32,11.91,7.08,12.57,5.81,1.36,6.84-16.23,7.59-19.79,2.72-12.8,4.09-26.06,8.55-38.51,8.36-23.28,7.15,4.91,5.61,14.17-.5,3-1.07,5.94-1.68,8.91,7.47-5.83,20.78-37.21,21.92-43.92.77-4.54-4-22.52-.38-24,5-2.14,7.82,19.55,10.17,22.46,6.45-6.51,11.21-17.68,16.7-27.55-8.08-7.2-17.85-18.91-27.41-26.15-9.81-7.45-26.94-5.48-33.82-15.64,8.35-4.48,16.92,4.78,24.5.6-1.83-20.27-31.17-39.53-27.9-60,13.24,4.17,19,27.85,25.28,38.53,4.94,8.41,15.9,30.31,25.79,31,1.21-9.76,2.53-21.68,7.4-30.44,9.49,11.51-1.79,26-.5,38.54.54,5.19,7.47,11.43,10.76,16.71,3.22-4.81,6.82-8.83,11.19-11.1,5.71,7.34-17.91,42.78-22.12,51.45-2.18,4.49-13.77,18.92-11.94,23.53C1946.09,166.25,1956.94,157.16,1963.09,161.56Z"/><path class="cls-109" d="M1855.58,247.94c-12.92-.52-35.76-3.3-46.73-10.56,8.63-6.55,19.66,3,27.59-1.45-10.17-7.52-24.49-11.55-35.68-18-8.52-4.9-17-12.12-26.18-15.23,5.6-9.39,63.19,29,74.52,31.55.15-5.84-3.14-12.13-2.43-17.56,8.61,6.21,14.95,16.47,23.58,23.38-3.93,4.06-11.91,8.19-17.9,7.59Z"/><path class="cls-109" d="M1928.51,227.18c2.78-13.68,36.09-54.85,51.4-54.15-5,9.77-23,19.73-22.26,30.89,7.28-.7,14.33-7.86,21.24-6.28-6.4,9-18.8,13.53-28.56,17.75-6,2.61-7,5.11-12.17,8.4-3.75,2.37-8.5,2.6-12.38,5.13Z"/></g><path class="cls-110" d="M2046.91,181.35l-3.21,3.52c-.12-.53-.23-1.06-.36-1.59A7.59,7.59,0,0,1,2046.91,181.35Z"/><path class="cls-111" d="M1879.85,240.75l-2.49,2.73c-.09-.41-.17-.82-.28-1.23A6,6,0,0,1,1879.85,240.75Z"/><path class="cls-112" d="M1960.38,160.47c-8.94,9.94-24.87,14.63-34.91,24.53-6.84,6.76-10.18,16.6-16.17,24,4.91-.49,9.37-1.59,6.41,5.28-2.49,5.75-10.1,9.43-13.17,15.91s-2,11-10.51,13.11a25.4,25.4,0,0,1-4.19.8c-4,1.71-8.45,2.16-11.86-.24a5.65,5.65,0,0,1,1.1-1.58c.11.41.19.82.28,1.23l2.49-2.73a6,6,0,0,0-2.77,1.5,189.1,189.1,0,0,0-11.72-34.44c-8.78-1.54-17.14-7.05-25.76-8.78-11.07-2.21-17.11,4.79-27.81,5.79,5-9.61,9.61-10.6-2-16-7.73-3.61-16.36-6-24.35-8.93-8.91-3.24-18.08-4.51-26.52-9.12-6.38-3.49-19.26-8.42-22.61-14.56,9.44-8.53,52.08,16.7,66.35,16.16.32-6-6.64-10.65-9.2-15.56,8,2.23,13.49,11.86,19.32,17.38,6.44,6.1,11.68,8.68,20.69,11.72,7.36,2.47,16.16,3.37,23.11,7.34a31.87,31.87,0,0,1,2.79,1.77c-6.42-13.13-13.56-26.1-20.26-39.17-12.51-5.8-24.93-12.91-38.07-17.26-15.81-5.25-31.88,2.3-46.53-6.68,7.43-2.3,20.38-1,26-5.47-13.24-9.13-44-24.5-47.19-42.14,12.33,1.57,25.51,16.41,36.13,22.75,11.81,7.06,24.13,15.89,36.73,21.1-3.1-6.07-10.25-12.5-9.15-19.58,11.53-.07,14,20.27,20.38,27.47,3,3.37,12.13,6.75,17,10.62-7.5-15.29-14-30.77-17.81-46.84-2-4.69-3.81-9.34-5.56-13.44-3.42-8-14.8-25.83-11.54-33.56,9.29,10.51,14.08,23.37,19.46,35.77,4.64,3.55,9,12.26,12.6,20.79,8-4.94,13.88-16.61,10.7,2.39a114.21,114.21,0,0,1-3.44,15.69c.11.25.22.47.32.69,4.78,9.88,15,43.27,26,45.51,2.07-12.95-2.5-33.28,3.58-45.39,3.36-8.7,13.18-15.69,5.79-27.1-5.62-8.69-36.16-24.31-34.12-34.25,8.73.62,13.44,9.43,21.41,12.3,12.16,4.4,7.27-3.26,4-12.35-5-14.08-12.19-33-10.5-48,9,.87,14.34,29,17.3,36.84,5.44,14.46,9.37,33.87,18.3,46.41,4.44-6.29,11.51-25.54,19.57-24.28-6.34,13.15-11.82,24.94-20.07,36.76-4,5.76-11.19,18.29-14.74,22.67,1.59,8.53.19,18.74.83,26.22,1,11.33-.68,24.15,2.18,35.07,1.5,5.72,4.4,10.91,7.39,16.05.07-6.72-.91-13.71-2.35-17.69,3.36,1.66,4.32,11.92,7.08,12.57,5.81,1.36,6.84-16.23,7.6-19.78,2.71-12.81,4.09-26.06,8.55-38.51,8.35-23.28,7.14,4.9,5.6,14.16-.49,3-1.07,5.94-1.67,8.92,7.46-5.84,20.77-37.21,21.91-43.92.77-4.55-4-22.52-.38-24.06,5-2.14,7.82,19.56,10.18,22.46,6.45-6.51,11.2-17.68,16.69-27.55C1951.33,94,1941.56,82.28,1932,75c-9.82-7.45-26.94-5.48-33.83-15.65,8.35-4.47,16.93,4.79,24.5.61-1.83-20.28-31.17-39.54-27.9-60,13.25,4.17,19,27.86,25.29,38.54,4.94,8.4,15.89,30.3,25.78,31,1.22-9.76,2.53-21.68,7.4-30.45,9.49,11.52-1.79,26-.49,38.54.53,5.19,7.47,11.43,10.75,16.71,3.23-4.81,6.83-8.83,11.2-11.09,5.71,7.34-17.92,42.78-22.13,51.44-2.18,4.5-13.77,18.93-11.94,23.53C1943.38,165.17,1954.23,156.07,1960.38,160.47Z"/><path class="cls-113" d="M1852.87,246.86c-12.92-.53-35.76-3.31-46.73-10.56,8.63-6.55,19.66,3,27.59-1.45-10.17-7.52-24.49-11.55-35.67-18-8.52-4.89-17-12.11-26.19-15.23,5.6-9.38,63.2,29,74.52,31.56.15-5.84-3.14-12.13-2.43-17.57,8.62,6.21,15,16.48,23.58,23.38-3.93,4.06-11.9,8.19-17.89,7.6Z"/><path class="cls-114" d="M1925.8,226.1c2.78-13.68,36.09-54.86,51.41-54.15-5,9.77-23,19.72-22.26,30.89,7.27-.71,14.33-7.86,21.23-6.28-6.39,9-18.79,13.53-28.56,17.75-6,2.6-7,5.11-12.16,8.39-3.75,2.38-8.51,2.61-12.39,5.13Z"/></g></g></g></svg>