<svg xmlns="http://www.w3.org/2000/svg" xmlns:xlink="http://www.w3.org/1999/xlink" viewBox="0 0 510.32 418.9"><defs><style>.cls-1{fill:url(#linear-gradient);}.cls-2{fill:url(#linear-gradient-2);}</style><linearGradient id="linear-gradient" x1="-35.9" y1="208.12" x2="567.76" y2="212.39" gradientUnits="userSpaceOnUse"><stop offset="0" stop-color="#dd9f3c"/><stop offset="0.26" stop-color="#fccc75"/><stop offset="0.51" stop-color="#f9d498"/><stop offset="0.74" stop-color="#fccc6d"/><stop offset="1" stop-color="#e1a543"/></linearGradient><linearGradient id="linear-gradient-2" x1="20.07" y1="209.84" x2="505.45" y2="211.59" gradientUnits="userSpaceOnUse"><stop offset="0" stop-color="#40b3f9"/><stop offset="0.07" stop-color="#56c4f8"/><stop offset="0.19" stop-color="#74dbf6"/><stop offset="0.31" stop-color="#8aecf5"/><stop offset="0.42" stop-color="#97f7f4"/><stop offset="0.52" stop-color="#9cfaf4"/><stop offset="0.63" stop-color="#92f2f5"/><stop offset="0.82" stop-color="#78def6"/><stop offset="1" stop-color="#57c5f8"/></linearGradient></defs><g id="Layer_2" data-name="Layer 2"><g id="end_game" data-name="end game"><path class="cls-1" d="M465.23,147.24h-21.5C426.07,54.73,352.06,0,258.86,0S84.25,54.73,66.59,147.24H45.09C20.19,147.24,0,168.46,0,194.64V371.5c0,26.18,20.19,47.4,45.09,47.4H465.23c24.9,0,45.09-21.22,45.09-47.4V194.64C510.32,168.46,490.13,147.24,465.23,147.24Z"/><path class="cls-2" d="M454.14,161.39H433.93a180.8,180.8,0,0,0-354.45,0H59.28A42.38,42.38,0,0,0,16.9,203.77V361.91a42.37,42.37,0,0,0,42.38,42.38H454.14a42.37,42.37,0,0,0,42.38-42.38V203.77A42.38,42.38,0,0,0,454.14,161.39Z"/></g></g></svg>