<svg xmlns="http://www.w3.org/2000/svg" xmlns:xlink="http://www.w3.org/1999/xlink" viewBox="0 0 202.62 61.14"><defs><style>.cls-1{fill:url(#linear-gradient);}.cls-2{fill:#2f4b4f;opacity:0.2;}.cls-3{fill:#fff;}.cls-4{fill:url(#linear-gradient-2);}.cls-5{fill:url(#linear-gradient-3);}.cls-6{fill:url(#linear-gradient-4);}.cls-7{fill:#3c8b9e;}</style><linearGradient id="linear-gradient" x1="7.78" y1="-12.38" x2="177.26" y2="65.51" gradientUnits="userSpaceOnUse"><stop offset="0" stop-color="#40b3f9"/><stop offset="0.07" stop-color="#56c4f8"/><stop offset="0.19" stop-color="#74dbf6"/><stop offset="0.31" stop-color="#8aecf5"/><stop offset="0.42" stop-color="#97f7f4"/><stop offset="0.52" stop-color="#9cfaf4"/><stop offset="0.63" stop-color="#92f2f5"/><stop offset="0.82" stop-color="#78def6"/><stop offset="1" stop-color="#57c5f8"/></linearGradient><linearGradient id="linear-gradient-2" x1="0.96" y1="30.35" x2="199.44" y2="30.79" gradientUnits="userSpaceOnUse"><stop offset="0" stop-color="#dd9f3c"/><stop offset="0.26" stop-color="#fccc75"/><stop offset="0.51" stop-color="#f9d498"/><stop offset="0.74" stop-color="#fccc6d"/><stop offset="1" stop-color="#e1a543"/></linearGradient><linearGradient id="linear-gradient-3" x1="-2401.43" y1="-544.44" x2="-2379.12" y2="-522.63" gradientTransform="translate(964.49 -2205.55) rotate(-79.63)" gradientUnits="userSpaceOnUse"><stop offset="0.4" stop-color="#ffa034"/><stop offset="0.92" stop-color="#f94319"/></linearGradient><linearGradient id="linear-gradient-4" x1="-611.77" y1="-0.01" x2="-589.03" y2="22.23" gradientTransform="matrix(-1, 0, 0, 1, -407.69, 0)" xlink:href="#linear-gradient-3"/></defs><g id="Layer_2" data-name="Layer 2"><g id="end_game" data-name="end game"><rect class="cls-1" x="6.06" y="6.23" width="190.36" height="48.68" rx="24.34"/><path class="cls-2" d="M10.29,44.18A24.39,24.39,0,0,0,30.4,54.91H172.08s13.41,0,20.18-10.73c0,0-4.68,5.16-16,6.46-10.78,1.25-141.13.72-149.28.9C17.35,51.77,10.29,44.18,10.29,44.18Z"/><path class="cls-3" d="M59.45,10.06c1.73,1.74,80.59,1.64,83,0S58.06,8.66,59.45,10.06Z"/><path class="cls-4" d="M171.29,0H30.61A30.57,30.57,0,0,0,0,30.57H0A30.57,30.57,0,0,0,30.61,61.14H171.29a30.57,30.57,0,0,0,30.57-30.57h0A30.57,30.57,0,0,0,171.29,0Zm25.2,30.57a24.34,24.34,0,0,1-24.34,24.34H30.47A24.34,24.34,0,0,1,6.13,30.57h0A24.34,24.34,0,0,1,30.47,6.23H172.15a24.34,24.34,0,0,1,24.34,24.34Z"/><path class="cls-5" d="M20.69,50.43l-4,2.2a1.82,1.82,0,0,0-.95,1.42l-.48,4.56a1.83,1.83,0,0,1-3.09,1.14L8.81,56.59a1.84,1.84,0,0,0-1.65-.46l-4.49.95a1.83,1.83,0,0,1-2-2.58l2-4.15a1.82,1.82,0,0,0-.07-1.71l-2.29-4a1.83,1.83,0,0,1,1.83-2.73l4.55.6a1.82,1.82,0,0,0,1.6-.59l3.08-3.42a1.84,1.84,0,0,1,3.17.9l.83,4.52a1.85,1.85,0,0,0,1.06,1.34l4.2,1.87A1.83,1.83,0,0,1,20.69,50.43Z"/><path class="cls-6" d="M191.4,22.41l2.94-3.65a1.84,1.84,0,0,1,1.59-.69l4.67.35a1.87,1.87,0,0,0,1.71-2.88l-2.56-3.92a1.86,1.86,0,0,1-.16-1.74l1.78-4.33A1.87,1.87,0,0,0,199.15,3l-4.52,1.22a1.87,1.87,0,0,1-1.7-.38l-3.57-3a1.87,1.87,0,0,0-3.08,1.33l-.23,4.67a1.85,1.85,0,0,1-.89,1.5l-4,2.46a1.87,1.87,0,0,0,.31,3.34l4.38,1.67a1.88,1.88,0,0,1,1.15,1.3l1.1,4.55A1.88,1.88,0,0,0,191.4,22.41Z"/><path class="cls-7" d="M32,31.71h1.56a1,1,0,0,1,.77.28,1.06,1.06,0,0,1,.28.76,1.22,1.22,0,0,1-.59,1,2.44,2.44,0,0,0-.8.94,4.43,4.43,0,0,0-.33,1.94v1.53a2,2,0,0,1-2.15,2.14,2.07,2.07,0,0,1-1.56-.59,2.1,2.1,0,0,1-.59-1.55V36.78A3.64,3.64,0,0,1,29,34.93a3.39,3.39,0,0,1,1.11-1.18h-1a1.41,1.41,0,0,1-1-.39,1.37,1.37,0,0,1-.39-1v-.64a6.1,6.1,0,0,1,2.34-5,7.14,7.14,0,0,1,2.4-1.21,10.38,10.38,0,0,1,2.76-.38,9.45,9.45,0,0,1,2.76.4,6.88,6.88,0,0,1,2.4,1.25A6.31,6.31,0,0,1,42,28.94a7.07,7.07,0,0,1,.64,3.14v6.05a2.1,2.1,0,0,1-.58,1.55,2,2,0,0,1-1.54.59A2.13,2.13,0,0,1,39,39.68a2.08,2.08,0,0,1-.61-1.55V31.89a3.57,3.57,0,0,0-.26-1.42,2.58,2.58,0,0,0-.72-.95,2.93,2.93,0,0,0-1-.54,3.94,3.94,0,0,0-1.19-.17A4.39,4.39,0,0,0,34,29a2.84,2.84,0,0,0-1,.49,2.41,2.41,0,0,0-.7.85A2.6,2.6,0,0,0,32,31.49Z"/><path class="cls-7" d="M55.15,34.85H51a2.52,2.52,0,0,0-1.31.25.91.91,0,0,0-.39.82,1.07,1.07,0,0,0,.19.65,1.26,1.26,0,0,0,.5.37,2.06,2.06,0,0,0,.67.17h.71a1.44,1.44,0,0,1,1.21.41A1.6,1.6,0,0,1,53,38.58a1.73,1.73,0,0,1-.51,1.27,2.49,2.49,0,0,1-1.7.53A10.8,10.8,0,0,1,49,40.27a5.81,5.81,0,0,1-1.91-.59,4.15,4.15,0,0,1-1.51-1.29,3.49,3.49,0,0,1-.62-2.17,3.77,3.77,0,0,1,1.46-3.28,6.89,6.89,0,0,1,4.07-1h4.68v-.51a2.86,2.86,0,0,0-.7-2.12,3.13,3.13,0,0,0-2.23-.67,4.79,4.79,0,0,0-1.82.34A2.86,2.86,0,0,0,49.05,30a2.05,2.05,0,0,1-1.69.73,2,2,0,0,1-1-.22,1.41,1.41,0,0,1-.63-.6,1.66,1.66,0,0,1-.19-.9A2.31,2.31,0,0,1,46,28a4.85,4.85,0,0,1,2.38-2.06,9.26,9.26,0,0,1,3.88-.76c2.49,0,4.31.59,5.48,1.78a6.83,6.83,0,0,1,1.74,5v6.24a2.13,2.13,0,0,1-.57,1.55,2,2,0,0,1-1.55.59,2.13,2.13,0,0,1-1.57-.59,2.07,2.07,0,0,1-.6-1.55Z"/><path class="cls-7" d="M49.37,19.86a2.08,2.08,0,0,1,.39-1.24,1.72,1.72,0,0,1,1.46-.53,1.54,1.54,0,0,1,1.17.33,2.25,2.25,0,0,1,.39.63,1.26,1.26,0,0,0,.47.77,2.66,2.66,0,0,0,1.33.23h5.1a1.51,1.51,0,0,1,1.12.42,1.68,1.68,0,0,1,0,2.22,1.51,1.51,0,0,1-1.12.42h-5.9a5.93,5.93,0,0,1-3.17-.76A2.71,2.71,0,0,1,49.37,19.86Z"/><path class="cls-7" d="M61.89,33.16V27.3A2,2,0,0,1,64,25.18a2.17,2.17,0,0,1,1.57.59,2,2,0,0,1,.61,1.53v6.07a3.19,3.19,0,0,0,.88,2.49,3.37,3.37,0,0,0,2.31.79,3.29,3.29,0,0,0,2.26-.79,3.19,3.19,0,0,0,.88-2.49V27.3a2,2,0,0,1,2.13-2.12,2.17,2.17,0,0,1,1.57.59,2,2,0,0,1,.6,1.53v5.86a7.79,7.79,0,0,1-.63,3.29,6.34,6.34,0,0,1-1.66,2.21,6.67,6.67,0,0,1-2.38,1.27,9.86,9.86,0,0,1-5.56,0,6.71,6.71,0,0,1-2.39-1.27,6.15,6.15,0,0,1-1.68-2.21A7.79,7.79,0,0,1,61.89,33.16Z"/><path class="cls-7" d="M83.56,34.26v3.87A2.13,2.13,0,0,1,83,39.68a2,2,0,0,1-1.55.59,2.13,2.13,0,0,1-1.57-.59,2.07,2.07,0,0,1-.6-1.55V27.3a2,2,0,0,1,2.12-2.12,2.17,2.17,0,0,1,1.57.59,2,2,0,0,1,.6,1.53v3.47H86a5.19,5.19,0,0,1-.24-1.53,4,4,0,0,1,1.17-3,5,5,0,0,1,3.58-1.12,5.21,5.21,0,0,1,3.56,1.07,3.75,3.75,0,0,1,1.23,3,4.11,4.11,0,0,1-1.09,2.92,4.82,4.82,0,0,1-3.1,1.35s0,.07,0,.11,0,.07.06.11l.27.61a.28.28,0,0,1,.07.11.49.49,0,0,0,0,.11L93,37.67a2,2,0,0,1,.07,1.92,2,2,0,0,1-1.79.71,2.39,2.39,0,0,1-2.23-1.45l-1.56-3.57a.49.49,0,0,1,0-.11.41.41,0,0,0-.06-.11l-.22-.59a.2.2,0,0,1-.07-.1.36.36,0,0,0,0-.11ZM90,30.55a3.11,3.11,0,0,0,1.25-.29,1.08,1.08,0,0,0,.55-1.08,1.06,1.06,0,0,0-.31-.87.88.88,0,0,0-.66-.23.93.93,0,0,0-.82.35,1.45,1.45,0,0,0-.22.81,3.26,3.26,0,0,0,0,.64C89.89,30.08,89.94,30.3,90,30.55Z"/><path class="cls-7" d="M107.34,37.83a3.5,3.5,0,0,1-.65.91,4,4,0,0,1-1,.81,6,6,0,0,1-1.39.56,6.23,6.23,0,0,1-1.72.22,5.92,5.92,0,0,1-2.57-.51,4.94,4.94,0,0,1-1.74-1.37,5.46,5.46,0,0,1-1-2,8.19,8.19,0,0,1-.32-2.35V27.3A2,2,0,0,1,99,25.18a2.17,2.17,0,0,1,1.57.59,2,2,0,0,1,.61,1.53v5.94a4,4,0,0,0,.69,2.52,2.68,2.68,0,0,0,2.23.89,3,3,0,0,0,2.42-.95,3.93,3.93,0,0,0,.81-2.62V27.3a2,2,0,0,1,2.12-2.12,2.17,2.17,0,0,1,1.57.59,2,2,0,0,1,.6,1.53V38.13a2.28,2.28,0,0,1-.51,1.55,2,2,0,0,1-1.61.59,2.42,2.42,0,0,1-1.58-.47,1.47,1.47,0,0,1-.59-1.22Z"/><path class="cls-7" d="M102.61,20a1.35,1.35,0,0,1-1-.39,1.39,1.39,0,0,1-.38-1,1.48,1.48,0,0,1,.38-1.06,1.35,1.35,0,0,1,1-.39h2.15a2.8,2.8,0,0,1,1.22.22,1.5,1.5,0,0,1,.62.54,2.07,2.07,0,0,1,.27.69,3.41,3.41,0,0,0,.18.7,1.24,1.24,0,0,0,.38.54,1.33,1.33,0,0,0,.85.22h3.09a1.49,1.49,0,0,1,1.1.4,1.47,1.47,0,0,1,.4,1.1,1.5,1.5,0,0,1-.4,1.11,1.46,1.46,0,0,1-1.1.42h-4.68a2.39,2.39,0,0,1-1.15-.23,1.64,1.64,0,0,1-.62-.57,3.53,3.53,0,0,1-.34-.74,7.12,7.12,0,0,0-.27-.74,1.38,1.38,0,0,0-.43-.58A1.32,1.32,0,0,0,103,20Z"/><path class="cls-7" d="M115.93,32.35a3,3,0,0,1-.84-.12,2.08,2.08,0,0,1-.74-.38,1.64,1.64,0,0,1-.51-.69,2.73,2.73,0,0,1-.19-1.09,4.57,4.57,0,0,1,.47-2.12,4.49,4.49,0,0,1,1.29-1.55,5.61,5.61,0,0,1,1.91-.95,8,8,0,0,1,2.35-.32,7.5,7.5,0,0,1,2.4.37,5.6,5.6,0,0,1,2,1.12,5.22,5.22,0,0,1,1.33,1.8,5.79,5.79,0,0,1,.48,2.43v7.28a2.15,2.15,0,1,1-4.29,0v-7.2a2.28,2.28,0,0,0-.5-1.56,1.72,1.72,0,0,0-1.38-.56,2.05,2.05,0,0,0-1.36.43,1.73,1.73,0,0,0-.55,1.37,1.66,1.66,0,0,1-.55,1.34A2,2,0,0,1,115.93,32.35Z"/><path class="cls-7" d="M132.53,34.26v3.87a2.1,2.1,0,0,1-.58,1.55,2,2,0,0,1-1.54.59,2.13,2.13,0,0,1-1.57-.59,2.08,2.08,0,0,1-.61-1.55V27.3a2,2,0,0,1,2.13-2.12,2.18,2.18,0,0,1,1.57.59,2,2,0,0,1,.6,1.53v3.47H135a5.19,5.19,0,0,1-.24-1.53,4,4,0,0,1,1.17-3,5,5,0,0,1,3.58-1.12A5.21,5.21,0,0,1,143,26.2a3.75,3.75,0,0,1,1.22,3,4.1,4.1,0,0,1-1.08,2.92,4.83,4.83,0,0,1-3.11,1.35.49.49,0,0,1,0,.11.23.23,0,0,0,.07.11l.27.61a.49.49,0,0,1,.07.11.25.25,0,0,0,0,.11L142,37.67a2,2,0,0,1,.06,1.92,2,2,0,0,1-1.78.71,2.42,2.42,0,0,1-1.35-.39,2.35,2.35,0,0,1-.88-1.06l-1.56-3.57a.49.49,0,0,1,0-.11.28.28,0,0,0-.07-.11l-.21-.59a.2.2,0,0,1-.07-.1.36.36,0,0,0,0-.11ZM139,30.55a3.15,3.15,0,0,0,1.25-.29,1.35,1.35,0,0,0,.24-2,1.1,1.1,0,0,0-1.48.12,1.45,1.45,0,0,0-.23.81,3.24,3.24,0,0,0,.06.64A5.78,5.78,0,0,0,139,30.55Z"/><path class="cls-7" d="M155.87,34.85h-4.11a2.5,2.5,0,0,0-1.3.25.91.91,0,0,0-.39.82,1,1,0,0,0,.19.65,1.26,1.26,0,0,0,.5.37,2.06,2.06,0,0,0,.67.17h.71a1.44,1.44,0,0,1,1.21.41,1.6,1.6,0,0,1,.38,1.06,1.74,1.74,0,0,1-.52,1.27,2.46,2.46,0,0,1-1.69.53,10.8,10.8,0,0,1-1.81-.11,5.81,5.81,0,0,1-1.91-.59,4.27,4.27,0,0,1-1.52-1.29,3.55,3.55,0,0,1-.61-2.17,3.75,3.75,0,0,1,1.46-3.28,6.89,6.89,0,0,1,4.07-1h4.67v-.51a2.86,2.86,0,0,0-.69-2.12,3.13,3.13,0,0,0-2.23-.67,4.79,4.79,0,0,0-1.82.34A2.86,2.86,0,0,0,149.78,30a2.06,2.06,0,0,1-1.7.73,2,2,0,0,1-1-.22,1.41,1.41,0,0,1-.63-.6,1.66,1.66,0,0,1-.19-.9,2.21,2.21,0,0,1,.38-1.07,4.87,4.87,0,0,1,2.37-2.06,9.31,9.31,0,0,1,3.89-.76c2.49,0,4.31.59,5.48,1.78a6.83,6.83,0,0,1,1.74,5v6.24a2.1,2.1,0,0,1-.58,1.55,2,2,0,0,1-1.54.59,2.11,2.11,0,0,1-1.57-.59,2.08,2.08,0,0,1-.61-1.55Z"/><path class="cls-7" d="M150.1,19.86a2.08,2.08,0,0,1,.39-1.24,1.72,1.72,0,0,1,1.46-.53,1.54,1.54,0,0,1,1.17.33,2.25,2.25,0,0,1,.39.63,1.26,1.26,0,0,0,.47.77,2.63,2.63,0,0,0,1.33.23h5.1a1.51,1.51,0,0,1,1.12.42,1.71,1.71,0,0,1,0,2.22,1.51,1.51,0,0,1-1.12.42H154.5a6,6,0,0,1-3.17-.76A2.72,2.72,0,0,1,150.1,19.86Z"/><path class="cls-7" d="M166.73,31.71h1.55a1,1,0,0,1,1.05,1,1.22,1.22,0,0,1-.59,1,2.43,2.43,0,0,0-.79.94,4.27,4.27,0,0,0-.34,1.94v1.53a2.1,2.1,0,0,1-.59,1.55,2.16,2.16,0,0,1-3.71-1.55V36.78a3.64,3.64,0,0,1,.42-1.85,3.42,3.42,0,0,1,1.12-1.18h-1a1.39,1.39,0,0,1-1-.39,1.37,1.37,0,0,1-.39-1v-.64a6.24,6.24,0,0,1,.64-2.93,6.43,6.43,0,0,1,1.69-2.06,7.1,7.1,0,0,1,2.41-1.21,10.25,10.25,0,0,1,2.75-.38,9.57,9.57,0,0,1,2.77.4,6.92,6.92,0,0,1,2.39,1.25,6.19,6.19,0,0,1,1.69,2.16,7.06,7.06,0,0,1,.65,3.14v6.05a2.14,2.14,0,0,1-.58,1.55,2,2,0,0,1-1.55.59,2.14,2.14,0,0,1-1.57-.59,2.07,2.07,0,0,1-.6-1.55V31.89a3.39,3.39,0,0,0-.27-1.42,2.67,2.67,0,0,0-.71-.95,3.12,3.12,0,0,0-1-.54,4,4,0,0,0-1.2-.17,4.39,4.39,0,0,0-1.22.16,2.84,2.84,0,0,0-1,.49,2.41,2.41,0,0,0-.7.85,2.59,2.59,0,0,0-.25,1.18Z"/></g></g></svg>