<svg xmlns="http://www.w3.org/2000/svg" xmlns:xlink="http://www.w3.org/1999/xlink" viewBox="0 0 161.47 108.99"><defs><style>.cls-1{fill:url(#New_Gradient_Swatch_1);}.cls-2{fill:url(#New_Gradient_Swatch_1-2);}</style><linearGradient id="New_Gradient_Swatch_1" x1="78.07" y1="-264.76" x2="39.33" y2="-127.6" gradientTransform="translate(49.23 246.32) rotate(-7.92)" gradientUnits="userSpaceOnUse"><stop offset="0.3" stop-color="#f38e26"/><stop offset="0.92" stop-color="#c73127"/></linearGradient><linearGradient id="New_Gradient_Swatch_1-2" x1="64.04" y1="-219.09" x2="52.39" y2="-140.21" xlink:href="#New_Gradient_Swatch_1"/></defs><g id="Layer_2" data-name="Layer 2"><g id="BG"><path class="cls-1" d="M85.2,2.79,105,22.87c1.85,1.89,5.07,2.92,8.61,2.77l37.7-1.58c8.9-.37,13.41,6.31,7.62,11.31L134.39,56.55c-2.3,2-3.12,4.5-2.21,6.73L142,87c2.31,5.61-6.25,11.32-14.49,9.66l-34.9-7a15.67,15.67,0,0,0-10,1.39L51,107.32c-7.48,3.83-17.28.68-16.59-5.34l2.94-25.5c.27-2.4-1.21-4.59-4-5.88L4,56.92C-2.93,53.68-.42,46,8.24,44L45,35.19c3.44-.83,6.25-2.7,7.52-5L66,5.46C69.18-.37,80.54-1.95,85.2,2.79Z"/><path class="cls-2" d="M84.56,26.35l10.2,10.36a5.92,5.92,0,0,0,4.44,1.43l19.45-.82c4.59-.19,6.92,3.26,3.94,5.84L110,54.09a3,3,0,0,0-1.14,3.47l5,12.25c1.2,2.89-3.23,5.83-7.48,5l-18-3.61a8.08,8.08,0,0,0-5.14.72L66.89,80.28c-3.86,2-8.91.36-8.56-2.75l1.52-13.16a3.06,3.06,0,0,0-2.05-3L42.66,54.28c-3.57-1.67-2.28-5.62,2.19-6.69l18.94-4.53a5.91,5.91,0,0,0,3.88-2.58l7-12.75C76.3,24.72,82.16,23.9,84.56,26.35Z"/></g></g></svg>