<svg xmlns="http://www.w3.org/2000/svg" xmlns:xlink="http://www.w3.org/1999/xlink" viewBox="0 0 1905.72 208.2"><defs><style>.cls-1{opacity:0.66;fill:url(#linear-gradient);}</style><linearGradient id="linear-gradient" x1="-240.87" y1="-95.65" x2="-240.87" y2="215.52" gradientTransform="matrix(-1, 0.07, -0.09, -1.31, 716.18, 151.27)" gradientUnits="userSpaceOnUse"><stop offset="0.08" stop-color="#fff"/><stop offset="0.12" stop-color="#f8fdfd" stop-opacity="0.91"/><stop offset="0.21" stop-color="#e9f8f9" stop-opacity="0.69"/><stop offset="0.3" stop-color="#def5f5" stop-opacity="0.52"/><stop offset="0.37" stop-color="#d5f2f3" stop-opacity="0.4"/><stop offset="0.43" stop-color="#d0f1f2" stop-opacity="0.33"/><stop offset="0.47" stop-color="#cef0f1" stop-opacity="0.3"/><stop offset="0.56" stop-color="#c6ecf0" stop-opacity="0.28"/><stop offset="0.67" stop-color="#aee1ee" stop-opacity="0.23"/><stop offset="0.72" stop-color="#9fdaec" stop-opacity="0.2"/></linearGradient></defs><g id="Layer_2" data-name="Layer 2"><g id="BG"><path class="cls-1" d="M1905.72,164c-208.26,16.22-377.75,2.36-497.18-14.3-280.41-39.1-363-104.49-510.45-33.15-93.51,45.22-157.87,118.75-244.23,81.36-56.57-24.49-92.08-83.37-179.33-98.35-41-7-69.49-.26-91.81,3.23C192.86,132.42,2.16-8.07,0,.37-1.14,5,53.36,53.83,132.12,68.58,209.78,83.13,237.4,50.71,382.56,29.77c70.72-10.21,106.74-15,139.16-2.08C605.48,61.19,611.64,141.25,673,173.48,767.34,223,835.4,74.17,984.77,23.91,1103.13-15.92,1174.24,38,1350.86,92,1479.43,131.32,1666.27,171.42,1905.72,164Z"/></g></g></svg>