<svg xmlns="http://www.w3.org/2000/svg" xmlns:xlink="http://www.w3.org/1999/xlink" viewBox="0 0 2696.7 504.85"><defs><style>.cls-1{opacity:0.66;fill:url(#linear-gradient);}</style><linearGradient id="linear-gradient" x1="1348.35" y1="-52.9" x2="1348.35" y2="647.27" gradientUnits="userSpaceOnUse"><stop offset="0.08" stop-color="#fff"/><stop offset="0.12" stop-color="#f8fdfd" stop-opacity="0.91"/><stop offset="0.21" stop-color="#e9f8f9" stop-opacity="0.69"/><stop offset="0.3" stop-color="#def5f5" stop-opacity="0.52"/><stop offset="0.37" stop-color="#d5f2f3" stop-opacity="0.4"/><stop offset="0.43" stop-color="#d0f1f2" stop-opacity="0.33"/><stop offset="0.47" stop-color="#cef0f1" stop-opacity="0.3"/><stop offset="0.56" stop-color="#c6ecf0" stop-opacity="0.28"/><stop offset="0.67" stop-color="#aee1ee" stop-opacity="0.23"/><stop offset="0.72" stop-color="#9fdaec" stop-opacity="0.2"/></linearGradient></defs><g id="Layer_2" data-name="Layer 2"><g id="BG"><path class="cls-1" d="M0,.07C1.45-3.2,196,116.34,520.8,182c148.54,30,327.08,66.64,549.32,39.24C1422.63,177.77,1512.19,3.92,1780,53.57c121,22.44,255.72,85.51,253.66,142.07-1.77,48.71-105.12,96.51-167.09,115.11-66.24,19.88-109.79,13.77-111.54,24.62-3.13,19.49,132.48,70.75,288.93,96.31,399.68,65.29,651.55,24.13,652.77,35.67,1.81,17-546.39,90.83-938.13-32.11-21.47-6.73-164.27-52.13-160.52-96.31,5.25-61.77,292.17-63.73,296.34-126.58,2.11-31.84-69.18-66.79-126.24-78-78.2-15.33-143.82,11.16-157.81,16.71-199,79-415.51,103.63-622.25,159.32C516.12,437.53-2.44,5.59,0,.07Z"/></g></g></svg>